<?xml version="1.0" encoding="utf-8" standalone="no"?>
<!DOCTYPE svg PUBLIC "-//W3C//DTD SVG 1.1//EN"
  "http://www.w3.org/Graphics/SVG/1.1/DTD/svg11.dtd">
<svg xmlns:xlink="http://www.w3.org/1999/xlink" width="572.81375pt" height="310.561812pt" viewBox="0 0 572.81375 310.561812" xmlns="http://www.w3.org/2000/svg" version="1.1">
 <metadata>
  <rdf:RDF xmlns:dc="http://purl.org/dc/elements/1.1/" xmlns:cc="http://creativecommons.org/ns#" xmlns:rdf="http://www.w3.org/1999/02/22-rdf-syntax-ns#">
   <cc:Work>
    <dc:type rdf:resource="http://purl.org/dc/dcmitype/StillImage"/>
    <dc:date>2026-08-01T08:30:28.335627</dc:date>
    <dc:format>image/svg+xml</dc:format>
    <dc:creator>
     <cc:Agent>
      <dc:title>Matplotlib v3.11.1, https://matplotlib.org/</dc:title>
     </cc:Agent>
    </dc:creator>
   </cc:Work>
  </rdf:RDF>
 </metadata>
 <defs>
  <style type="text/css">*{stroke-linejoin: round; stroke-linecap: butt}</style>
 </defs>
 <g id="figure_1">
  <g id="patch_1">
   <path d="M 0 310.561812 
L 572.81375 310.561812 
L 572.81375 0 
L 0 0 
z
" style="fill: #faf8f3"/>
  </g>
  <g id="axes_1">
   <g id="patch_2">
    <path d="M 35.51375 286.861812 
L 565.61375 286.861812 
L 565.61375 31.837812 
L 35.51375 31.837812 
z
" style="fill: #faf8f3"/>
   </g>
   <g id="matplotlib.axis_1">
    <g id="xtick_1">
     <g id="line2d_1"/>
     <g id="text_1">
      <text style="font-size: 13px; font-family: 'Helvetica Neue', 'Helvetica', 'Arial', 'DejaVu Sans', sans-serif; text-anchor: middle; fill: #8a8f98" x="74.204166" y="300.238766" transform="rotate(-0 74.204166 300.238766)">2008</text>
     </g>
    </g>
    <g id="xtick_2">
     <g id="line2d_2"/>
     <g id="text_2">
      <text style="font-size: 13px; font-family: 'Helvetica Neue', 'Helvetica', 'Arial', 'DejaVu Sans', sans-serif; text-anchor: middle; fill: #8a8f98" x="174.785477" y="300.238766" transform="rotate(-0 174.785477 300.238766)">2012</text>
     </g>
    </g>
    <g id="xtick_3">
     <g id="line2d_3"/>
     <g id="text_3">
      <text style="font-size: 13px; font-family: 'Helvetica Neue', 'Helvetica', 'Arial', 'DejaVu Sans', sans-serif; text-anchor: middle; fill: #8a8f98" x="275.366789" y="300.238766" transform="rotate(-0 275.366789 300.238766)">2016</text>
     </g>
    </g>
    <g id="xtick_4">
     <g id="line2d_4"/>
     <g id="text_4">
      <text style="font-size: 13px; font-family: 'Helvetica Neue', 'Helvetica', 'Arial', 'DejaVu Sans', sans-serif; text-anchor: middle; fill: #8a8f98" x="375.948101" y="300.238766" transform="rotate(-0 375.948101 300.238766)">2020</text>
     </g>
    </g>
    <g id="xtick_5">
     <g id="line2d_5"/>
     <g id="text_5">
      <text style="font-size: 13px; font-family: 'Helvetica Neue', 'Helvetica', 'Arial', 'DejaVu Sans', sans-serif; text-anchor: middle; fill: #8a8f98" x="476.529412" y="300.238766" transform="rotate(-0 476.529412 300.238766)">2024</text>
     </g>
    </g>
   </g>
   <g id="matplotlib.axis_2">
    <g id="ytick_1">
     <g id="line2d_6">
      <path d="M 35.51375 257.620259 
L 565.61375 257.620259 
" clip-path="url(#p944db47fde)" style="fill: none; stroke: #e7e3da; stroke-width: 0.9; stroke-linecap: square"/>
     </g>
     <g id="line2d_7"/>
     <g id="text_6">
      <text style="font-size: 13px; font-family: 'Helvetica Neue', 'Helvetica', 'Arial', 'DejaVu Sans', sans-serif; text-anchor: end; fill: #8a8f98" x="32.01375" y="262.558735" transform="rotate(-0 32.01375 262.558735)">100</text>
     </g>
    </g>
    <g id="ytick_2">
     <g id="line2d_8">
      <path d="M 35.51375 224.538126 
L 565.61375 224.538126 
" clip-path="url(#p944db47fde)" style="fill: none; stroke: #e7e3da; stroke-width: 0.9; stroke-linecap: square"/>
     </g>
     <g id="line2d_9"/>
     <g id="text_7">
      <text style="font-size: 13px; font-family: 'Helvetica Neue', 'Helvetica', 'Arial', 'DejaVu Sans', sans-serif; text-anchor: end; fill: #8a8f98" x="32.01375" y="229.476603" transform="rotate(-0 32.01375 229.476603)">200</text>
     </g>
    </g>
    <g id="ytick_3">
     <g id="line2d_10">
      <path d="M 35.51375 191.455994 
L 565.61375 191.455994 
" clip-path="url(#p944db47fde)" style="fill: none; stroke: #e7e3da; stroke-width: 0.9; stroke-linecap: square"/>
     </g>
     <g id="line2d_11"/>
     <g id="text_8">
      <text style="font-size: 13px; font-family: 'Helvetica Neue', 'Helvetica', 'Arial', 'DejaVu Sans', sans-serif; text-anchor: end; fill: #8a8f98" x="32.01375" y="196.39447" transform="rotate(-0 32.01375 196.39447)">300</text>
     </g>
    </g>
    <g id="ytick_4">
     <g id="line2d_12">
      <path d="M 35.51375 158.373861 
L 565.61375 158.373861 
" clip-path="url(#p944db47fde)" style="fill: none; stroke: #e7e3da; stroke-width: 0.9; stroke-linecap: square"/>
     </g>
     <g id="line2d_13"/>
     <g id="text_9">
      <text style="font-size: 13px; font-family: 'Helvetica Neue', 'Helvetica', 'Arial', 'DejaVu Sans', sans-serif; text-anchor: end; fill: #8a8f98" x="32.01375" y="163.312338" transform="rotate(-0 32.01375 163.312338)">400</text>
     </g>
    </g>
    <g id="ytick_5">
     <g id="line2d_14">
      <path d="M 35.51375 125.291729 
L 565.61375 125.291729 
" clip-path="url(#p944db47fde)" style="fill: none; stroke: #e7e3da; stroke-width: 0.9; stroke-linecap: square"/>
     </g>
     <g id="line2d_15"/>
     <g id="text_10">
      <text style="font-size: 13px; font-family: 'Helvetica Neue', 'Helvetica', 'Arial', 'DejaVu Sans', sans-serif; text-anchor: end; fill: #8a8f98" x="32.01375" y="130.230205" transform="rotate(-0 32.01375 130.230205)">500</text>
     </g>
    </g>
    <g id="ytick_6">
     <g id="line2d_16">
      <path d="M 35.51375 92.209596 
L 565.61375 92.209596 
" clip-path="url(#p944db47fde)" style="fill: none; stroke: #e7e3da; stroke-width: 0.9; stroke-linecap: square"/>
     </g>
     <g id="line2d_17"/>
     <g id="text_11">
      <text style="font-size: 13px; font-family: 'Helvetica Neue', 'Helvetica', 'Arial', 'DejaVu Sans', sans-serif; text-anchor: end; fill: #8a8f98" x="32.01375" y="97.148073" transform="rotate(-0 32.01375 97.148073)">600</text>
     </g>
    </g>
    <g id="ytick_7">
     <g id="line2d_18">
      <path d="M 35.51375 59.127464 
L 565.61375 59.127464 
" clip-path="url(#p944db47fde)" style="fill: none; stroke: #e7e3da; stroke-width: 0.9; stroke-linecap: square"/>
     </g>
     <g id="line2d_19"/>
     <g id="text_12">
      <text style="font-size: 13px; font-family: 'Helvetica Neue', 'Helvetica', 'Arial', 'DejaVu Sans', sans-serif; text-anchor: end; fill: #8a8f98" x="32.01375" y="64.06594" transform="rotate(-0 32.01375 64.06594)">700</text>
     </g>
    </g>
   </g>
   <g id="line2d_20">
    <path d="M 59.609205 257.490937 
L 60.091114 258.146187 
L 60.573023 257.566423 
L 61.054932 258.111955 
L 61.536841 258.137922 
L 62.500659 257.181118 
L 62.982568 257.473338 
L 63.464477 259.289571 
L 63.946386 259.573163 
L 64.428295 259.376166 
L 64.910205 259.376166 
L 65.392114 258.592526 
L 65.874023 258.752726 
L 66.355932 259.08176 
L 66.837841 258.469122 
L 67.31975 257.648479 
L 67.801659 257.515808 
L 68.283568 256.804565 
L 68.765477 256.700165 
L 69.247386 258.14873 
L 69.729295 257.289604 
L 70.211205 257.815963 
L 70.693114 259.134024 
L 71.175023 258.99265 
L 71.656932 259.353726 
L 72.138841 258.368414 
L 72.62075 257.879032 
L 73.102659 258.692492 
L 73.584568 258.312688 
L 74.066477 258.494176 
L 74.548386 259.803952 
L 75.030295 260.057582 
L 75.512205 261.826523 
L 75.994114 261.612238 
L 76.476023 260.182217 
L 76.957932 261.605676 
L 77.439841 261.153065 
L 77.92175 261.048117 
L 78.403659 261.441681 
L 78.885568 262.340368 
L 79.367477 262.362231 
L 79.849386 261.679171 
L 80.331295 261.804425 
L 80.813205 260.622216 
L 81.295114 261.393501 
L 81.777023 260.272831 
L 82.258932 260.026722 
L 82.740841 259.607028 
L 83.22275 260.180545 
L 83.704659 259.354316 
L 84.186568 260.457425 
L 84.668477 259.861917 
L 85.150386 260.75407 
L 85.632295 260.784833 
L 86.596114 262.538813 
L 87.078023 262.808242 
L 87.559932 263.353722 
L 88.041841 262.881112 
L 88.52375 262.991538 
L 89.005659 262.841376 
L 89.487568 262.132477 
L 89.969477 261.955803 
L 90.933295 262.260563 
L 91.415205 263.225625 
L 91.897114 262.856825 
L 92.379023 263.133212 
L 92.860932 263.859543 
L 93.342841 266.193989 
L 93.82475 271.045037 
L 94.306659 269.99886 
L 94.788568 271.369323 
L 95.270477 269.194785 
L 95.752386 269.854485 
L 96.716205 273.039642 
L 97.198114 270.691856 
L 97.680023 271.171641 
L 98.161932 270.936194 
L 98.643841 270.954872 
L 99.12575 271.185505 
L 99.607659 269.886771 
L 100.571477 271.655747 
L 101.053386 272.092389 
L 101.535295 272.155092 
L 102.017205 271.225812 
L 102.499114 272.170762 
L 102.981023 273.366495 
L 103.462932 274.147975 
L 103.944841 275.269812 
L 104.42675 273.664302 
L 104.908659 273.402532 
L 105.390568 272.29747 
L 105.872477 271.699829 
L 106.836295 271.063854 
L 107.318205 271.158575 
L 107.800114 270.881182 
L 108.282023 269.733274 
L 108.763932 270.696261 
L 109.245841 270.62634 
L 109.72775 269.834764 
L 110.209659 269.379198 
L 110.691568 269.259675 
L 111.173477 269.828019 
L 111.655386 269.873376 
L 112.619205 270.753334 
L 113.101114 269.353999 
L 113.583023 268.462695 
L 114.064932 268.292599 
L 114.546841 267.750552 
L 115.02875 267.843525 
L 115.510659 267.349121 
L 115.992568 267.256132 
L 116.474477 267.555513 
L 117.438295 266.383349 
L 118.402114 267.347276 
L 118.884023 266.260295 
L 119.365932 265.888847 
L 119.847841 266.073434 
L 120.32975 267.103443 
L 120.811659 266.289925 
L 121.293568 265.722513 
L 122.257386 265.733903 
L 122.739295 265.405759 
L 123.703114 265.452847 
L 124.185023 264.932783 
L 124.666932 265.171044 
L 125.148841 264.453955 
L 125.63075 264.667017 
L 126.112659 265.681952 
L 126.594568 266.098921 
L 127.076477 266.266159 
L 127.558386 265.949998 
L 128.040295 265.239787 
L 128.522205 265.331425 
L 129.004114 264.52727 
L 129.967932 264.023796 
L 130.449841 263.883473 
L 131.413659 263.200241 
L 131.895568 263.243931 
L 132.377477 262.680321 
L 132.859386 263.370464 
L 133.341295 265.107327 
L 133.823205 264.502299 
L 134.305114 265.601915 
L 134.787023 265.5421 
L 135.268932 266.128729 
L 136.23275 264.876912 
L 136.714659 265.769116 
L 137.196568 267.079696 
L 137.678477 265.748318 
L 138.160386 266.048795 
L 138.642295 265.182017 
L 139.124205 265.21438 
L 139.606114 264.724352 
L 140.088023 265.667415 
L 141.051841 266.002566 
L 141.53375 265.071073 
L 142.015659 264.934697 
L 142.497568 264.562041 
L 142.979477 264.020599 
L 143.461386 264.069394 
L 143.943295 263.62091 
L 144.907114 263.200307 
L 145.389023 263.167768 
L 145.870932 262.184807 
L 146.352841 262.770408 
L 146.83475 262.749483 
L 147.316659 263.095734 
L 147.798568 262.145298 
L 148.280477 261.775821 
L 148.762386 261.665732 
L 149.244295 261.362056 
L 149.726205 261.327011 
L 150.208114 261.002305 
L 150.690023 260.49773 
L 151.653841 260.86681 
L 152.13575 260.065569 
L 153.099568 259.276001 
L 153.581477 259.789921 
L 154.063386 259.757215 
L 154.545295 260.13798 
L 155.027205 260.727831 
L 155.509114 259.897288 
L 155.991023 259.46325 
L 156.472932 259.531274 
L 156.954841 259.723667 
L 157.43675 259.315446 
L 157.918659 258.693712 
L 158.400568 259.21689 
L 159.846295 259.378779 
L 160.810114 260.765361 
L 161.773932 260.803214 
L 162.255841 259.126827 
L 162.73775 259.013647 
L 163.219659 259.652605 
L 163.701568 258.971203 
L 164.183477 260.209053 
L 164.665386 262.389997 
L 165.147295 262.852133 
L 165.629205 264.144199 
L 166.111114 262.887499 
L 166.593023 262.915787 
L 167.074932 263.370838 
L 167.556841 261.902257 
L 168.03875 263.793508 
L 168.520659 263.885934 
L 169.002568 263.27921 
L 169.484477 261.653391 
L 169.966386 261.321606 
L 170.448295 260.224298 
L 170.930205 260.963726 
L 171.412114 260.684076 
L 172.375932 263.12991 
L 172.857841 261.110673 
L 173.33975 260.828638 
L 173.821659 261.702901 
L 174.303568 260.558084 
L 174.785477 260.770357 
L 175.267386 260.243262 
L 175.749295 259.973762 
L 176.231205 259.232016 
L 176.713114 259.263025 
L 177.195023 258.614291 
L 177.676932 258.657229 
L 178.158841 258.168292 
L 179.604568 257.89163 
L 180.086477 257.093881 
L 180.568386 257.249589 
L 181.050295 256.971716 
L 181.532205 257.216045 
L 182.014114 257.850844 
L 182.496023 257.656807 
L 182.977932 257.072331 
L 183.459841 257.884381 
L 183.94175 258.21735 
L 184.423659 259.623495 
L 184.905568 259.058154 
L 185.387477 260.001983 
L 185.869386 258.818617 
L 186.351295 258.402988 
L 186.833205 258.566732 
L 187.315114 257.93105 
L 187.797023 258.077938 
L 188.760841 257.841954 
L 189.24275 257.30981 
L 189.724659 257.148483 
L 190.688477 256.467052 
L 191.652295 256.71266 
L 192.616114 255.248641 
L 193.098023 255.391049 
L 193.579932 255.850981 
L 194.061841 255.325685 
L 194.54375 256.112424 
L 195.025659 255.991393 
L 195.507568 256.485213 
L 195.989477 256.434394 
L 196.471386 257.257435 
L 196.953295 257.690747 
L 197.435205 256.485213 
L 197.917114 256.291565 
L 198.399023 256.228628 
L 198.880932 256.303669 
L 199.362841 255.891492 
L 199.84475 256.564346 
L 200.326659 255.018711 
L 200.808568 254.848051 
L 201.290477 254.540867 
L 201.772386 254.072782 
L 202.736205 253.694922 
L 203.218114 253.619354 
L 204.181932 253.619354 
L 204.663841 252.807526 
L 205.14575 252.543481 
L 205.627659 252.599814 
L 206.109568 252.337778 
L 206.591477 252.707551 
L 207.073386 251.816197 
L 207.555295 252.629181 
L 209.482932 249.822903 
L 210.44675 250.677535 
L 210.928659 250.346955 
L 211.410568 250.743653 
L 211.892477 251.54398 
L 212.374386 251.21163 
L 212.856295 250.571587 
L 213.338205 249.466284 
L 213.820114 249.057646 
L 214.302023 249.072411 
L 214.783932 248.619465 
L 215.265841 249.023189 
L 215.74775 249.879854 
L 216.229659 249.685384 
L 216.711568 250.416511 
L 217.193477 249.828154 
L 217.675386 249.018242 
L 218.157295 248.471238 
L 218.639205 248.918965 
L 219.121114 248.923921 
L 219.603023 248.585031 
L 220.084932 247.563393 
L 220.566841 247.177465 
L 221.04875 247.113155 
L 221.530659 246.846014 
L 222.012568 246.163255 
L 222.494477 245.975254 
L 223.458295 245.943106 
L 223.940205 246.643149 
L 224.422114 245.545879 
L 224.904023 244.976339 
L 225.385932 245.215093 
L 225.867841 244.904216 
L 226.34975 245.028572 
L 226.831659 246.209971 
L 227.313568 246.386557 
L 227.795477 246.013487 
L 228.277386 244.934054 
L 228.759295 244.966403 
L 229.723114 243.879518 
L 230.205023 244.774884 
L 230.686932 244.187459 
L 231.168841 244.364832 
L 231.65075 244.137507 
L 232.132659 245.359087 
L 232.614568 244.140013 
L 233.096477 244.164998 
L 233.578386 243.722817 
L 234.542205 243.725309 
L 235.987932 241.894199 
L 236.469841 242.20645 
L 236.95175 241.519771 
L 237.433659 241.549881 
L 237.915568 240.952483 
L 238.397477 241.351574 
L 238.879386 241.075477 
L 239.361295 241.072947 
L 239.843205 242.383218 
L 240.325114 242.197475 
L 240.807023 241.574984 
L 241.288932 240.703994 
L 241.770841 240.322441 
L 242.25275 240.222035 
L 242.734659 240.71905 
L 243.216568 240.089495 
L 243.698477 240.79559 
L 244.180386 241.143581 
L 244.662295 242.651648 
L 245.144205 243.173657 
L 245.626114 241.16629 
L 246.108023 239.847391 
L 246.589932 239.423717 
L 247.071841 239.196757 
L 247.55375 238.581418 
L 248.517568 238.248529 
L 248.999477 240.041566 
L 249.481386 238.334321 
L 249.963295 237.847471 
L 250.445205 238.610723 
L 250.927114 238.90996 
L 251.409023 239.574305 
L 251.890932 238.727374 
L 252.372841 240.127081 
L 252.85475 238.580285 
L 253.336659 237.507696 
L 253.818568 237.137469 
L 254.300477 237.28454 
L 254.782386 238.085818 
L 255.264295 238.509286 
L 255.746205 237.109762 
L 256.228114 238.299245 
L 256.710023 238.120954 
L 257.191932 237.204008 
L 257.673841 237.736333 
L 258.15575 236.793937 
L 258.637659 237.030809 
L 260.083386 236.452607 
L 261.047205 237.272792 
L 261.529114 237.211653 
L 262.011023 236.746711 
L 262.492932 237.000099 
L 262.974841 237.642503 
L 263.45675 237.599001 
L 263.938659 236.319285 
L 264.420568 237.465913 
L 264.902477 236.826029 
L 265.384386 237.478696 
L 265.866295 237.102454 
L 266.348205 240.068865 
L 266.830114 239.697739 
L 267.312023 241.410001 
L 267.793932 240.347834 
L 268.275841 240.417943 
L 268.75775 241.086855 
L 269.239659 240.533709 
L 269.721568 238.905168 
L 270.203477 238.406041 
L 270.685386 237.315193 
L 271.167295 237.207142 
L 271.649205 236.664302 
L 272.131114 238.593864 
L 272.613023 236.852101 
L 273.576841 236.772348 
L 274.05875 238.763644 
L 274.540659 238.93592 
L 275.022568 237.471084 
L 275.504477 237.939516 
L 275.986386 241.03226 
L 276.468295 242.095963 
L 277.432114 240.566423 
L 277.914023 242.059726 
L 278.395932 242.401351 
L 278.877841 241.011551 
L 279.35975 240.211823 
L 279.841659 238.829823 
L 280.805477 237.534719 
L 281.287386 237.862512 
L 281.769295 236.873967 
L 282.251205 237.503504 
L 282.733114 236.65023 
L 283.215023 236.340683 
L 283.696932 237.027451 
L 284.66075 237.435873 
L 285.142659 237.245965 
L 285.624568 236.01029 
L 286.588386 236.054528 
L 287.070295 236.698618 
L 287.552205 237.556332 
L 288.034114 235.809553 
L 288.997932 234.264134 
L 289.479841 233.89542 
L 289.96175 233.926795 
L 290.443659 233.649615 
L 291.407477 233.555476 
L 291.889386 233.882355 
L 292.371295 233.599939 
L 292.853205 234.930938 
L 293.335114 234.625559 
L 293.817023 233.936983 
L 294.298932 233.855505 
L 294.780841 234.186657 
L 295.26275 234.691265 
L 295.744659 234.465227 
L 296.226568 234.843689 
L 296.708477 235.892327 
L 297.190386 233.823981 
L 297.672295 233.277318 
L 298.154205 232.483618 
L 298.636114 232.967194 
L 299.118023 231.172176 
L 299.599932 231.209903 
L 300.081841 231.032783 
L 300.56375 231.609092 
L 301.045659 230.636231 
L 302.009477 230.76048 
L 302.491386 230.170956 
L 302.973295 230.073145 
L 303.455205 229.499473 
L 303.937114 228.553044 
L 304.900932 227.67271 
L 305.382841 227.8657 
L 305.86475 227.767575 
L 306.346659 228.60925 
L 306.828568 228.110095 
L 307.310477 228.253455 
L 307.792386 228.967696 
L 308.274295 228.415422 
L 308.756205 227.488779 
L 309.238114 227.058651 
L 310.201932 227.427706 
L 310.683841 226.524954 
L 311.16575 225.8718 
L 311.647659 226.073605 
L 312.611477 225.833117 
L 313.093386 226.18798 
L 313.575295 226.105271 
L 314.057205 225.184788 
L 314.539114 224.832586 
L 315.021023 224.824581 
L 315.502932 224.691188 
L 315.984841 225.568983 
L 316.46675 225.945187 
L 316.948659 225.451583 
L 317.430568 224.576453 
L 317.912477 224.912625 
L 318.394386 223.886303 
L 318.876295 223.819271 
L 319.358205 223.339312 
L 319.840114 222.497388 
L 320.322023 222.341858 
L 320.803932 221.762701 
L 321.76775 221.403383 
L 322.731568 221.561597 
L 323.213477 220.891257 
L 323.695386 219.791917 
L 324.177295 219.510362 
L 324.659205 218.876971 
L 325.141114 218.607487 
L 325.623023 218.782663 
L 326.104932 217.014692 
L 326.586841 215.801947 
L 327.06875 215.130885 
L 327.550659 213.468047 
L 328.032568 216.467603 
L 328.514477 220.227179 
L 328.996386 217.098254 
L 329.478295 216.667057 
L 329.960205 218.184357 
L 330.442114 215.545902 
L 330.924023 216.50852 
L 331.405932 220.87846 
L 331.887841 219.498478 
L 332.36975 220.426577 
L 332.851659 218.957296 
L 333.333568 218.562266 
L 333.815477 218.575771 
L 334.297386 218.721914 
L 334.779295 216.873838 
L 335.261205 217.285108 
L 335.743114 217.063235 
L 336.225023 216.67088 
L 336.706932 215.428928 
L 337.188841 215.378994 
L 337.67075 216.028612 
L 338.152659 216.968998 
L 339.116477 214.710406 
L 339.598386 214.685931 
L 340.562205 213.620481 
L 341.044114 213.740078 
L 342.007932 212.557752 
L 342.489841 211.796678 
L 342.97175 212.533258 
L 343.935568 210.980836 
L 344.417477 211.327544 
L 344.899386 212.11936 
L 345.381295 215.360187 
L 345.863205 215.278288 
L 346.345114 218.259754 
L 347.308932 214.866011 
L 347.790841 215.966335 
L 348.27275 218.827669 
L 348.754659 215.442119 
L 349.236568 218.740285 
L 349.718477 219.586677 
L 350.200386 224.600703 
L 350.682295 222.664592 
L 351.164205 221.390342 
L 352.128023 217.526401 
L 352.609932 217.713152 
L 353.091841 216.537763 
L 353.57375 216.425164 
L 354.055659 214.530264 
L 355.019477 213.692688 
L 355.501386 215.329416 
L 355.983295 213.107994 
L 356.465205 213.676181 
L 356.947114 212.785223 
L 357.429023 211.105446 
L 357.910932 210.666862 
L 358.392841 210.70546 
L 358.87475 209.770396 
L 359.356659 209.599365 
L 359.838568 211.235068 
L 360.320477 211.858463 
L 360.802386 212.702523 
L 361.284295 214.773989 
L 361.766205 211.359181 
L 362.248114 210.915079 
L 362.730023 209.213226 
L 363.211932 209.49042 
L 363.693841 207.97705 
L 364.17575 207.37004 
L 364.657659 208.334597 
L 365.139568 206.993082 
L 365.621477 209.59574 
L 366.103386 209.872924 
L 366.585295 210.640678 
L 367.067205 211.749386 
L 367.549114 209.642826 
L 368.031023 208.09068 
L 368.512932 207.248063 
L 368.994841 207.645126 
L 369.47675 208.447084 
L 369.958659 208.739454 
L 370.922477 207.731466 
L 372.850114 203.883226 
L 373.332023 204.114337 
L 373.813932 203.18152 
L 374.295841 203.025592 
L 374.77775 202.343391 
L 375.259659 200.954772 
L 375.741568 200.358742 
L 376.223477 200.484654 
L 376.705386 199.561243 
L 377.187295 197.815124 
L 377.669205 198.704996 
L 378.151114 200.674946 
L 378.633023 197.745179 
L 379.114932 196.234161 
L 379.596841 197.387024 
L 380.07875 207.802038 
L 380.560659 207.466236 
L 381.042568 215.340462 
L 381.524477 226.30242 
L 382.006386 219.372655 
L 382.488295 220.844743 
L 382.970205 212.39788 
L 383.452114 210.022257 
L 383.934023 211.055297 
L 384.415932 211.105943 
L 384.897841 208.389758 
L 385.37975 210.123624 
L 386.343568 205.045926 
L 386.825477 200.818255 
L 387.307386 205.076851 
L 387.789295 203.44765 
L 388.271205 205.876148 
L 388.753114 202.432775 
L 389.716932 199.749868 
L 390.198841 199.987349 
L 390.68075 198.392886 
L 391.162659 196.117075 
L 392.126477 194.728999 
L 392.608386 191.590944 
L 393.572205 196.261255 
L 394.536023 197.396092 
L 395.017932 195.94567 
L 395.499841 192.2529 
L 395.98175 192.128046 
L 396.463659 192.556643 
L 396.945568 198.017689 
L 397.427477 191.313404 
L 397.909386 189.05974 
L 398.391295 189.845986 
L 398.873205 187.478749 
L 399.355114 185.724638 
L 399.837023 186.732252 
L 400.318932 185.46813 
L 400.800841 185.519441 
L 401.28275 184.128405 
L 401.764659 182.024748 
L 402.246568 183.609599 
L 402.728477 181.562949 
L 403.210386 185.214433 
L 403.692295 180.1862 
L 404.174205 178.780886 
L 404.656114 179.524853 
L 405.138023 182.281275 
L 405.619932 181.349189 
L 406.101841 178.376122 
L 406.58375 179.318035 
L 407.065659 177.459139 
L 407.547568 176.135059 
L 408.029477 173.023563 
L 408.511386 171.373433 
L 408.993295 171.522148 
L 409.475205 171.362004 
L 409.957114 169.983559 
L 410.439023 171.567913 
L 410.920932 172.036907 
L 411.402841 170.578418 
L 411.88475 169.846292 
L 412.366659 169.357269 
L 412.848568 171.65444 
L 413.330477 168.300358 
L 413.812386 166.260369 
L 414.294295 165.743934 
L 414.776205 166.943245 
L 415.258114 164.475755 
L 415.740023 164.886028 
L 416.703841 162.759971 
L 417.18575 163.494486 
L 417.667659 161.517621 
L 418.149568 160.705649 
L 418.631477 162.897697 
L 419.113386 163.651107 
L 419.595295 162.928631 
L 420.077205 165.712034 
L 420.559114 164.670066 
L 421.522932 160.27767 
L 422.004841 158.513217 
L 422.48675 155.842095 
L 422.968659 156.204775 
L 423.450568 155.738489 
L 423.932477 158.593804 
L 424.414386 160.191331 
L 424.896295 155.205987 
L 425.378205 157.869736 
L 425.860114 154.770363 
L 426.342023 153.511019 
L 426.823932 156.073102 
L 427.305841 156.468816 
L 427.78775 164.192603 
L 428.269659 163.045877 
L 428.751568 161.096163 
L 429.233477 163.476264 
L 429.715386 165.275783 
L 430.197295 164.259044 
L 430.679205 165.870829 
L 431.161114 169.365888 
L 431.643023 161.90466 
L 432.124932 159.537422 
L 432.606841 159.470775 
L 433.08875 161.020925 
L 434.052568 167.259177 
L 434.534477 171.327191 
L 435.016386 171.518419 
L 435.498295 174.305748 
L 435.980205 177.808788 
L 436.462114 170.382636 
L 436.944023 171.750232 
L 437.907841 184.238137 
L 438.38975 177.190199 
L 438.871659 179.762615 
L 439.353568 177.600499 
L 439.835477 178.630626 
L 440.317386 175.732291 
L 440.799295 170.814446 
L 441.281205 170.383741 
L 441.763114 166.417478 
L 442.245023 167.860809 
L 443.208841 176.561632 
L 443.69075 172.382912 
L 444.654568 183.190117 
L 445.136477 186.337044 
L 445.618386 184.697828 
L 446.100295 186.20553 
L 447.064114 177.033624 
L 447.546023 180.735687 
L 448.027932 174.260704 
L 448.509841 174.985363 
L 448.99175 173.14451 
L 449.473659 171.806302 
L 449.955568 175.788885 
L 450.437477 178.19948 
L 451.401295 178.446048 
L 451.883205 176.787571 
L 452.365114 173.728942 
L 452.847023 174.497998 
L 453.328932 171.621379 
L 453.810841 169.663495 
L 454.29275 170.928629 
L 454.774659 171.157575 
L 455.256568 174.351222 
L 455.738477 172.058726 
L 456.220386 177.42455 
L 457.184205 174.092812 
L 457.666114 170.073711 
L 458.148023 170.132658 
L 458.629932 169.169141 
L 459.111841 169.245737 
L 459.59375 168.146697 
L 460.075659 169.119067 
L 460.557568 169.42548 
L 461.039477 167.354061 
L 461.521386 166.94154 
L 462.003295 164.613771 
L 462.485205 164.03037 
L 462.967114 160.732461 
L 463.449023 162.580893 
L 463.930932 159.602702 
L 464.412841 161.001607 
L 464.89475 157.828205 
L 465.376659 156.970534 
L 465.858568 155.568677 
L 466.340477 158.558701 
L 466.822386 158.901773 
L 467.304295 161.607877 
L 467.786205 160.58162 
L 468.268114 157.263316 
L 468.750023 158.940249 
L 469.231932 159.113547 
L 469.713841 162.957018 
L 470.19575 163.829585 
L 471.159568 162.636476 
L 472.123386 168.815698 
L 472.605295 161.68972 
L 473.087205 159.932705 
L 473.569114 156.911344 
L 474.532932 154.445006 
L 475.014841 154.118525 
L 475.49675 150.844085 
L 475.978659 149.556738 
L 476.460568 149.062066 
L 476.942477 151.264231 
L 477.424386 148.653808 
L 478.870114 143.388207 
L 479.352023 141.346953 
L 479.833932 141.850554 
L 480.315841 139.365274 
L 480.79775 137.875297 
L 481.279659 138.212037 
L 481.761568 138.303201 
L 482.243477 134.901462 
L 482.725386 134.345482 
L 483.207295 135.732471 
L 483.689205 137.998305 
L 484.171114 142.688384 
L 484.653023 138.772495 
L 485.134932 137.866763 
L 486.09875 132.438357 
L 486.580659 132.441336 
L 487.062568 133.060141 
L 487.544477 131.075267 
L 488.026386 128.453713 
L 488.508295 127.411529 
L 488.990205 127.498506 
L 489.472114 124.37368 
L 489.954023 122.769239 
L 490.435932 126.068038 
L 490.917841 127.432477 
L 491.39975 130.893144 
L 491.881659 130.8662 
L 492.363568 124.47261 
L 492.845477 122.12752 
L 493.327386 121.662695 
L 493.809295 128.656015 
L 494.291205 122.163494 
L 494.773114 119.769519 
L 495.255023 118.800934 
L 495.736932 118.346714 
L 496.218841 116.361409 
L 496.70075 114.854345 
L 497.182659 116.523839 
L 497.664568 118.930275 
L 498.146477 110.763388 
L 498.628386 114.505408 
L 499.110295 111.569561 
L 499.592205 109.45188 
L 500.074114 107.869624 
L 500.556023 108.952542 
L 501.037932 112.282575 
L 501.519841 111.117552 
L 502.00175 112.041131 
L 502.483659 115.499962 
L 502.965568 110.341864 
L 503.447477 107.206001 
L 503.929386 109.06219 
L 504.411295 109.37905 
L 504.893205 106.68386 
L 505.375114 109.629618 
L 505.857023 111.368046 
L 506.338932 116.879278 
L 506.820841 120.836098 
L 507.30275 119.970922 
L 507.784659 122.48961 
L 508.266568 137.740944 
L 508.748477 129.064835 
L 509.230386 131.344366 
L 509.712295 124.009303 
L 510.194205 119.129354 
L 510.676114 119.861929 
L 511.158023 110.822521 
L 511.639932 115.390688 
L 512.60375 109.327055 
L 513.085659 109.974902 
L 513.567568 110.266448 
L 514.049477 104.002761 
L 514.531386 100.835982 
L 515.013295 101.358236 
L 515.495205 100.155889 
L 515.977114 97.265424 
L 516.459023 101.935126 
L 516.940932 97.241141 
L 517.422841 95.34047 
L 517.90475 94.772686 
L 518.386659 94.851625 
L 518.868568 94.186727 
L 519.832386 88.630414 
L 520.314295 89.202789 
L 520.796205 86.952825 
L 521.278114 91.882089 
L 522.241932 84.504944 
L 522.723841 83.040487 
L 523.20575 86.416987 
L 523.687659 86.124673 
L 524.169568 90.052244 
L 524.651477 82.635545 
L 525.133386 81.935291 
L 525.615295 83.131829 
L 526.097205 82.875733 
L 526.579114 79.907622 
L 527.061023 82.087922 
L 527.542932 78.759463 
L 528.50675 80.237429 
L 528.988659 79.400733 
L 529.470568 79.812963 
L 529.952477 82.521531 
L 530.434386 80.176328 
L 530.916295 81.226793 
L 531.398205 85.382767 
L 532.362023 92.112572 
L 532.843932 96.546302 
L 533.80775 82.65417 
L 534.289659 73.260053 
L 534.771568 72.096511 
L 535.253477 70.041936 
L 535.735386 64.845783 
L 536.217295 64.371178 
L 536.699205 62.390088 
L 537.181114 59.070923 
L 537.663023 64.867218 
L 538.144932 63.581193 
L 538.626841 61.464224 
L 539.10875 66.913212 
L 539.590659 62.065903 
L 540.072568 58.943868 
L 540.554477 62.523327 
L 541.036386 63.861778 
L 541.518295 61.375186 
L 541.518295 61.375186 
" clip-path="url(#p944db47fde)" style="fill: none; stroke: #b6892b; stroke-width: 2.1; stroke-linecap: square"/>
   </g>
   <g id="line2d_21">
    <path d="M 59.609205 257.727594 
L 60.091114 258.035154 
L 61.536841 257.817853 
L 62.01875 257.961904 
L 63.946386 257.414057 
L 64.428295 257.60291 
L 64.910205 257.353343 
L 65.392114 257.299372 
L 66.355932 256.76572 
L 67.31975 256.931679 
L 67.801659 256.826659 
L 68.283568 257.076974 
L 68.765477 256.879736 
L 69.247386 256.444408 
L 70.211205 256.363313 
L 71.656932 256.12424 
L 72.138841 255.868115 
L 73.102659 256.28402 
L 73.584568 256.160567 
L 75.512205 255.155253 
L 75.994114 255.234399 
L 76.476023 255.102003 
L 76.957932 255.184958 
L 77.439841 255.461503 
L 77.92175 255.58595 
L 78.403659 255.122741 
L 78.885568 255.451305 
L 79.849386 254.819877 
L 80.331295 255.021111 
L 81.295114 254.893706 
L 81.777023 255.168924 
L 82.258932 255.315234 
L 82.740841 255.080125 
L 83.22275 254.975306 
L 83.704659 255.087113 
L 84.186568 255.076643 
L 84.668477 255.412108 
L 85.150386 255.27388 
L 85.632295 255.898401 
L 86.596114 255.494925 
L 87.078023 255.630953 
L 87.559932 255.402013 
L 88.041841 255.842243 
L 88.52375 255.673223 
L 89.005659 255.380362 
L 89.487568 255.451064 
L 89.969477 255.263637 
L 90.933295 255.076249 
L 91.897114 254.77308 
L 92.379023 254.847596 
L 92.860932 255.660567 
L 93.342841 255.553475 
L 93.82475 259.195948 
L 94.306659 257.167993 
L 95.752386 255.953957 
L 96.716205 256.122168 
L 97.198114 255.467185 
L 98.643841 254.053778 
L 99.12575 253.446452 
L 99.607659 253.354145 
L 100.089568 253.729226 
L 100.571477 253.336082 
L 101.053386 253.942025 
L 101.535295 253.866283 
L 102.017205 254.160922 
L 102.499114 253.856856 
L 102.981023 254.150083 
L 103.462932 254.255028 
L 103.944841 254.132684 
L 104.42675 254.143532 
L 104.908659 253.903867 
L 105.390568 254.212546 
L 106.354386 254.107767 
L 106.836295 254.016653 
L 107.318205 253.736055 
L 107.800114 253.806129 
L 108.282023 253.711059 
L 108.763932 253.341805 
L 109.245841 253.520952 
L 109.72775 253.400285 
L 110.209659 254.006121 
L 111.655386 253.217698 
L 112.137295 253.169029 
L 112.619205 252.848916 
L 113.101114 253.11017 
L 113.583023 253.029225 
L 114.064932 252.767967 
L 114.546841 253.202099 
L 115.02875 252.633636 
L 115.510659 252.681588 
L 116.956386 252.10066 
L 117.438295 252.10066 
L 117.920205 251.896998 
L 118.402114 251.833262 
L 118.884023 252.004154 
L 119.847841 251.937278 
L 120.32975 251.762665 
L 120.811659 251.80592 
L 122.257386 251.32887 
L 123.221205 251.582233 
L 123.703114 251.533618 
L 124.185023 251.862701 
L 124.666932 252.003763 
L 126.112659 251.52749 
L 127.076477 251.427254 
L 127.558386 251.570181 
L 128.040295 251.577715 
L 128.522205 251.378344 
L 129.967932 251.173432 
L 130.449841 251.373444 
L 131.413659 251.41846 
L 131.895568 251.176188 
L 132.377477 251.244333 
L 132.859386 250.998277 
L 133.341295 251.062095 
L 134.305114 250.496377 
L 134.787023 250.568489 
L 137.678477 249.933526 
L 138.160386 249.669981 
L 138.642295 249.669981 
L 139.124205 249.509539 
L 140.088023 249.343355 
L 140.569932 249.224603 
L 141.051841 249.289691 
L 141.53375 249.218389 
L 142.015659 249.418074 
L 143.943295 248.808951 
L 144.425205 249.116961 
L 144.907114 248.932143 
L 145.389023 248.912922 
L 145.870932 248.779367 
L 146.352841 249.207766 
L 147.798568 249.477912 
L 148.280477 249.850354 
L 149.244295 249.842575 
L 149.726205 249.541689 
L 150.208114 249.63511 
L 150.690023 249.549478 
L 151.171932 249.596209 
L 151.653841 249.49888 
L 152.13575 249.999896 
L 152.617659 249.984288 
L 153.099568 249.832061 
L 153.581477 249.535338 
L 154.063386 249.592324 
L 154.545295 249.353546 
L 155.027205 249.240035 
L 155.509114 249.502283 
L 155.991023 249.49312 
L 156.472932 249.650155 
L 156.954841 249.300723 
L 157.43675 249.179023 
L 158.400568 248.700995 
L 159.364386 248.571088 
L 160.328205 248.317643 
L 161.773932 248.195206 
L 162.255841 248.560888 
L 163.219659 248.08957 
L 163.701568 248.105415 
L 165.147295 247.315705 
L 165.629205 247.001945 
L 166.111114 247.260107 
L 166.593023 246.940997 
L 167.074932 246.857439 
L 167.556841 246.984816 
L 168.03875 246.829574 
L 168.520659 246.877347 
L 169.002568 247.140941 
L 169.484477 247.256577 
L 169.966386 247.069161 
L 170.448295 247.029268 
L 170.930205 246.71912 
L 172.375932 246.867079 
L 173.33975 246.73068 
L 173.821659 246.465379 
L 174.303568 246.577931 
L 174.785477 246.373678 
L 175.267386 246.425936 
L 175.749295 246.253024 
L 176.231205 246.482235 
L 177.195023 246.138685 
L 178.158841 246.22737 
L 179.122659 246.051192 
L 179.604568 246.176436 
L 180.086477 246.544188 
L 181.050295 246.313849 
L 181.532205 246.304523 
L 182.014114 246.008901 
L 184.905568 245.688499 
L 185.387477 245.315706 
L 185.869386 245.600409 
L 186.351295 245.405183 
L 186.833205 245.54346 
L 187.797023 245.232771 
L 188.760841 244.890427 
L 190.206568 245.025315 
L 190.688477 245.286613 
L 191.652295 244.821181 
L 192.616114 245.140687 
L 193.579932 244.698844 
L 194.061841 244.855811 
L 194.54375 244.667276 
L 195.025659 244.818947 
L 198.399023 244.564706 
L 199.362841 244.787798 
L 199.84475 244.626396 
L 200.326659 244.829238 
L 201.290477 244.771265 
L 202.254295 245.094002 
L 202.736205 244.952971 
L 203.700023 244.940515 
L 204.181932 244.708603 
L 204.663841 245.05773 
L 206.591477 244.375362 
L 207.555295 244.358693 
L 208.037205 244.254567 
L 209.964841 244.842249 
L 210.44675 245.163607 
L 210.928659 245.291135 
L 211.410568 245.220074 
L 211.892477 246.127344 
L 212.374386 245.876515 
L 212.856295 246.367432 
L 213.820114 245.663736 
L 214.783932 245.858681 
L 215.265841 245.732746 
L 215.74775 246.286767 
L 216.711568 246.12728 
L 217.193477 246.435072 
L 217.675386 246.262664 
L 218.157295 245.808565 
L 218.639205 245.589923 
L 219.603023 245.602042 
L 220.084932 245.311425 
L 220.566841 245.206116 
L 221.530659 245.62801 
L 222.012568 245.400142 
L 222.494477 245.45079 
L 222.976386 245.366363 
L 223.458295 245.623024 
L 225.385932 245.572203 
L 225.867841 245.334977 
L 226.831659 245.131675 
L 227.313568 244.924119 
L 228.759295 244.951256 
L 229.241205 244.751803 
L 229.723114 245.006909 
L 230.205023 244.811304 
L 230.686932 244.955874 
L 232.132659 244.510965 
L 232.614568 244.613189 
L 233.096477 244.528002 
L 233.578386 244.31991 
L 234.060295 244.315633 
L 234.542205 244.097964 
L 235.024114 244.085163 
L 235.506023 243.897365 
L 235.987932 244.146656 
L 236.95175 244.120998 
L 237.433659 243.928605 
L 237.915568 244.17448 
L 238.397477 243.943159 
L 240.325114 243.762758 
L 240.807023 243.543884 
L 241.288932 243.685492 
L 241.770841 243.505265 
L 242.25275 243.683663 
L 242.734659 244.001791 
L 243.216568 243.980282 
L 244.180386 243.632224 
L 245.144205 243.106827 
L 246.108023 243.296308 
L 247.55375 243.291126 
L 248.035659 242.98484 
L 248.517568 243.291072 
L 248.999477 242.884481 
L 249.963295 243.079317 
L 250.927114 242.519486 
L 252.372841 241.933669 
L 252.85475 242.430896 
L 253.818568 242.652573 
L 254.300477 242.370026 
L 254.782386 242.942131 
L 255.264295 242.663487 
L 255.746205 242.236812 
L 256.228114 242.293392 
L 256.710023 242.096878 
L 257.191932 242.175395 
L 257.673841 241.992188 
L 258.15575 242.066365 
L 258.637659 242.482736 
L 259.601477 242.543921 
L 260.083386 242.723075 
L 260.565295 242.557018 
L 261.047205 243.176096 
L 261.529114 243.162975 
L 262.011023 242.887152 
L 262.492932 243.324978 
L 262.974841 243.129801 
L 263.45675 243.156142 
L 264.902477 242.664788 
L 265.866295 242.760184 
L 266.348205 242.456905 
L 266.830114 242.790938 
L 267.312023 242.574133 
L 267.793932 242.666667 
L 268.275841 242.56977 
L 268.75775 242.644639 
L 269.239659 242.254509 
L 269.721568 242.457478 
L 270.203477 242.26333 
L 270.685386 242.272142 
L 271.167295 242.40456 
L 271.649205 242.84003 
L 272.613023 242.676426 
L 273.094932 242.610146 
L 273.576841 242.681184 
L 274.05875 242.481545 
L 275.022568 242.684664 
L 275.504477 242.684664 
L 275.986386 242.395689 
L 276.468295 242.27569 
L 276.950205 242.315693 
L 277.432114 242.088966 
L 279.35975 241.715628 
L 279.841659 241.876025 
L 280.323568 241.858159 
L 280.805477 241.523349 
L 281.287386 241.550145 
L 282.251205 241.10706 
L 282.733114 241.075769 
L 283.215023 241.268116 
L 284.66075 240.871826 
L 285.142659 241.167584 
L 285.624568 241.127227 
L 286.106477 240.728598 
L 287.552205 240.468184 
L 288.034114 240.027046 
L 288.516023 239.757146 
L 288.997932 240.202492 
L 289.96175 239.860621 
L 290.443659 240.150388 
L 290.925568 239.943087 
L 291.889386 240.073772 
L 292.371295 239.993599 
L 292.853205 240.255478 
L 293.335114 240.223888 
L 294.298932 239.943956 
L 294.780841 240.232054 
L 295.26275 240.327067 
L 295.744659 240.118975 
L 296.226568 240.422021 
L 296.708477 240.290754 
L 297.190386 241.192556 
L 297.672295 241.591339 
L 298.154205 241.682008 
L 299.118023 241.739248 
L 299.599932 242.01624 
L 301.045659 241.420961 
L 301.527568 241.361797 
L 302.009477 241.51652 
L 302.973295 241.449226 
L 303.455205 241.244018 
L 303.937114 241.289607 
L 304.419023 240.997802 
L 305.382841 241.673833 
L 306.346659 241.189458 
L 307.310477 241.05133 
L 307.792386 240.671285 
L 308.756205 240.680452 
L 309.238114 240.823157 
L 309.720023 240.722206 
L 310.201932 240.446893 
L 310.683841 240.483606 
L 311.16575 240.194221 
L 311.647659 240.322968 
L 312.129568 240.148209 
L 312.611477 240.097643 
L 313.575295 240.52334 
L 314.539114 240.053364 
L 315.021023 240.154733 
L 316.948659 239.854557 
L 317.430568 239.81783 
L 317.912477 239.600366 
L 318.394386 239.845608 
L 319.840114 240.032155 
L 320.322023 239.76321 
L 320.803932 240.022879 
L 321.285841 240.050698 
L 321.76775 239.847419 
L 322.249659 240.061143 
L 323.213477 239.810241 
L 324.177295 239.860576 
L 324.659205 239.730195 
L 325.141114 239.992757 
L 325.623023 239.778505 
L 326.586841 240.0533 
L 327.06875 240.314161 
L 327.550659 240.225653 
L 328.032568 240.658597 
L 328.514477 240.863987 
L 329.960205 240.894413 
L 330.442114 240.936509 
L 330.924023 240.78214 
L 331.405932 240.824235 
L 331.887841 240.524801 
L 332.851659 240.621852 
L 333.333568 240.996997 
L 334.779295 240.950007 
L 335.261205 241.213192 
L 335.743114 240.827802 
L 336.225023 240.729726 
L 336.706932 240.885183 
L 338.152659 240.616679 
L 339.116477 240.41886 
L 340.080295 240.621866 
L 341.526023 240.323232 
L 342.007932 240.195459 
L 343.935568 240.687417 
L 344.417477 240.65897 
L 344.899386 241.10488 
L 345.381295 240.9052 
L 345.863205 241.085832 
L 346.345114 240.833907 
L 346.827023 241.003739 
L 347.308932 240.951167 
L 347.790841 240.702767 
L 348.27275 240.707507 
L 348.754659 240.597663 
L 349.236568 240.190127 
L 349.718477 240.151821 
L 351.164205 239.509019 
L 352.128023 239.67215 
L 353.091841 239.24633 
L 353.57375 239.068359 
L 354.537568 239.039502 
L 355.019477 239.281647 
L 355.501386 238.895879 
L 355.983295 238.765644 
L 356.465205 238.321995 
L 356.947114 238.105009 
L 357.429023 238.307073 
L 358.392841 238.403738 
L 358.87475 238.152372 
L 359.356659 238.205513 
L 360.802386 237.687064 
L 361.284295 237.207352 
L 361.766205 237.017916 
L 362.248114 236.9985 
L 362.730023 236.731361 
L 363.211932 236.619665 
L 363.693841 236.623564 
L 364.17575 236.769589 
L 364.657659 236.584612 
L 365.139568 236.565141 
L 366.585295 235.238033 
L 367.067205 235.184364 
L 367.549114 235.013572 
L 368.031023 235.109923 
L 368.512932 236.048948 
L 368.994841 235.476715 
L 369.47675 235.369141 
L 369.958659 234.910852 
L 370.440568 235.445129 
L 370.922477 235.410832 
L 371.404386 235.499048 
L 371.886295 235.224039 
L 372.368205 235.774225 
L 373.332023 235.253519 
L 375.259659 235.309021 
L 376.223477 234.968738 
L 377.187295 234.948994 
L 378.151114 234.159921 
L 378.633023 234.252346 
L 379.114932 234.217748 
L 379.596841 233.916271 
L 380.07875 233.263901 
L 380.560659 232.333334 
L 381.042568 235.304795 
L 381.524477 236.211078 
L 382.006386 233.467454 
L 382.488295 233.636462 
L 382.970205 232.50984 
L 384.415932 232.581302 
L 384.897841 232.785218 
L 385.861659 232.29784 
L 386.343568 232.193409 
L 386.825477 232.460452 
L 387.307386 232.121661 
L 388.753114 231.706446 
L 391.162659 230.984098 
L 391.644568 231.599131 
L 392.126477 231.359134 
L 392.608386 231.644142 
L 393.572205 231.416438 
L 395.499841 231.640967 
L 395.98175 231.555666 
L 396.945568 231.901841 
L 397.427477 231.503845 
L 397.909386 231.584241 
L 398.391295 231.257588 
L 398.873205 231.272669 
L 399.355114 231.506392 
L 399.837023 231.284888 
L 400.318932 231.34282 
L 401.28275 231.141242 
L 401.764659 231.700641 
L 402.728477 231.614958 
L 403.210386 231.584714 
L 403.692295 231.790686 
L 404.174205 231.856288 
L 405.619932 232.922044 
L 406.58375 233.311374 
L 407.547568 232.956169 
L 408.511386 232.702988 
L 408.993295 232.596642 
L 409.475205 232.72831 
L 409.957114 232.579705 
L 410.439023 232.736931 
L 411.402841 232.610145 
L 411.88475 232.459283 
L 412.366659 232.179984 
L 412.848568 232.149494 
L 413.330477 232.367873 
L 413.812386 232.034596 
L 415.740023 231.475161 
L 416.221932 231.731344 
L 417.18575 231.542896 
L 419.113386 231.605568 
L 420.559114 232.401629 
L 421.041023 232.176854 
L 421.522932 232.437387 
L 422.48675 231.75224 
L 422.968659 232.212717 
L 423.932477 232.110411 
L 424.414386 231.745789 
L 424.896295 232.176181 
L 425.378205 231.977715 
L 426.342023 232.193136 
L 426.823932 233.008623 
L 427.305841 233.172728 
L 427.78775 233.141956 
L 428.269659 233.357377 
L 428.751568 233.911553 
L 429.715386 234.271089 
L 430.197295 234.425181 
L 430.679205 233.967465 
L 431.161114 234.939618 
L 431.643023 235.099068 
L 432.124932 236.12782 
L 432.606841 235.711331 
L 433.08875 236.75191 
L 434.052568 237.674002 
L 434.534477 237.710065 
L 435.016386 238.287516 
L 436.462114 236.966454 
L 436.944023 237.546907 
L 437.425932 238.353395 
L 437.907841 238.829022 
L 438.38975 238.461961 
L 438.871659 237.698105 
L 439.353568 238.273003 
L 440.799295 236.802099 
L 441.281205 237.40403 
L 441.763114 237.191292 
L 442.245023 237.777678 
L 442.726932 237.974852 
L 443.208841 238.517804 
L 443.69075 238.819391 
L 444.172659 239.313374 
L 444.654568 240.160915 
L 445.136477 240.608099 
L 445.618386 240.795178 
L 446.582205 241.837419 
L 447.064114 241.081788 
L 447.546023 241.428231 
L 448.027932 240.294821 
L 448.509841 240.038892 
L 448.99175 239.495685 
L 449.473659 238.723294 
L 449.955568 238.985046 
L 450.437477 238.573716 
L 450.919386 239.297797 
L 451.401295 239.811997 
L 451.883205 238.710124 
L 452.365114 238.274645 
L 453.328932 238.190682 
L 453.810841 238.198753 
L 454.29275 238.935117 
L 454.774659 239.156039 
L 455.256568 239.613654 
L 455.738477 239.516876 
L 456.220386 238.98435 
L 456.702295 238.240903 
L 457.184205 237.892931 
L 457.666114 238.167108 
L 458.148023 237.611016 
L 458.629932 238.160748 
L 459.111841 238.28232 
L 459.59375 237.864739 
L 460.557568 238.034835 
L 461.039477 238.729027 
L 461.521386 238.999277 
L 462.003295 238.587318 
L 462.485205 238.651073 
L 463.449023 238.496986 
L 463.930932 238.66171 
L 464.412841 239.282283 
L 464.89475 238.531202 
L 465.376659 238.504566 
L 466.340477 239.062285 
L 467.304295 239.628467 
L 468.268114 239.265969 
L 469.713841 239.796198 
L 470.677659 240.891893 
L 471.159568 240.413914 
L 471.641477 241.294653 
L 472.123386 240.977803 
L 472.605295 239.971689 
L 473.087205 240.090182 
L 473.569114 239.395303 
L 474.051023 239.449186 
L 474.532932 238.395345 
L 475.014841 238.362939 
L 475.49675 237.237364 
L 475.978659 237.161535 
L 476.460568 236.933994 
L 476.942477 237.502842 
L 477.424386 237.015273 
L 477.906295 237.600353 
L 478.388205 237.573257 
L 478.870114 237.203799 
L 479.352023 237.654795 
L 479.833932 237.94277 
L 480.315841 237.812358 
L 480.79775 237.552985 
L 481.279659 237.149716 
L 481.761568 237.787313 
L 482.243477 237.39494 
L 482.725386 237.329543 
L 483.689205 238.25325 
L 484.171114 238.570272 
L 484.653023 238.5976 
L 485.134932 237.964174 
L 485.616841 237.936764 
L 486.09875 237.646192 
L 487.062568 237.783255 
L 487.544477 237.562147 
L 488.026386 236.84716 
L 488.508295 236.935145 
L 488.990205 237.314662 
L 489.954023 236.420353 
L 490.435932 236.607923 
L 490.917841 236.458963 
L 491.39975 235.179733 
L 491.881659 235.611386 
L 492.845477 234.936242 
L 493.327386 235.224007 
L 493.809295 234.528979 
L 494.291205 234.223667 
L 494.773114 234.367995 
L 495.255023 234.35689 
L 495.736932 235.04307 
L 496.218841 235.29919 
L 496.70075 235.288058 
L 497.182659 235.805907 
L 497.664568 236.118407 
L 498.146477 235.68272 
L 498.628386 236.151918 
L 499.110295 236.068132 
L 499.592205 235.291707 
L 500.074114 235.044039 
L 500.556023 235.834118 
L 501.037932 236.196311 
L 501.519841 236.376192 
L 502.00175 236.280633 
L 502.483659 236.769703 
L 502.965568 236.218789 
L 503.447477 236.168205 
L 504.893205 235.598147 
L 505.375114 235.417656 
L 505.857023 234.723923 
L 506.338932 235.061104 
L 506.820841 235.10072 
L 507.30275 234.840474 
L 507.784659 234.846115 
L 508.266568 234.247646 
L 508.748477 235.621271 
L 509.712295 234.735797 
L 510.676114 235.032125 
L 511.158023 235.089064 
L 511.639932 235.328247 
L 512.121841 234.838504 
L 512.60375 235.122457 
L 513.085659 234.733946 
L 513.567568 234.5854 
L 514.049477 234.254024 
L 514.531386 234.261062 
L 515.013295 234.501796 
L 515.495205 234.467408 
L 515.977114 234.272527 
L 516.459023 233.686241 
L 516.940932 233.801272 
L 517.422841 233.801272 
L 517.90475 233.536708 
L 518.386659 233.502211 
L 518.868568 232.944245 
L 519.350477 232.690363 
L 520.314295 232.961569 
L 521.760023 232.258547 
L 522.241932 232.154349 
L 522.723841 232.501683 
L 523.687659 232.62538 
L 524.651477 232.149149 
L 525.133386 232.419504 
L 525.615295 232.547691 
L 526.579114 232.218972 
L 527.061023 232.33004 
L 527.542932 232.148808 
L 528.50675 232.178046 
L 528.988659 232.166354 
L 529.470568 231.975741 
L 529.952477 231.471348 
L 530.434386 231.524135 
L 530.916295 231.230878 
L 531.880114 232.333425 
L 532.362023 232.657008 
L 532.843932 232.727609 
L 533.325841 232.122794 
L 533.80775 232.069662 
L 534.289659 231.756784 
L 535.253477 232.122535 
L 535.735386 231.956688 
L 536.217295 232.643773 
L 537.181114 232.027767 
L 537.663023 232.35998 
L 538.144932 232.009342 
L 538.626841 231.926139 
L 539.10875 231.664651 
L 540.072568 232.217885 
L 540.554477 232.146333 
L 541.036386 232.587589 
L 541.518295 232.641253 
L 541.518295 232.641253 
" clip-path="url(#p944db47fde)" style="fill: none; stroke: #3f6f8f; stroke-width: 1.5; stroke-linecap: square"/>
   </g>
   <g id="line2d_22">
    <path d="M 59.609205 256.741067 
L 60.091114 257.875838 
L 60.573023 257.55381 
L 61.054932 257.589591 
L 61.536841 257.850282 
L 62.01875 257.497582 
L 62.500659 256.950643 
L 62.982568 256.158347 
L 63.464477 257.267559 
L 63.946386 256.613277 
L 64.428295 256.674618 
L 64.910205 257.472023 
L 65.392114 256.90975 
L 65.874023 256.700177 
L 66.355932 255.233153 
L 66.837841 254.926459 
L 67.31975 253.725239 
L 67.801659 253.127181 
L 68.283568 253.183409 
L 69.247386 252.007748 
L 70.211205 249.896664 
L 70.693114 248.695444 
L 71.175023 250.959873 
L 71.656932 249.170821 
L 72.138841 251.179671 
L 72.62075 250.52539 
L 73.102659 250.566284 
L 73.584568 249.758653 
L 74.066477 248.276295 
L 74.548386 247.18753 
L 75.030295 245.424034 
L 75.512205 246.016979 
L 75.994114 244.544842 
L 76.476023 245.030444 
L 76.957932 244.187033 
L 77.439841 245.132674 
L 77.92175 242.965366 
L 78.403659 241.539235 
L 78.885568 241.585242 
L 79.367477 240.246007 
L 79.849386 244.744193 
L 80.331295 243.737215 
L 80.813205 244.570401 
L 81.295114 244.033684 
L 81.777023 244.381271 
L 82.740841 247.468665 
L 83.22275 246.016979 
L 83.704659 245.158233 
L 84.186568 244.069465 
L 84.668477 246.001644 
L 85.150386 245.17868 
L 85.632295 246.829718 
L 86.596114 243.946788 
L 87.078023 243.645207 
L 87.559932 242.060615 
L 88.041841 242.566664 
L 89.005659 244.917989 
L 89.487568 247.545339 
L 89.969477 251.021214 
L 90.451386 249.257717 
L 90.933295 248.935689 
L 91.415205 250.331148 
L 91.897114 252.084419 
L 92.379023 246.753043 
L 92.860932 246.415681 
L 93.342841 248.485872 
L 93.82475 248.16384 
L 94.788568 253.791688 
L 95.270477 254.236397 
L 95.752386 253.643452 
L 96.234295 253.234524 
L 96.716205 250.397601 
L 97.198114 249.651311 
L 97.680023 252.610915 
L 98.161932 249.395732 
L 98.643841 248.465425 
L 99.12575 246.947286 
L 99.607659 246.625254 
L 100.089568 247.806031 
L 100.571477 248.424531 
L 101.053386 245.449593 
L 101.535295 244.028575 
L 102.017205 244.907767 
L 102.499114 243.394737 
L 102.981023 240.711158 
L 103.462932 243.353847 
L 103.944841 243.527639 
L 104.42675 244.033684 
L 104.908659 242.863136 
L 105.872477 245.930083 
L 106.836295 247.141524 
L 107.318205 244.841314 
L 107.800114 246.257223 
L 108.282023 244.708412 
L 108.763932 243.905894 
L 109.72775 241.529014 
L 110.209659 242.801796 
L 110.691568 243.588979 
L 111.173477 243.72699 
L 111.655386 243.527639 
L 112.137295 244.059243 
L 112.619205 244.912876 
L 113.101114 243.711656 
L 113.583023 242.955141 
L 114.064932 242.985813 
L 114.546841 242.781349 
L 115.02875 243.164717 
L 115.510659 242.832464 
L 115.992568 242.720009 
L 116.474477 240.849173 
L 116.956386 240.210226 
L 117.438295 240.266454 
L 117.920205 241.120086 
L 118.402114 240.419799 
L 118.884023 238.134926 
L 119.847841 237.802673 
L 120.32975 238.293384 
L 120.811659 235.78871 
L 121.293568 234.607937 
L 121.775477 232.97223 
L 122.257386 231.888578 
L 122.739295 232.558193 
L 123.221205 234.822622 
L 124.185023 235.313333 
L 124.666932 235.850051 
L 125.148841 233.774747 
L 125.63075 234.035439 
L 126.112659 235.921612 
L 127.076477 237.194394 
L 128.040295 234.745948 
L 128.522205 234.766395 
L 129.004114 234.060998 
L 129.486023 235.52291 
L 130.449841 235.195769 
L 130.93175 234.342133 
L 131.413659 232.614421 
L 131.895568 233.8412 
L 132.859386 231.735229 
L 133.341295 230.247762 
L 133.823205 229.174327 
L 134.305114 231.806791 
L 134.787023 229.935955 
L 135.268932 229.777494 
L 135.750841 229.358344 
L 136.23275 227.91688 
L 136.714659 227.95266 
L 137.196568 230.135306 
L 137.678477 230.201755 
L 138.160386 231.065613 
L 139.124205 231.66878 
L 139.606114 230.46756 
L 140.088023 230.007517 
L 141.051841 228.847187 
L 141.53375 228.412703 
L 142.015659 228.479152 
L 142.979477 225.94381 
L 144.425205 222.370822 
L 144.907114 224.389894 
L 145.389023 222.912648 
L 145.870932 220.99069 
L 146.352841 222.365706 
L 146.83475 223.127334 
L 147.316659 222.662178 
L 147.798568 220.126832 
L 148.280477 221.486514 
L 148.762386 222.105018 
L 149.244295 221.869882 
L 149.726205 219.794583 
L 150.208114 222.421933 
L 150.690023 222.876863 
L 151.171932 223.725387 
L 151.653841 224.108756 
L 152.13575 223.403355 
L 152.617659 223.065989 
L 153.099568 221.486514 
L 154.063386 219.472551 
L 154.545295 220.050162 
L 155.027205 219.973491 
L 155.509114 219.518561 
L 155.991023 219.549229 
L 156.472932 217.269462 
L 157.43675 215.695095 
L 157.918659 212.817282 
L 158.400568 216.431163 
L 158.882477 216.26248 
L 159.846295 214.182072 
L 160.328205 213.916268 
L 160.810114 214.417201 
L 161.292023 214.059392 
L 161.773932 215.940456 
L 162.255841 216.620297 
L 163.219659 211.370705 
L 163.701568 210.90044 
L 164.183477 209.791229 
L 164.665386 208.022619 
L 165.629205 198.719549 
L 166.111114 199.987218 
L 166.593023 197.037836 
L 167.074932 198.336181 
L 167.556841 200.723287 
L 168.03875 209.019376 
L 168.520659 209.908793 
L 169.002568 209.336299 
L 169.484477 207.179212 
L 169.966386 209.162499 
L 170.448295 203.99981 
L 170.930205 203.37108 
L 171.412114 201.781379 
L 171.894023 205.022126 
L 172.375932 207.179212 
L 172.857841 203.897572 
L 173.33975 205.645739 
L 173.821659 211.35537 
L 174.303568 210.803319 
L 174.785477 213.011517 
L 175.267386 210.348389 
L 175.749295 209.295405 
L 176.231205 207.859045 
L 176.713114 204.33206 
L 177.195023 205.0119 
L 177.676932 205.267479 
L 178.158841 205.160133 
L 178.64075 202.665688 
L 179.122659 205.676407 
L 179.604568 205.655956 
L 180.086477 208.252639 
L 180.568386 208.135075 
L 181.050295 207.833494 
L 181.532205 209.781003 
L 182.014114 208.482658 
L 182.496023 209.152282 
L 182.977932 208.211745 
L 183.459841 209.188059 
L 183.94175 212.209003 
L 184.423659 211.702954 
L 184.905568 212.658824 
L 185.387477 210.19504 
L 185.869386 211.610949 
L 186.351295 210.021248 
L 186.833205 212.679267 
L 187.315114 211.375813 
L 187.797023 212.132325 
L 188.278932 211.912531 
L 188.760841 212.152775 
L 189.24275 210.174597 
L 189.724659 211.191796 
L 190.206568 210.358614 
L 190.688477 210.593742 
L 191.170386 207.910164 
L 191.652295 206.760059 
L 192.616114 202.885482 
L 193.098023 202.803695 
L 193.579932 202.83948 
L 194.061841 202.466337 
L 195.025659 205.354375 
L 195.507568 205.885984 
L 195.989477 207.588132 
L 196.471386 204.919888 
L 196.953295 205.911535 
L 197.435205 204.004919 
L 197.917114 205.824639 
L 198.880932 206.806061 
L 199.362841 208.748463 
L 199.84475 208.641124 
L 200.326659 208.692235 
L 200.808568 208.37532 
L 201.290477 207.33767 
L 201.772386 208.584896 
L 202.254295 208.175968 
L 202.736205 208.114624 
L 203.218114 211.084457 
L 203.700023 212.510584 
L 204.181932 212.781497 
L 204.663841 212.643482 
L 205.627659 211.191796 
L 206.109568 211.754073 
L 206.591477 212.592371 
L 207.555295 221.455845 
L 208.037205 218.675146 
L 208.519114 218.071983 
L 209.001023 219.344761 
L 209.482932 223.704937 
L 209.964841 222.329929 
L 210.44675 222.248142 
L 210.928659 222.575282 
L 211.410568 221.987454 
L 211.892477 226.782109 
L 212.374386 229.818387 
L 212.856295 230.33977 
L 213.338205 227.252377 
L 213.820114 226.75144 
L 214.302023 224.875492 
L 214.783932 226.112493 
L 215.265841 225.856914 
L 215.74775 222.933091 
L 216.229659 221.747209 
L 217.193477 222.130577 
L 217.675386 225.366203 
L 218.157295 225.294642 
L 218.639205 224.778371 
L 219.121114 226.025597 
L 219.603023 228.034448 
L 220.566841 224.016743 
L 221.04875 225.810912 
L 221.530659 227.175702 
L 222.012568 227.155256 
L 222.494477 229.404351 
L 222.976386 229.005648 
L 223.458295 230.104634 
L 223.940205 229.680376 
L 224.422114 231.438756 
L 224.904023 230.83559 
L 225.385932 229.726379 
L 226.831659 228.192905 
L 227.313568 229.317455 
L 227.795477 228.254246 
L 228.277386 225.708678 
L 228.759295 225.48888 
L 229.241205 225.468433 
L 229.723114 224.717035 
L 230.205023 222.667287 
L 231.168841 227.032579 
L 231.65075 226.516308 
L 232.132659 225.821133 
L 232.614568 226.935458 
L 233.096477 226.58787 
L 233.578386 226.777 
L 234.060295 227.267711 
L 234.542205 227.063247 
L 235.024114 227.058134 
L 235.506023 229.143659 
L 235.987932 229.05165 
L 236.469841 227.85043 
L 236.95175 226.040931 
L 237.433659 225.959144 
L 237.915568 225.703565 
L 238.397477 224.875492 
L 238.879386 226.230061 
L 239.361295 226.403853 
L 239.843205 227.124587 
L 240.325114 226.199389 
L 240.807023 226.562311 
L 241.288932 227.732862 
L 241.770841 227.390388 
L 242.25275 228.310473 
L 242.734659 230.191534 
L 243.216568 230.850928 
L 243.698477 230.866262 
L 244.180386 232.118597 
L 244.662295 230.595349 
L 245.144205 229.879727 
L 245.626114 230.206868 
L 246.108023 233.115353 
L 246.589932 232.956896 
L 247.071841 232.190159 
L 247.55375 231.719895 
L 248.035659 233.396492 
L 248.517568 232.210606 
L 248.999477 230.687354 
L 249.481386 232.036814 
L 249.963295 232.006142 
L 250.445205 232.38951 
L 250.927114 230.764028 
L 251.409023 228.075341 
L 251.890932 227.201258 
L 252.372841 227.599964 
L 252.85475 230.058632 
L 253.336659 230.395994 
L 253.818568 231.776122 
L 254.300477 231.326301 
L 254.782386 233.524281 
L 255.264295 234.025217 
L 255.746205 232.650202 
L 256.228114 231.888578 
L 256.710023 231.776122 
L 257.191932 231.423422 
L 257.673841 231.612552 
L 258.15575 232.916002 
L 258.637659 232.900668 
L 259.119568 232.445738 
L 259.601477 230.626017 
L 260.565295 232.379289 
L 261.047205 233.330043 
L 261.529114 232.823993 
L 262.011023 231.857906 
L 262.492932 233.166472 
L 262.974841 233.575396 
L 263.45675 233.713411 
L 264.420568 236.851919 
L 265.384386 237.209728 
L 265.866295 236.085183 
L 266.348205 233.897428 
L 266.830114 235.139542 
L 267.793932 236.437879 
L 268.275841 234.87885 
L 268.75775 234.572156 
L 269.239659 234.991305 
L 270.203477 233.202253 
L 270.685386 233.708298 
L 271.167295 234.832844 
L 271.649205 237.490867 
L 272.613023 238.007137 
L 273.094932 238.947665 
L 273.576841 237.53176 
L 274.540659 238.54385 
L 275.022568 238.02758 
L 275.504477 238.840323 
L 275.986386 236.683236 
L 276.468295 237.501088 
L 276.950205 237.030824 
L 277.432114 236.034068 
L 278.395932 230.201755 
L 278.877841 230.600458 
L 279.35975 230.840703 
L 279.841659 229.087431 
L 280.323568 229.665038 
L 280.805477 229.465687 
L 281.287386 231.239405 
L 281.769295 230.932711 
L 282.251205 230.165975 
L 282.733114 230.426666 
L 283.215023 230.442 
L 283.696932 227.49773 
L 284.178841 227.737975 
L 284.66075 228.489378 
L 285.142659 229.511693 
L 285.624568 231.602327 
L 286.588386 228.474044 
L 288.516023 223.986075 
L 288.997932 225.86714 
L 289.479841 226.117606 
L 289.96175 224.773262 
L 290.443659 225.504214 
L 290.925568 225.580889 
L 291.407477 225.289529 
L 291.889386 226.270951 
L 292.371295 226.005151 
L 292.853205 225.913142 
L 293.335114 226.777 
L 293.817023 225.453099 
L 294.298932 226.480527 
L 294.780841 229.496359 
L 295.26275 229.690598 
L 295.744659 228.939195 
L 296.226568 228.555827 
L 296.708477 227.119475 
L 297.190386 230.845815 
L 297.672295 231.842571 
L 298.154205 233.140913 
L 298.636114 233.381158 
L 299.118023 234.270571 
L 299.599932 235.471791 
L 300.081841 235.533131 
L 300.56375 234.674386 
L 301.527568 232.323061 
L 302.009477 231.893686 
L 302.491386 232.691095 
L 302.973295 231.341639 
L 303.455205 230.590236 
L 303.937114 230.549343 
L 304.419023 229.516806 
L 304.900932 230.636239 
L 305.382841 232.062369 
L 306.346659 229.946177 
L 306.828568 230.017738 
L 307.310477 229.639483 
L 307.792386 228.034448 
L 308.274295 228.182684 
L 308.756205 228.969867 
L 309.238114 230.891818 
L 309.720023 230.983826 
L 310.201932 229.670151 
L 311.16575 228.540493 
L 312.129568 229.700823 
L 312.611477 229.654817 
L 313.093386 230.375551 
L 313.575295 231.776122 
L 314.057205 231.014498 
L 314.539114 229.741713 
L 315.021023 229.010757 
L 315.502932 229.542361 
L 315.984841 227.937326 
L 316.46675 228.187793 
L 316.948659 227.962886 
L 317.430568 226.265842 
L 317.912477 225.289529 
L 318.876295 227.707307 
L 319.358205 228.555827 
L 319.840114 228.806297 
L 320.322023 227.410834 
L 320.803932 228.540493 
L 321.285841 228.903414 
L 321.76775 229.046538 
L 322.249659 228.78585 
L 322.731568 227.901545 
L 323.695386 228.550718 
L 324.177295 230.140415 
L 324.659205 229.782606 
L 325.141114 228.882967 
L 325.623023 227.49773 
L 326.586841 225.805799 
L 327.06875 226.081825 
L 327.550659 225.23841 
L 328.514477 226.925236 
L 328.996386 225.294642 
L 329.478295 226.224949 
L 329.960205 226.608317 
L 330.442114 226.531642 
L 330.924023 227.012132 
L 331.405932 225.473546 
L 331.887841 226.403853 
L 332.36975 226.097159 
L 332.851659 225.555333 
L 333.333568 225.974482 
L 334.297386 227.0428 
L 334.779295 226.807668 
L 335.261205 228.131565 
L 335.743114 227.722641 
L 336.225023 228.090675 
L 336.706932 227.824871 
L 337.188841 228.678507 
L 337.67075 229.189665 
L 338.152659 230.053519 
L 338.634568 229.946177 
L 339.598386 231.121841 
L 340.562205 231.960139 
L 341.044114 232.077704 
L 341.526023 233.38627 
L 342.007932 232.348617 
L 342.489841 232.68087 
L 343.453659 232.93134 
L 343.935568 232.691095 
L 344.417477 233.064238 
L 344.899386 232.532634 
L 345.381295 231.801678 
L 346.345114 231.014498 
L 346.827023 231.075835 
L 347.308932 232.185046 
L 347.790841 231.602327 
L 348.27275 231.525656 
L 348.754659 231.64322 
L 349.236568 230.33977 
L 349.718477 230.866262 
L 350.200386 230.017738 
L 350.682295 228.821631 
L 351.646114 228.443371 
L 352.128023 228.842078 
L 353.091841 227.063247 
L 353.57375 227.211483 
L 354.537568 226.552089 
L 355.019477 228.402482 
L 355.501386 227.911771 
L 355.983295 227.845318 
L 356.465205 227.33416 
L 356.947114 228.336029 
L 357.910932 228.428037 
L 358.392841 229.174327 
L 358.87475 228.663169 
L 359.356659 229.031204 
L 359.838568 228.632501 
L 360.320477 229.031204 
L 360.802386 228.69895 
L 361.284295 227.661301 
L 361.766205 225.994929 
L 362.248114 226.010263 
L 362.730023 223.239789 
L 363.211932 222.616176 
L 363.693841 223.158002 
L 364.17575 222.447493 
L 364.657659 221.967003 
L 365.139568 222.391265 
L 365.621477 221.24116 
L 366.103386 218.496245 
L 367.067205 217.008774 
L 367.549114 217.22346 
L 368.512932 219.063631 
L 368.994841 217.632387 
L 369.47675 218.598475 
L 369.958659 218.169105 
L 370.440568 219.124967 
L 370.922477 218.905165 
L 371.404386 218.189548 
L 371.886295 217.831739 
L 372.368205 220.474423 
L 372.850114 220.05527 
L 373.332023 220.295515 
L 373.813932 220.234179 
L 374.295841 220.356859 
L 374.77775 219.6259 
L 375.259659 219.385655 
L 375.741568 217.949303 
L 376.223477 216.144916 
L 376.705386 215.608199 
L 377.187295 215.776882 
L 378.151114 214.371198 
L 378.633023 215.158386 
L 379.114932 214.539881 
L 379.596841 211.626283 
L 380.07875 214.856797 
L 380.560659 210.169481 
L 381.042568 217.463704 
L 381.524477 219.084074 
L 382.006386 212.878618 
L 382.488295 212.674158 
L 382.970205 209.586761 
L 383.452114 209.648097 
L 383.934023 207.567689 
L 384.415932 209.029601 
L 384.897841 208.70246 
L 385.37975 206.908299 
L 385.861659 207.276326 
L 386.343568 207.429675 
L 386.825477 209.934352 
L 387.307386 207.577915 
L 387.789295 206.85718 
L 388.271205 205.574177 
L 388.753114 205.349266 
L 389.235023 204.219604 
L 389.716932 203.744231 
L 390.68075 195.918407 
L 391.162659 193.168375 
L 391.644568 197.395653 
L 392.126477 197.65634 
L 392.608386 196.450008 
L 393.090295 197.855691 
L 394.054114 197.058287 
L 394.536023 201.280447 
L 395.017932 199.440284 
L 395.499841 198.141939 
L 395.98175 199.562957 
L 396.463659 199.389165 
L 396.945568 200.636391 
L 397.427477 197.063395 
L 397.909386 200.145676 
L 398.391295 200.897079 
L 398.873205 204.93523 
L 399.355114 202.619678 
L 399.837023 202.532782 
L 400.318932 200.51371 
L 400.800841 200.559713 
L 401.28275 199.532288 
L 401.764659 202.098303 
L 402.246568 203.227957 
L 402.728477 201.812055 
L 403.210386 202.471446 
L 403.692295 203.902689 
L 404.174205 203.452868 
L 404.656114 205.333932 
L 405.138023 207.991951 
L 405.619932 209.356742 
L 406.101841 208.155518 
L 406.58375 207.260992 
L 407.065659 207.772149 
L 407.547568 207.905055 
L 408.029477 207.245657 
L 408.511386 205.671291 
L 408.993295 205.645739 
L 409.475205 206.023991 
L 409.957114 202.992829 
L 410.439023 202.430552 
L 410.920932 200.718178 
L 411.402841 199.522063 
L 412.366659 200.871519 
L 412.848568 206.397141 
L 413.330477 205.548618 
L 413.812386 205.190809 
L 414.294295 204.209379 
L 414.776205 204.107149 
L 415.258114 204.541636 
L 415.740023 203.897572 
L 416.221932 206.545374 
L 416.703841 205.650848 
L 417.18575 205.49239 
L 417.667659 203.708446 
L 418.149568 203.263742 
L 419.113386 206.990079 
L 419.595295 207.230323 
L 420.077205 206.570933 
L 420.559114 206.75495 
L 421.041023 206.192674 
L 421.522932 204.945447 
L 422.004841 205.517949 
L 422.48675 203.887355 
L 422.968659 201.530917 
L 423.450568 202.471446 
L 423.932477 205.415712 
L 424.896295 205.553726 
L 425.860114 204.33206 
L 426.342023 203.314853 
L 426.823932 204.955673 
L 427.305841 203.974251 
L 427.78775 203.248408 
L 428.269659 205.287922 
L 428.751568 204.388287 
L 429.233477 201.858058 
L 429.715386 200.166127 
L 430.197295 200.457483 
L 430.679205 196.812933 
L 431.161114 196.092199 
L 431.643023 199.051799 
L 432.124932 197.477432 
L 432.606841 198.949569 
L 433.08875 197.942587 
L 433.570659 196.628916 
L 434.534477 200.273466 
L 435.016386 201.035093 
L 435.498295 204.424072 
L 435.980205 202.767918 
L 436.462114 202.348765 
L 436.944023 202.48678 
L 437.425932 201.484915 
L 437.907841 203.156395 
L 438.38975 203.759565 
L 438.871659 204.664309 
L 439.353568 207.741481 
L 439.835477 209.423195 
L 440.317386 208.574671 
L 440.799295 206.821396 
L 441.281205 206.213124 
L 441.763114 204.894336 
L 442.245023 207.526796 
L 442.726932 208.017511 
L 443.208841 209.295405 
L 443.69075 209.00915 
L 444.172659 211.043564 
L 444.654568 212.490141 
L 445.136477 211.641618 
L 445.618386 210.000798 
L 446.100295 212.505475 
L 446.582205 211.907422 
L 447.064114 212.413463 
L 447.546023 210.721532 
L 448.027932 206.586267 
L 448.509841 207.491019 
L 448.99175 207.271217 
L 449.473659 205.206143 
L 450.437477 205.446388 
L 450.919386 205.206143 
L 451.401295 203.989585 
L 451.883205 201.909169 
L 452.365114 199.327828 
L 452.847023 199.056915 
L 453.328932 199.092692 
L 453.810841 202.036958 
L 454.29275 202.088077 
L 454.774659 203.161512 
L 455.256568 204.648975 
L 455.738477 202.532782 
L 456.220386 201.82739 
L 456.702295 196.766923 
L 457.184205 196.828267 
L 457.666114 197.048061 
L 458.148023 195.376573 
L 458.629932 195.443026 
L 459.111841 196.521569 
L 459.59375 196.240431 
L 460.075659 194.880749 
L 460.557568 195.213007 
L 461.521386 198.223726 
L 462.003295 198.157273 
L 462.485205 197.651231 
L 462.967114 197.8608 
L 463.449023 199.614075 
L 463.930932 199.578291 
L 464.412841 199.389165 
L 464.89475 197.963038 
L 465.376659 197.57967 
L 465.858568 197.743236 
L 466.340477 198.596869 
L 467.304295 201.081096 
L 468.268114 198.637762 
L 468.750023 199.675412 
L 469.713841 199.39939 
L 470.19575 203.06439 
L 470.677659 203.958917 
L 471.159568 199.292044 
L 471.641477 196.858935 
L 472.123386 195.550373 
L 472.605295 196.245548 
L 473.087205 198.94446 
L 473.569114 196.818042 
L 474.051023 195.872397 
L 474.532932 192.554988 
L 475.014841 195.81106 
L 475.49675 195.115885 
L 475.978659 193.444397 
L 476.460568 192.984358 
L 476.942477 193.914661 
L 477.424386 193.730644 
L 477.906295 194.640512 
L 478.388205 195.110777 
L 478.870114 194.292921 
L 479.833932 195.453251 
L 480.315841 194.287812 
L 480.79775 192.105166 
L 481.279659 187.637644 
L 481.761568 188.619066 
L 482.243477 188.291926 
L 482.725386 185.547011 
L 483.207295 180.731906 
L 483.689205 179.837379 
L 484.171114 177.721187 
L 485.134932 181.846226 
L 486.09875 176.376839 
L 486.580659 180.333203 
L 487.062568 180.650118 
L 487.544477 182.541401 
L 488.026386 180.430324 
L 488.508295 180.915923 
L 488.990205 180.798359 
L 489.472114 177.772305 
L 489.954023 176.657977 
L 490.917841 177.925647 
L 491.39975 175.518098 
L 491.881659 175.9168 
L 492.363568 172.118894 
L 492.845477 172.10356 
L 493.809295 172.814069 
L 494.291205 168.699255 
L 495.255023 165.458508 
L 495.736932 165.468734 
L 496.218841 165.228489 
L 496.70075 162.263772 
L 497.182659 161.215897 
L 497.664568 161.650385 
L 498.146477 163.955703 
L 498.628386 169.767573 
L 499.110295 162.994732 
L 499.592205 165.167153 
L 500.074114 166.516609 
L 500.556023 165.831659 
L 501.037932 166.951088 
L 501.519841 167.308905 
L 502.00175 166.240579 
L 502.483659 163.827914 
L 502.965568 163.286088 
L 503.447477 160.024907 
L 503.929386 158.537435 
L 504.411295 155.807855 
L 504.893205 154.58618 
L 505.375114 152.311537 
L 505.857023 156.129887 
L 506.338932 153.512746 
L 506.820841 150.011327 
L 507.30275 148.350065 
L 507.784659 145.502912 
L 508.266568 147.721335 
L 508.748477 138.413156 
L 509.230386 134.226772 
L 509.712295 134.937274 
L 510.194205 138.387589 
L 510.676114 133.858738 
L 511.158023 140.299329 
L 511.639932 132.371267 
L 512.121841 135.514884 
L 512.60375 134.707262 
L 513.085659 129.028291 
L 513.567568 132.177025 
L 514.049477 136.731442 
L 514.531386 133.705382 
L 515.013295 132.683066 
L 515.977114 133.572491 
L 516.459023 132.698416 
L 516.940932 130.684453 
L 517.422841 133.557157 
L 517.90475 131.947013 
L 518.386659 128.118431 
L 518.868568 121.483613 
L 519.832386 117.327897 
L 520.314295 113.463546 
L 521.278114 102.023832 
L 521.760023 91.867129 
L 522.723841 102.53499 
L 523.20575 102.437869 
L 523.687659 98.527515 
L 524.169568 99.391372 
L 524.651477 92.434507 
L 525.133386 93.170575 
L 525.615295 88.570155 
L 526.097205 86.740217 
L 526.579114 77.682501 
L 527.061023 87.118469 
L 527.542932 78.842823 
L 528.024841 75.356723 
L 528.50675 56.592125 
L 528.988659 63.262728 
L 529.470568 57.890471 
L 530.434386 51.163632 
L 530.916295 43.429812 
L 531.398205 48.664063 
L 531.880114 55.140439 
L 532.362023 79.399983 
L 532.843932 78.725251 
L 533.325841 71.206125 
L 534.289659 62.761804 
L 535.253477 74.390643 
L 535.735386 68.977484 
L 536.217295 77.401355 
L 536.699205 79.175073 
L 537.181114 77.488258 
L 537.663023 88.161235 
L 538.144932 93.119456 
L 538.626841 92.822992 
L 539.10875 99.718505 
L 539.590659 97.418295 
L 540.072568 97.99079 
L 540.554477 102.38675 
L 541.036386 100.602814 
L 541.518295 100.786823 
L 541.518295 100.786823 
" clip-path="url(#p944db47fde)" style="fill: none; stroke: #7a8450; stroke-width: 1.5; stroke-linecap: square"/>
   </g>
   <g id="line2d_23">
    <path d="M 59.609205 257.613043 
L 63.946386 257.36122 
L 65.392114 257.215523 
L 70.211205 256.960357 
L 74.548386 256.792287 
L 79.367477 256.538584 
L 81.295114 256.523684 
L 82.740841 256.543107 
L 93.82475 256.150186 
L 94.306659 256.307829 
L 96.716205 256.189911 
L 97.198114 256.265057 
L 98.161932 256.21542 
L 102.499114 256.180836 
L 109.72775 256.16579 
L 112.137295 256.162028 
L 119.847841 256.180099 
L 122.257386 256.171804 
L 128.522205 256.16879 
L 132.377477 256.183879 
L 265.384386 256.287787 
L 272.613023 256.302852 
L 279.841659 256.295318 
L 285.624568 256.280271 
L 313.093386 256.172398 
L 331.405932 255.923471 
L 347.790841 255.516723 
L 361.766205 255.078798 
L 367.549114 254.903233 
L 387.307386 254.558469 
L 401.764659 254.569128 
L 413.330477 254.580981 
L 430.197295 254.608621 
L 435.016386 254.588086 
L 445.136477 254.39809 
L 449.473659 254.21394 
L 457.184205 253.71967 
L 459.111841 253.601573 
L 463.449023 253.31123 
L 484.171114 251.667705 
L 493.809295 250.878759 
L 505.375114 250.042141 
L 514.049477 249.461737 
L 522.723841 248.873167 
L 534.771568 248.144652 
L 541.518295 247.734889 
L 541.518295 247.734889 
" clip-path="url(#p944db47fde)" style="fill: none; stroke: #aba499; stroke-width: 1.5; stroke-linecap: square"/>
   </g>
   <g id="patch_3">
    <path d="M 35.51375 286.861812 
L 565.61375 286.861812 
" style="fill: none; stroke: #8a8f98; stroke-width: 0.8; stroke-linejoin: miter; stroke-linecap: square"/>
   </g>
   <g id="text_13">
    <text style="font-size: 14px; font-family: 'Helvetica Neue', 'Helvetica', 'Arial', 'DejaVu Sans', sans-serif; text-anchor: start; fill: #8a8f98" x="35.51375" y="17.837812" transform="rotate(-0 35.51375 17.837812)">Crescita di 100 investiti nel 2007, per asset class</text>
   </g>
   <g id="legend_1">
    <g id="line2d_24">
     <path d="M 45.41375 46.246094 
L 56.41375 46.246094 
L 67.41375 46.246094 
" style="fill: none; stroke: #b6892b; stroke-width: 2.1; stroke-linecap: square"/>
    </g>
    <g id="text_14">
     <text style="font-size: 11px; font-family: 'Helvetica Neue', 'Helvetica', 'Arial', 'DejaVu Sans', sans-serif; text-anchor: start; fill: #1f2328" x="76.21375" y="50.096094" transform="rotate(-0 76.21375 50.096094)">Azionario (S&amp;P 500)</text>
    </g>
    <g id="line2d_25">
     <path d="M 45.41375 62.746953 
L 56.41375 62.746953 
L 67.41375 62.746953 
" style="fill: none; stroke: #3f6f8f; stroke-width: 1.5; stroke-linecap: square"/>
    </g>
    <g id="text_15">
     <text style="font-size: 11px; font-family: 'Helvetica Neue', 'Helvetica', 'Arial', 'DejaVu Sans', sans-serif; text-anchor: start; fill: #1f2328" x="76.21375" y="66.596953" transform="rotate(-0 76.21375 66.596953)">Obbligazioni</text>
    </g>
    <g id="line2d_26">
     <path d="M 45.41375 79.247812 
L 56.41375 79.247812 
L 67.41375 79.247812 
" style="fill: none; stroke: #7a8450; stroke-width: 1.5; stroke-linecap: square"/>
    </g>
    <g id="text_16">
     <text style="font-size: 11px; font-family: 'Helvetica Neue', 'Helvetica', 'Arial', 'DejaVu Sans', sans-serif; text-anchor: start; fill: #1f2328" x="76.21375" y="83.097812" transform="rotate(-0 76.21375 83.097812)">Oro</text>
    </g>
    <g id="line2d_27">
     <path d="M 45.41375 96.188672 
L 56.41375 96.188672 
L 67.41375 96.188672 
" style="fill: none; stroke: #aba499; stroke-width: 1.5; stroke-linecap: square"/>
    </g>
    <g id="text_17">
     <text style="font-size: 11px; font-family: 'Helvetica Neue', 'Helvetica', 'Arial', 'DejaVu Sans', sans-serif; text-anchor: start; fill: #1f2328" x="76.21375" y="100.038672" transform="rotate(-0 76.21375 100.038672)">Liquidità</text>
    </g>
   </g>
  </g>
 </g>
 <defs>
  <clipPath id="p944db47fde">
   <rect x="35.51375" y="31.837812" width="530.1" height="255.024"/>
  </clipPath>
 </defs>
</svg>
