<?xml version="1.0" encoding="utf-8" standalone="no"?>
<!DOCTYPE svg PUBLIC "-//W3C//DTD SVG 1.1//EN"
  "http://www.w3.org/Graphics/SVG/1.1/DTD/svg11.dtd">
<svg xmlns:xlink="http://www.w3.org/1999/xlink" width="572.81375pt" height="310.561812pt" viewBox="0 0 572.81375 310.561812" xmlns="http://www.w3.org/2000/svg" version="1.1">
 <metadata>
  <rdf:RDF xmlns:dc="http://purl.org/dc/elements/1.1/" xmlns:cc="http://creativecommons.org/ns#" xmlns:rdf="http://www.w3.org/1999/02/22-rdf-syntax-ns#">
   <cc:Work>
    <dc:type rdf:resource="http://purl.org/dc/dcmitype/StillImage"/>
    <dc:date>2026-07-01T10:04:18.408445</dc:date>
    <dc:format>image/svg+xml</dc:format>
    <dc:creator>
     <cc:Agent>
      <dc:title>Matplotlib v3.11.0, https://matplotlib.org/</dc:title>
     </cc:Agent>
    </dc:creator>
   </cc:Work>
  </rdf:RDF>
 </metadata>
 <defs>
  <style type="text/css">*{stroke-linejoin: round; stroke-linecap: butt}</style>
 </defs>
 <g id="figure_1">
  <g id="patch_1">
   <path d="M 0 310.561812 
L 572.81375 310.561812 
L 572.81375 0 
L 0 0 
z
" style="fill: #faf8f3"/>
  </g>
  <g id="axes_1">
   <g id="patch_2">
    <path d="M 35.51375 286.861812 
L 565.61375 286.861812 
L 565.61375 31.837812 
L 35.51375 31.837812 
z
" style="fill: #faf8f3"/>
   </g>
   <g id="matplotlib.axis_1">
    <g id="xtick_1">
     <g id="line2d_1"/>
     <g id="text_1">
      <text style="font-size: 13px; font-family: 'Helvetica Neue', 'Helvetica', 'Arial', 'DejaVu Sans', sans-serif; text-anchor: middle; fill: #8a8f98" x="74.26278" y="300.238766" transform="rotate(-0 74.26278 300.238766)">2008</text>
     </g>
    </g>
    <g id="xtick_2">
     <g id="line2d_2"/>
     <g id="text_2">
      <text style="font-size: 13px; font-family: 'Helvetica Neue', 'Helvetica', 'Arial', 'DejaVu Sans', sans-serif; text-anchor: middle; fill: #8a8f98" x="124.789967" y="300.238766" transform="rotate(-0 124.789967 300.238766)">2010</text>
     </g>
    </g>
    <g id="xtick_3">
     <g id="line2d_3"/>
     <g id="text_3">
      <text style="font-size: 13px; font-family: 'Helvetica Neue', 'Helvetica', 'Arial', 'DejaVu Sans', sans-serif; text-anchor: middle; fill: #8a8f98" x="175.248033" y="300.238766" transform="rotate(-0 175.248033 300.238766)">2012</text>
     </g>
    </g>
    <g id="xtick_4">
     <g id="line2d_4"/>
     <g id="text_4">
      <text style="font-size: 13px; font-family: 'Helvetica Neue', 'Helvetica', 'Arial', 'DejaVu Sans', sans-serif; text-anchor: middle; fill: #8a8f98" x="225.775219" y="300.238766" transform="rotate(-0 225.775219 300.238766)">2014</text>
     </g>
    </g>
    <g id="xtick_5">
     <g id="line2d_5"/>
     <g id="text_5">
      <text style="font-size: 13px; font-family: 'Helvetica Neue', 'Helvetica', 'Arial', 'DejaVu Sans', sans-serif; text-anchor: middle; fill: #8a8f98" x="276.233285" y="300.238766" transform="rotate(-0 276.233285 300.238766)">2016</text>
     </g>
    </g>
    <g id="xtick_6">
     <g id="line2d_6"/>
     <g id="text_6">
      <text style="font-size: 13px; font-family: 'Helvetica Neue', 'Helvetica', 'Arial', 'DejaVu Sans', sans-serif; text-anchor: middle; fill: #8a8f98" x="326.760472" y="300.238766" transform="rotate(-0 326.760472 300.238766)">2018</text>
     </g>
    </g>
    <g id="xtick_7">
     <g id="line2d_7"/>
     <g id="text_7">
      <text style="font-size: 13px; font-family: 'Helvetica Neue', 'Helvetica', 'Arial', 'DejaVu Sans', sans-serif; text-anchor: middle; fill: #8a8f98" x="377.218538" y="300.238766" transform="rotate(-0 377.218538 300.238766)">2020</text>
     </g>
    </g>
    <g id="xtick_8">
     <g id="line2d_8"/>
     <g id="text_8">
      <text style="font-size: 13px; font-family: 'Helvetica Neue', 'Helvetica', 'Arial', 'DejaVu Sans', sans-serif; text-anchor: middle; fill: #8a8f98" x="427.745725" y="300.238766" transform="rotate(-0 427.745725 300.238766)">2022</text>
     </g>
    </g>
    <g id="xtick_9">
     <g id="line2d_9"/>
     <g id="text_9">
      <text style="font-size: 13px; font-family: 'Helvetica Neue', 'Helvetica', 'Arial', 'DejaVu Sans', sans-serif; text-anchor: middle; fill: #8a8f98" x="478.203791" y="300.238766" transform="rotate(-0 478.203791 300.238766)">2024</text>
     </g>
    </g>
    <g id="xtick_10">
     <g id="line2d_10"/>
     <g id="text_10">
      <text style="font-size: 13px; font-family: 'Helvetica Neue', 'Helvetica', 'Arial', 'DejaVu Sans', sans-serif; text-anchor: middle; fill: #8a8f98" x="528.730977" y="300.238766" transform="rotate(-0 528.730977 300.238766)">2026</text>
     </g>
    </g>
   </g>
   <g id="matplotlib.axis_2">
    <g id="ytick_1">
     <g id="line2d_11">
      <path d="M 35.51375 257.620255 
L 565.61375 257.620255 
" clip-path="url(#p45658dabb7)" style="fill: none; stroke: #e7e3da; stroke-width: 0.9; stroke-linecap: square"/>
     </g>
     <g id="line2d_12"/>
     <g id="text_11">
      <text style="font-size: 13px; font-family: 'Helvetica Neue', 'Helvetica', 'Arial', 'DejaVu Sans', sans-serif; text-anchor: end; fill: #8a8f98" x="32.01375" y="262.558732" transform="rotate(-0 32.01375 262.558732)">100</text>
     </g>
    </g>
    <g id="ytick_2">
     <g id="line2d_13">
      <path d="M 35.51375 224.538123 
L 565.61375 224.538123 
" clip-path="url(#p45658dabb7)" style="fill: none; stroke: #e7e3da; stroke-width: 0.9; stroke-linecap: square"/>
     </g>
     <g id="line2d_14"/>
     <g id="text_12">
      <text style="font-size: 13px; font-family: 'Helvetica Neue', 'Helvetica', 'Arial', 'DejaVu Sans', sans-serif; text-anchor: end; fill: #8a8f98" x="32.01375" y="229.4766" transform="rotate(-0 32.01375 229.4766)">200</text>
     </g>
    </g>
    <g id="ytick_3">
     <g id="line2d_15">
      <path d="M 35.51375 191.455991 
L 565.61375 191.455991 
" clip-path="url(#p45658dabb7)" style="fill: none; stroke: #e7e3da; stroke-width: 0.9; stroke-linecap: square"/>
     </g>
     <g id="line2d_16"/>
     <g id="text_13">
      <text style="font-size: 13px; font-family: 'Helvetica Neue', 'Helvetica', 'Arial', 'DejaVu Sans', sans-serif; text-anchor: end; fill: #8a8f98" x="32.01375" y="196.394468" transform="rotate(-0 32.01375 196.394468)">300</text>
     </g>
    </g>
    <g id="ytick_4">
     <g id="line2d_17">
      <path d="M 35.51375 158.373859 
L 565.61375 158.373859 
" clip-path="url(#p45658dabb7)" style="fill: none; stroke: #e7e3da; stroke-width: 0.9; stroke-linecap: square"/>
     </g>
     <g id="line2d_18"/>
     <g id="text_14">
      <text style="font-size: 13px; font-family: 'Helvetica Neue', 'Helvetica', 'Arial', 'DejaVu Sans', sans-serif; text-anchor: end; fill: #8a8f98" x="32.01375" y="163.312336" transform="rotate(-0 32.01375 163.312336)">400</text>
     </g>
    </g>
    <g id="ytick_5">
     <g id="line2d_19">
      <path d="M 35.51375 125.291727 
L 565.61375 125.291727 
" clip-path="url(#p45658dabb7)" style="fill: none; stroke: #e7e3da; stroke-width: 0.9; stroke-linecap: square"/>
     </g>
     <g id="line2d_20"/>
     <g id="text_15">
      <text style="font-size: 13px; font-family: 'Helvetica Neue', 'Helvetica', 'Arial', 'DejaVu Sans', sans-serif; text-anchor: end; fill: #8a8f98" x="32.01375" y="130.230204" transform="rotate(-0 32.01375 130.230204)">500</text>
     </g>
    </g>
    <g id="ytick_6">
     <g id="line2d_21">
      <path d="M 35.51375 92.209595 
L 565.61375 92.209595 
" clip-path="url(#p45658dabb7)" style="fill: none; stroke: #e7e3da; stroke-width: 0.9; stroke-linecap: square"/>
     </g>
     <g id="line2d_22"/>
     <g id="text_16">
      <text style="font-size: 13px; font-family: 'Helvetica Neue', 'Helvetica', 'Arial', 'DejaVu Sans', sans-serif; text-anchor: end; fill: #8a8f98" x="32.01375" y="97.148072" transform="rotate(-0 32.01375 97.148072)">600</text>
     </g>
    </g>
    <g id="ytick_7">
     <g id="line2d_23">
      <path d="M 35.51375 59.127463 
L 565.61375 59.127463 
" clip-path="url(#p45658dabb7)" style="fill: none; stroke: #e7e3da; stroke-width: 0.9; stroke-linecap: square"/>
     </g>
     <g id="line2d_24"/>
     <g id="text_17">
      <text style="font-size: 13px; font-family: 'Helvetica Neue', 'Helvetica', 'Arial', 'DejaVu Sans', sans-serif; text-anchor: end; fill: #8a8f98" x="32.01375" y="64.06594" transform="rotate(-0 32.01375 64.06594)">700</text>
     </g>
    </g>
   </g>
   <g id="line2d_25">
    <path d="M 59.609205 257.49094 
L 60.093049 258.146195 
L 60.576893 257.56644 
L 61.060738 258.111948 
L 61.544582 258.137934 
L 62.512271 257.181112 
L 62.996116 257.473362 
L 63.47996 259.289589 
L 63.963805 259.573182 
L 64.447649 259.376187 
L 64.931494 259.376187 
L 65.415338 258.592538 
L 65.899183 258.752724 
L 66.383027 259.081769 
L 66.866872 258.469146 
L 67.350716 257.648484 
L 67.834561 257.51582 
L 68.318405 256.80458 
L 68.802249 256.700178 
L 69.286094 258.148759 
L 69.769938 257.289631 
L 70.253783 257.815971 
L 70.737627 259.134045 
L 71.221472 258.992678 
L 71.705316 259.353716 
L 72.189161 258.368437 
L 72.673005 257.879056 
L 73.15685 258.692513 
L 73.640694 258.312714 
L 74.124539 258.494204 
L 74.608383 259.80395 
L 75.092228 260.057591 
L 75.576072 261.826531 
L 76.059916 261.612239 
L 76.543761 260.182247 
L 77.027605 261.605679 
L 77.51145 261.153062 
L 77.995294 261.048114 
L 78.479139 261.441689 
L 78.962983 262.340371 
L 79.446828 262.362246 
L 79.930672 261.679174 
L 80.414517 261.804433 
L 80.898361 260.622225 
L 81.382206 261.393521 
L 81.86605 260.272852 
L 82.349895 260.026738 
L 82.833739 259.607032 
L 83.317584 260.180561 
L 83.801428 259.354332 
L 84.285272 260.457434 
L 84.769117 259.861933 
L 85.252961 260.754088 
L 85.736806 260.784842 
L 86.704495 262.538827 
L 87.188339 262.808238 
L 87.672184 263.353727 
L 88.156028 262.881127 
L 88.639873 262.991555 
L 89.123717 262.84137 
L 89.607562 262.132485 
L 90.091406 261.955808 
L 91.059095 262.260568 
L 91.542939 263.225642 
L 92.026784 262.856832 
L 92.510628 263.133232 
L 92.994473 263.85955 
L 93.478317 266.194009 
L 93.962162 271.045033 
L 94.446006 269.998871 
L 94.929851 271.369322 
L 95.413695 269.194803 
L 95.89754 269.854487 
L 96.865229 273.039649 
L 97.349073 270.691866 
L 97.832918 271.171638 
L 98.316762 270.936197 
L 98.800607 270.954878 
L 99.284451 271.185515 
L 99.768295 269.886773 
L 100.735984 271.655749 
L 101.219829 272.092387 
L 101.703673 272.155094 
L 102.187518 271.225819 
L 102.671362 272.170767 
L 103.155207 273.366501 
L 103.639051 274.147979 
L 104.122896 275.269812 
L 104.60674 273.664317 
L 105.090585 273.402536 
L 105.574429 272.297475 
L 106.058274 271.69984 
L 107.025962 271.063861 
L 107.509807 271.158575 
L 107.993651 270.881195 
L 108.477496 269.733278 
L 108.96134 270.696258 
L 109.445185 270.626346 
L 109.929029 269.834766 
L 110.412874 269.379209 
L 110.896718 269.259675 
L 111.380563 269.828011 
L 111.864407 269.873376 
L 112.832096 270.753351 
L 113.315941 269.354008 
L 113.799785 268.462709 
L 114.28363 268.29261 
L 114.767474 267.750566 
L 115.251318 267.843541 
L 115.735163 267.349129 
L 116.219007 267.256152 
L 116.702852 267.555525 
L 117.670541 266.38335 
L 118.63823 267.347271 
L 119.122074 266.260303 
L 119.605919 265.888853 
L 120.089763 266.07344 
L 120.573608 267.103453 
L 121.057452 266.289933 
L 121.541297 265.722512 
L 122.508985 265.733904 
L 122.99283 265.405763 
L 123.960519 265.452858 
L 124.444363 264.932787 
L 124.928208 265.171055 
L 125.412052 264.453973 
L 125.895897 264.667033 
L 126.379741 265.681958 
L 126.863586 266.098929 
L 127.34743 266.266172 
L 127.831275 265.950013 
L 128.315119 265.239789 
L 128.798964 265.331426 
L 129.282808 264.527284 
L 130.250497 264.023798 
L 130.734341 263.883473 
L 131.70203 263.200239 
L 132.185875 263.24395 
L 132.669719 262.680335 
L 133.153564 263.370469 
L 133.637408 265.107326 
L 134.121253 264.502305 
L 134.605097 265.601935 
L 135.088942 265.542113 
L 135.572786 266.128739 
L 136.540475 264.876916 
L 137.02432 265.769129 
L 137.508164 267.079702 
L 137.992008 265.748315 
L 138.475853 266.048801 
L 138.959697 265.182025 
L 139.443542 265.214382 
L 139.927386 264.72437 
L 140.411231 265.667426 
L 141.37892 266.002579 
L 141.862764 265.071082 
L 142.346609 264.934708 
L 142.830453 264.562048 
L 143.314298 264.020613 
L 143.798142 264.069404 
L 144.281987 263.620922 
L 145.249676 263.200312 
L 145.73352 263.16778 
L 146.217364 262.184806 
L 146.701209 262.770411 
L 147.185053 262.749489 
L 147.668898 263.095739 
L 148.152742 262.145311 
L 148.636587 261.775815 
L 149.120431 261.665761 
L 149.604276 261.362064 
L 150.08812 261.327029 
L 150.571965 261.002321 
L 151.055809 260.497753 
L 152.023498 260.866835 
L 152.507343 260.065582 
L 153.475031 259.276005 
L 153.958876 259.789928 
L 154.44272 259.757218 
L 154.926565 260.138003 
L 155.410409 260.727833 
L 155.894254 259.897299 
L 156.378098 259.463245 
L 156.861943 259.531288 
L 157.345787 259.723672 
L 157.829632 259.315458 
L 158.313476 258.693714 
L 158.797321 259.216907 
L 160.248854 259.378793 
L 161.216543 260.765372 
L 162.184232 260.80323 
L 162.668076 259.126829 
L 163.151921 259.013651 
L 163.635765 259.652617 
L 164.11961 258.971215 
L 164.603454 260.209053 
L 165.087299 262.39001 
L 165.571143 262.852141 
L 166.054988 264.144213 
L 166.538832 262.887514 
L 167.022677 262.915802 
L 167.506521 263.370855 
L 167.990366 261.902256 
L 168.47421 263.793515 
L 168.958054 263.885939 
L 169.441899 263.279225 
L 169.925743 261.653411 
L 170.409588 261.321612 
L 170.893432 260.224305 
L 171.377277 260.963744 
L 171.861121 260.684082 
L 172.82881 263.129922 
L 173.312655 261.110681 
L 173.796499 260.828656 
L 174.280344 261.702914 
L 174.764188 260.558098 
L 175.248033 260.770365 
L 175.731877 260.243283 
L 176.215722 259.973769 
L 176.699566 259.232034 
L 177.18341 259.263035 
L 177.667255 258.614305 
L 178.151099 258.657236 
L 178.634944 258.168299 
L 180.086477 257.891654 
L 180.570322 257.093884 
L 181.054166 257.249593 
L 181.538011 256.971729 
L 182.021855 257.216058 
L 182.5057 257.850861 
L 182.989544 257.656832 
L 183.473389 257.072323 
L 183.957233 257.884405 
L 184.441077 258.217367 
L 184.924922 259.623511 
L 185.408766 259.058175 
L 185.892611 260.001996 
L 186.376455 258.818629 
L 186.8603 258.403009 
L 187.344144 258.566746 
L 187.827989 257.931058 
L 188.311833 258.077945 
L 189.279522 257.841966 
L 189.763367 257.309829 
L 190.247211 257.148479 
L 191.2149 256.467072 
L 192.182589 256.712675 
L 193.150278 255.248674 
L 193.634122 255.391053 
L 194.117967 255.851004 
L 194.601811 255.32571 
L 195.085656 256.112444 
L 195.5695 255.991392 
L 196.053345 256.485233 
L 196.537189 256.4344 
L 197.021034 257.257455 
L 197.504878 257.690762 
L 197.988723 256.485233 
L 198.472567 256.29158 
L 198.956412 256.228643 
L 199.440256 256.30367 
L 199.9241 255.891487 
L 200.407945 256.564366 
L 200.891789 255.018709 
L 201.375634 254.848072 
L 201.859478 254.540893 
L 202.343323 254.07281 
L 203.311012 253.694936 
L 203.794856 253.619359 
L 204.762545 253.619359 
L 205.24639 252.807544 
L 205.730234 252.543492 
L 206.214079 252.599822 
L 206.697923 252.337822 
L 207.181768 252.707564 
L 207.665612 251.816215 
L 208.149456 252.629211 
L 210.084834 249.822924 
L 211.052523 250.677556 
L 211.536368 250.346953 
L 212.020212 250.743669 
L 212.504057 251.543994 
L 212.987901 251.211655 
L 213.471746 250.571613 
L 213.95559 249.466296 
L 214.439435 249.057654 
L 214.923279 249.072428 
L 215.407123 248.619482 
L 215.890968 249.023192 
L 216.374812 249.879875 
L 216.858657 249.685391 
L 217.342501 250.416528 
L 217.826346 249.828175 
L 218.31019 249.018278 
L 218.794035 248.471255 
L 219.277879 248.918982 
L 219.761724 248.923929 
L 220.245568 248.585039 
L 220.729413 247.563406 
L 221.213257 247.177497 
L 221.697102 247.113182 
L 222.180946 246.846013 
L 222.664791 246.163292 
L 223.148635 245.975268 
L 224.116324 245.943115 
L 224.600168 246.643172 
L 225.084013 245.545926 
L 225.567857 244.976358 
L 226.051702 245.215136 
L 226.535546 244.904239 
L 227.019391 245.028577 
L 227.503235 246.209971 
L 227.98708 246.386575 
L 228.470924 246.01351 
L 228.954769 244.934087 
L 229.438613 244.966422 
L 230.406302 243.879515 
L 230.890146 244.774908 
L 231.373991 244.187502 
L 231.857835 244.364865 
L 232.34168 244.137517 
L 232.825524 245.359101 
L 233.309369 244.140028 
L 233.793213 244.165008 
L 234.277058 243.722841 
L 235.244747 243.725338 
L 236.69628 241.89422 
L 237.180125 242.206484 
L 237.663969 241.519777 
L 238.147814 241.549902 
L 238.631658 240.952509 
L 239.115502 241.3516 
L 239.599347 241.075488 
L 240.083191 241.072968 
L 240.567036 242.383248 
L 241.05088 242.197519 
L 241.534725 241.575009 
L 242.018569 240.704006 
L 242.502414 240.322453 
L 242.986258 240.222075 
L 243.470103 240.719057 
L 243.953947 240.089497 
L 244.437792 240.795606 
L 244.921636 241.143616 
L 245.405481 242.651668 
L 245.889325 243.173677 
L 246.373169 241.166325 
L 246.857014 239.847398 
L 247.340858 239.423734 
L 247.824703 239.19676 
L 248.308547 238.581431 
L 249.276236 238.24858 
L 249.760081 240.041583 
L 250.243925 238.334357 
L 250.72777 237.847484 
L 251.211614 238.61075 
L 251.695459 238.909968 
L 252.179303 239.574313 
L 252.663148 238.727392 
L 253.146992 240.127135 
L 253.630837 238.580321 
L 254.114681 237.507695 
L 254.598525 237.137483 
L 255.08237 237.284549 
L 255.566214 238.08585 
L 256.050059 238.509318 
L 256.533903 237.10978 
L 257.017748 238.299254 
L 257.501592 238.120963 
L 257.985437 237.204036 
L 258.469281 237.736346 
L 258.953126 236.793947 
L 259.43697 237.030814 
L 260.888504 236.452636 
L 261.856192 237.272805 
L 262.340037 237.211676 
L 262.823881 236.746725 
L 263.307726 237.000104 
L 263.79157 237.642526 
L 264.275415 237.599019 
L 264.759259 236.319299 
L 265.243104 237.465945 
L 265.726948 236.826066 
L 266.210793 237.478719 
L 266.694637 237.102478 
L 267.178482 240.068892 
L 267.662326 239.697761 
L 268.146171 241.410017 
L 268.630015 240.34787 
L 269.11386 240.41796 
L 269.597704 241.086876 
L 270.081548 240.533735 
L 270.565393 238.905191 
L 271.049237 238.406068 
L 271.533082 237.315225 
L 272.016926 237.20717 
L 272.500771 236.664311 
L 272.984615 238.593877 
L 273.46846 236.852134 
L 274.436149 236.772385 
L 274.919993 238.763685 
L 275.403838 238.935957 
L 275.887682 237.471102 
L 276.371527 237.939552 
L 276.855371 241.032295 
L 277.339215 242.095979 
L 278.306904 240.56644 
L 278.790749 242.059737 
L 279.274593 242.401371 
L 279.758438 241.011572 
L 280.242282 240.211859 
L 280.726127 238.829835 
L 281.693816 237.534756 
L 282.17766 237.86253 
L 282.661505 236.873977 
L 283.145349 237.503531 
L 283.629194 236.650272 
L 284.113038 236.340687 
L 284.596883 237.027469 
L 285.564571 237.4359 
L 286.048416 237.245974 
L 286.53226 236.010323 
L 287.499949 236.054542 
L 287.983794 236.698656 
L 288.467638 237.556336 
L 288.951483 235.809562 
L 289.919172 234.264154 
L 290.403016 233.895435 
L 290.886861 233.926815 
L 291.370705 233.649645 
L 292.338394 233.555496 
L 292.822238 233.882366 
L 293.306083 233.59994 
L 293.789927 234.930966 
L 294.273772 234.625583 
L 294.757616 233.937017 
L 295.241461 233.855526 
L 295.725305 234.186681 
L 296.20915 234.691289 
L 296.692994 234.465275 
L 297.176839 234.843727 
L 297.660683 235.892337 
L 298.144528 233.823991 
L 298.628372 233.277347 
L 299.112217 232.483634 
L 299.596061 232.967229 
L 300.079906 231.172198 
L 300.56375 231.20992 
L 301.047594 231.032805 
L 301.531439 231.609118 
L 302.015283 230.636253 
L 302.982972 230.760516 
L 303.466817 230.170964 
L 303.950661 230.073167 
L 304.434506 229.499491 
L 304.91835 228.553067 
L 305.886039 227.672733 
L 306.369884 227.865723 
L 306.853728 227.767594 
L 307.337573 228.609278 
L 307.821417 228.110132 
L 308.305262 228.253497 
L 308.789106 228.967728 
L 309.27295 228.415473 
L 309.756795 227.488821 
L 310.240639 227.058674 
L 311.208328 227.427735 
L 311.692173 226.525001 
L 312.176017 225.871828 
L 312.659862 226.073625 
L 313.627551 225.833165 
L 314.111395 226.188018 
L 314.59524 226.105309 
L 315.079084 225.184813 
L 315.562929 224.832611 
L 316.046773 224.82461 
L 316.530617 224.691208 
L 317.014462 225.569017 
L 317.498306 225.945216 
L 317.982151 225.451621 
L 318.465995 224.576487 
L 318.94984 224.912655 
L 319.433684 223.886346 
L 319.917529 223.819297 
L 320.401373 223.339333 
L 320.885218 222.497419 
L 321.369062 222.341912 
L 321.852907 221.762727 
L 322.820596 221.40341 
L 323.788285 221.561624 
L 324.272129 220.891307 
L 324.755973 219.791944 
L 325.239818 219.510404 
L 325.723662 218.877003 
L 326.207507 218.607515 
L 326.691351 218.782691 
L 327.175196 217.014735 
L 327.65904 215.801971 
L 328.142885 215.130915 
L 328.626729 213.468091 
L 329.110574 216.467641 
L 329.594418 220.227221 
L 330.078263 217.098278 
L 330.562107 216.667081 
L 331.045952 218.18438 
L 331.529796 215.545955 
L 332.01364 216.508577 
L 332.497485 220.878472 
L 332.981329 219.49851 
L 333.465174 220.4266 
L 333.949018 218.957356 
L 334.432863 218.562294 
L 334.916707 218.575827 
L 335.400552 218.721927 
L 335.884396 216.873852 
L 336.368241 217.285155 
L 336.852085 217.063254 
L 337.33593 216.670913 
L 337.819774 215.428944 
L 338.303619 215.379047 
L 338.787463 216.028636 
L 339.271308 216.96905 
L 340.238996 214.710426 
L 340.722841 214.685932 
L 341.69053 213.620516 
L 342.174374 213.740085 
L 343.142063 212.55776 
L 343.625908 211.796742 
L 344.109752 212.53335 
L 345.077441 210.980864 
L 345.561286 211.327618 
L 346.04513 212.119387 
L 346.528975 215.360249 
L 347.012819 215.278336 
L 347.496663 218.259796 
L 348.464352 214.866064 
L 348.948197 215.96635 
L 349.432041 218.827702 
L 349.915886 215.442153 
L 350.39973 218.740313 
L 350.883575 219.58671 
L 351.367419 224.600723 
L 351.851264 222.664631 
L 352.335108 221.390373 
L 353.302797 217.52643 
L 353.786642 217.71318 
L 354.270486 216.537792 
L 354.754331 216.425198 
L 355.238175 214.530304 
L 356.205864 213.692695 
L 356.689708 215.329465 
L 357.173553 213.107996 
L 357.657397 213.676225 
L 358.141242 212.785282 
L 358.625086 211.105455 
L 359.108931 210.666918 
L 359.592775 210.705506 
L 360.07662 209.770423 
L 360.560464 209.59944 
L 361.044309 211.235104 
L 361.528153 211.85848 
L 362.011998 212.70253 
L 362.495842 214.774033 
L 362.979686 211.359227 
L 363.463531 210.915144 
L 363.947375 209.213254 
L 364.43122 209.490438 
L 364.915064 207.977098 
L 365.398909 207.370079 
L 365.882753 208.334616 
L 366.366598 206.993111 
L 366.850442 209.595777 
L 367.334287 209.872952 
L 367.818131 210.640733 
L 368.301976 211.749404 
L 368.78582 209.6429 
L 369.269665 208.090718 
L 369.753509 207.248111 
L 370.237354 207.645192 
L 370.721198 208.447131 
L 371.205042 208.739501 
L 372.172731 207.731466 
L 374.108109 203.883248 
L 374.591954 204.114386 
L 375.075798 203.181542 
L 375.559643 203.025651 
L 376.043487 202.343385 
L 376.527332 200.954795 
L 377.011176 200.358784 
L 377.495021 200.484714 
L 377.978865 199.561267 
L 378.462709 197.815196 
L 378.946554 198.705029 
L 379.430398 200.67495 
L 379.914243 197.745213 
L 380.398087 196.234177 
L 380.881932 197.38703 
L 381.365776 207.802076 
L 381.849621 207.466293 
L 382.333465 215.340491 
L 382.81731 226.30244 
L 383.301154 219.372692 
L 383.784999 220.844774 
L 384.268843 212.397901 
L 384.752688 210.022331 
L 385.236532 211.055315 
L 385.720377 211.105932 
L 386.204221 208.389787 
L 386.688065 210.123651 
L 387.655754 205.045928 
L 388.139599 200.818268 
L 388.623443 205.076918 
L 389.107288 203.447718 
L 389.591132 205.876178 
L 390.074977 202.432826 
L 391.042666 199.749882 
L 391.52651 199.987372 
L 392.010355 198.392919 
L 392.494199 196.117138 
L 393.461888 194.729044 
L 393.945732 191.590981 
L 394.913421 196.261299 
L 395.88111 197.396108 
L 396.364955 195.945723 
L 396.848799 192.252974 
L 397.332644 192.128092 
L 397.816488 192.55668 
L 398.300333 198.017741 
L 398.784177 191.313488 
L 399.268022 189.059806 
L 399.751866 189.846006 
L 400.235711 187.478807 
L 400.719555 185.724697 
L 401.2034 186.732338 
L 401.687244 185.468189 
L 402.171088 185.519481 
L 402.654933 184.128436 
L 403.138777 182.024809 
L 403.622622 183.609678 
L 404.106466 181.56301 
L 404.590311 185.214482 
L 405.074155 180.186233 
L 405.558 178.78093 
L 406.041844 179.524925 
L 406.525689 182.281336 
L 407.009533 181.349251 
L 407.493378 178.376185 
L 407.977222 179.31806 
L 408.461067 177.459193 
L 408.944911 176.135104 
L 409.428755 173.023619 
L 409.9126 171.3735 
L 410.396444 171.522205 
L 410.880289 171.362051 
L 411.364133 169.983644 
L 411.847978 171.56797 
L 412.331822 172.036982 
L 412.815667 170.578447 
L 413.299511 169.84635 
L 413.783356 169.357327 
L 414.2672 171.654497 
L 414.751045 168.300416 
L 415.234889 166.260457 
L 415.718734 165.743984 
L 416.202578 166.943295 
L 416.686423 164.475788 
L 417.170267 164.886107 
L 418.137956 162.760042 
L 418.6218 163.494565 
L 419.105645 161.517693 
L 419.589489 160.705721 
L 420.073334 162.897786 
L 420.557178 163.651177 
L 421.041023 162.928702 
L 421.524867 165.712094 
L 422.008712 164.670117 
L 422.976401 160.277733 
L 423.460245 158.513271 
L 423.94409 155.842197 
L 424.427934 156.20484 
L 424.911778 155.738545 
L 425.395623 158.593905 
L 425.879467 160.191365 
L 426.363312 155.206033 
L 426.847156 157.8698 
L 427.331001 154.770447 
L 427.814845 153.511085 
L 428.29869 156.073148 
L 428.782534 156.46888 
L 429.266379 164.192664 
L 429.750223 163.045948 
L 430.234068 161.096244 
L 430.717912 163.476315 
L 431.201757 165.275862 
L 431.685601 164.259114 
L 432.169446 165.870861 
L 432.65329 169.365936 
L 433.137134 161.904741 
L 433.620979 159.537523 
L 434.104823 159.470838 
L 434.588668 161.020997 
L 435.556357 167.259217 
L 436.040201 171.327257 
L 436.524046 171.518486 
L 437.00789 174.305822 
L 437.491735 177.808851 
L 437.975579 170.382665 
L 438.459424 171.750298 
L 439.427113 184.238206 
L 439.910957 177.190253 
L 440.394801 179.762667 
L 440.878646 177.600525 
L 441.36249 178.63066 
L 441.846335 175.732336 
L 442.330179 170.814494 
L 442.814024 170.383808 
L 443.297868 166.41751 
L 443.781713 167.860859 
L 444.749402 176.561686 
L 445.233246 172.382959 
L 446.200935 183.190159 
L 446.68478 186.337084 
L 447.168624 184.697888 
L 447.652469 186.205598 
L 448.620157 177.033669 
L 449.104002 180.735749 
L 449.587846 174.260769 
L 450.071691 174.985399 
L 450.555535 173.144604 
L 451.03938 171.80635 
L 451.523224 175.78894 
L 452.007069 178.199552 
L 452.974758 178.446111 
L 453.458602 176.787635 
L 453.942447 173.728998 
L 454.426291 174.498053 
L 454.910136 171.621426 
L 455.39398 169.663544 
L 455.877824 170.928658 
L 456.361669 171.157623 
L 456.845513 174.351296 
L 457.329358 172.058773 
L 457.813202 177.424585 
L 458.780891 174.092868 
L 459.264736 170.073788 
L 459.74858 170.132706 
L 460.232425 169.169199 
L 460.716269 169.245805 
L 461.200114 168.146737 
L 461.683958 169.119106 
L 462.167803 169.425529 
L 462.651647 167.354129 
L 463.135492 166.941627 
L 463.619336 164.613822 
L 464.10318 164.030431 
L 464.587025 160.732514 
L 465.070869 162.580964 
L 465.554714 159.602765 
L 466.038558 161.00166 
L 466.522403 157.828269 
L 467.006247 156.970588 
L 467.490092 155.568742 
L 467.973936 158.558764 
L 468.457781 158.901836 
L 468.941625 161.607948 
L 469.42547 160.581692 
L 469.909314 157.263399 
L 470.393159 158.940294 
L 470.877003 159.11361 
L 471.360847 162.957051 
L 471.844692 163.829637 
L 472.812381 162.636547 
L 473.78007 168.815765 
L 474.263914 161.689772 
L 474.747759 159.932768 
L 475.231603 156.911417 
L 476.199292 154.445081 
L 476.683137 154.118601 
L 477.166981 150.844143 
L 477.650826 149.556816 
L 478.13467 149.062115 
L 478.618515 151.264299 
L 479.102359 148.653867 
L 480.553892 143.388297 
L 481.037737 141.347025 
L 481.521581 141.850626 
L 482.005426 139.365356 
L 482.48927 137.875381 
L 482.973115 138.212111 
L 483.456959 138.303275 
L 483.940804 134.901556 
L 484.424648 134.345577 
L 484.908493 135.732556 
L 485.392337 137.998379 
L 485.876182 142.688446 
L 486.360026 138.772587 
L 486.84387 137.866846 
L 487.811559 132.438396 
L 488.295404 132.44145 
L 488.779248 133.06018 
L 489.263093 131.075363 
L 489.746937 128.453811 
L 490.230782 127.411571 
L 490.714626 127.498548 
L 491.198471 124.373742 
L 491.682315 122.769359 
L 492.16616 126.068099 
L 492.650004 127.432557 
L 493.133849 130.89324 
L 493.617693 130.866278 
L 494.101538 124.47271 
L 494.585382 122.127602 
L 495.069226 121.662758 
L 495.553071 128.656113 
L 496.036915 122.163576 
L 496.52076 119.769602 
L 497.004604 118.801037 
L 497.488449 118.346798 
L 497.972293 116.361457 
L 498.456138 114.854449 
L 498.939982 116.523906 
L 499.423827 118.93034 
L 499.907671 110.763457 
L 500.391516 114.505494 
L 500.87536 111.569649 
L 501.359205 109.451988 
L 501.843049 107.869733 
L 502.326893 108.952631 
L 502.810738 112.282643 
L 503.294582 111.117622 
L 503.778427 112.0412 
L 504.262271 115.500047 
L 504.746116 110.341971 
L 505.22996 107.206091 
L 505.713805 109.06226 
L 506.197649 109.379157 
L 506.681494 106.683913 
L 507.165338 109.629688 
L 507.649183 111.368152 
L 508.133027 116.879363 
L 508.616872 120.836199 
L 509.100716 119.971005 
L 509.584561 122.489711 
L 510.068405 137.741019 
L 510.552249 129.064895 
L 511.036094 131.344406 
L 511.519938 124.009366 
L 512.003783 119.129438 
L 512.487627 119.862013 
L 512.971472 110.822628 
L 513.455316 115.390774 
L 514.423005 109.327162 
L 514.90685 109.974971 
L 515.390694 110.266555 
L 515.874539 104.00289 
L 516.358383 100.836094 
L 516.842228 101.358328 
L 517.326072 100.155964 
L 517.809916 97.265519 
L 518.293761 101.935218 
L 518.777605 97.241236 
L 519.26145 95.340566 
L 519.745294 94.772782 
L 520.229139 94.851721 
L 520.712983 94.186786 
L 521.680672 88.630513 
L 522.164517 89.202906 
L 522.648361 86.952925 
L 523.132206 91.882187 
L 524.099895 84.505045 
L 524.583739 83.040589 
L 525.067584 86.417088 
L 525.551428 86.124792 
L 526.035272 90.052362 
L 526.519117 82.635647 
L 527.002961 81.935394 
L 527.486806 83.131913 
L 527.97065 82.875836 
L 528.454495 79.907726 
L 528.938339 82.088025 
L 529.422184 78.759567 
L 530.389873 80.237532 
L 530.873717 79.400818 
L 531.357562 79.813067 
L 531.841406 82.521634 
L 532.325251 80.176432 
L 532.809095 81.226896 
L 533.292939 85.382887 
L 534.260628 92.112669 
L 534.744473 96.546397 
L 535.712162 82.654272 
L 536.196006 73.260161 
L 536.679851 72.096619 
L 537.163695 70.042045 
L 537.64754 64.845895 
L 538.131384 64.371289 
L 538.615229 62.390201 
L 539.099073 59.071037 
L 539.582918 64.86733 
L 540.066762 63.581305 
L 540.550607 61.464337 
L 541.034451 66.913322 
L 541.518295 61.455118 
L 541.518295 61.455118 
" clip-path="url(#p45658dabb7)" style="fill: none; stroke: #b6892b; stroke-width: 2.1; stroke-linecap: square"/>
   </g>
   <g id="line2d_26">
    <path d="M 59.609205 257.727583 
L 60.093049 258.035175 
L 61.544582 257.817876 
L 62.028427 257.961903 
L 63.963805 257.414056 
L 64.447649 257.602903 
L 64.931494 257.353366 
L 65.415338 257.299396 
L 66.383027 256.76575 
L 67.350716 256.931695 
L 67.834561 256.826702 
L 68.318405 257.077003 
L 68.802249 256.879756 
L 69.286094 256.444401 
L 70.253783 256.363304 
L 71.705316 256.124268 
L 72.189161 255.868125 
L 73.15685 256.284022 
L 73.640694 256.160573 
L 75.576072 255.155239 
L 76.059916 255.234433 
L 76.543761 255.102031 
L 77.027605 255.184992 
L 77.51145 255.461505 
L 77.995294 255.585947 
L 78.479139 255.122782 
L 78.962983 255.451358 
L 79.930672 254.819871 
L 80.414517 255.021137 
L 81.382206 254.893717 
L 81.86605 255.168953 
L 82.349895 255.315238 
L 82.833739 255.080165 
L 83.317584 254.9753 
L 83.801428 255.087125 
L 84.285272 255.076608 
L 84.769117 255.412119 
L 85.252961 255.273889 
L 85.736806 255.898413 
L 86.704495 255.494915 
L 87.188339 255.630957 
L 87.672184 255.402031 
L 88.156028 255.842274 
L 88.639873 255.673227 
L 89.123717 255.380326 
L 89.607562 255.451083 
L 90.091406 255.263646 
L 91.059095 255.076277 
L 92.026784 254.773111 
L 92.510628 254.847611 
L 92.994473 255.660574 
L 93.478317 255.553494 
L 93.962162 259.195998 
L 94.446006 257.168019 
L 95.89754 255.953952 
L 96.865229 256.122146 
L 97.349073 255.467198 
L 98.800607 254.053798 
L 99.284451 253.446447 
L 99.768295 253.354125 
L 100.25214 253.729241 
L 100.735984 253.336102 
L 101.219829 253.942061 
L 101.703673 253.866286 
L 102.187518 254.160935 
L 102.671362 253.856912 
L 103.155207 254.15009 
L 103.639051 254.255073 
L 104.122896 254.132681 
L 104.60674 254.143581 
L 105.090585 253.903874 
L 105.574429 254.212593 
L 106.542118 254.107754 
L 107.025962 254.016681 
L 107.509807 253.736056 
L 107.993651 253.806127 
L 108.477496 253.711073 
L 108.96134 253.341819 
L 109.445185 253.520952 
L 109.929029 253.400321 
L 110.412874 254.006103 
L 111.864407 253.21771 
L 112.348252 253.16903 
L 112.832096 252.84893 
L 113.315941 253.110185 
L 113.799785 253.029208 
L 114.28363 252.767994 
L 114.767474 253.202084 
L 115.251318 252.633654 
L 115.735163 252.681616 
L 117.186696 252.100674 
L 117.670541 252.100674 
L 118.154385 251.897009 
L 118.63823 251.833273 
L 119.122074 252.00416 
L 120.089763 251.937286 
L 120.573608 251.76268 
L 121.057452 251.805895 
L 122.508985 251.328908 
L 123.476674 251.582267 
L 123.960519 251.533629 
L 124.444363 251.862686 
L 124.928208 252.003734 
L 126.379741 251.527481 
L 127.34743 251.427258 
L 127.831275 251.57022 
L 128.315119 251.577728 
L 128.798964 251.378389 
L 130.250497 251.173432 
L 130.734341 251.373465 
L 131.70203 251.418453 
L 132.185875 251.176225 
L 132.669719 251.244364 
L 133.153564 250.99831 
L 133.637408 251.062105 
L 134.605097 250.49638 
L 135.088942 250.568504 
L 137.992008 249.933543 
L 138.475853 249.669991 
L 138.959697 249.669991 
L 139.443542 249.509541 
L 140.411231 249.34336 
L 140.895075 249.224642 
L 141.37892 249.289735 
L 141.862764 249.218381 
L 142.346609 249.418101 
L 144.281987 248.808979 
L 144.765831 249.116952 
L 145.249676 248.932167 
L 145.73352 248.912915 
L 146.217364 248.77938 
L 146.701209 249.207798 
L 148.152742 249.477915 
L 148.636587 249.850359 
L 149.604276 249.842569 
L 150.08812 249.541702 
L 150.571965 249.635141 
L 151.055809 249.549514 
L 151.539654 249.596179 
L 152.023498 249.498917 
L 152.507343 249.999904 
L 152.991187 249.984343 
L 153.475031 249.832037 
L 153.958876 249.535367 
L 154.44272 249.592344 
L 154.926565 249.353553 
L 155.410409 249.240036 
L 155.894254 249.502273 
L 156.378098 249.493132 
L 156.861943 249.650195 
L 157.345787 249.300766 
L 157.829632 249.179024 
L 158.797321 248.700998 
L 159.76501 248.571073 
L 160.732699 248.317677 
L 162.184232 248.195228 
L 162.668076 248.56088 
L 163.635765 248.089592 
L 164.11961 248.105425 
L 165.571143 247.315717 
L 166.054988 247.001963 
L 166.538832 247.26016 
L 167.022677 246.94102 
L 167.506521 246.857447 
L 167.990366 246.984806 
L 168.47421 246.829593 
L 168.958054 246.877333 
L 169.441899 247.140958 
L 169.925743 247.256628 
L 170.409588 247.069173 
L 170.893432 247.029277 
L 171.377277 246.719142 
L 172.82881 246.867118 
L 173.796499 246.730676 
L 174.280344 246.465393 
L 174.764188 246.577926 
L 175.248033 246.373676 
L 175.731877 246.425946 
L 176.215722 246.253063 
L 176.699566 246.482264 
L 177.667255 246.138712 
L 178.634944 246.227373 
L 179.602633 246.051194 
L 180.086477 246.176481 
L 180.570322 246.544187 
L 181.538011 246.313843 
L 182.021855 246.304535 
L 182.5057 246.008917 
L 185.408766 245.688535 
L 185.892611 245.315728 
L 186.376455 245.600436 
L 186.8603 245.405205 
L 187.344144 245.543483 
L 188.311833 245.23274 
L 189.279522 244.890443 
L 190.731056 245.025348 
L 191.2149 245.286623 
L 192.182589 244.821189 
L 193.150278 245.140669 
L 194.117967 244.698862 
L 194.601811 244.855821 
L 195.085656 244.667295 
L 195.5695 244.818944 
L 198.956412 244.564692 
L 199.9241 244.787836 
L 200.407945 244.62637 
L 200.891789 244.829255 
L 201.859478 244.7713 
L 202.827167 245.094022 
L 203.311012 244.953006 
L 204.278701 244.940541 
L 204.762545 244.70857 
L 205.24639 245.057726 
L 207.181768 244.375383 
L 208.149456 244.35872 
L 208.633301 244.254557 
L 210.568679 244.842223 
L 211.052523 245.163617 
L 211.536368 245.291162 
L 212.020212 245.220071 
L 212.504057 246.127395 
L 212.987901 245.876516 
L 213.471746 246.367455 
L 214.439435 245.663724 
L 215.407123 245.858697 
L 215.890968 245.732783 
L 216.374812 246.286797 
L 217.342501 246.12729 
L 217.826346 246.435086 
L 218.31019 246.262675 
L 218.794035 245.80859 
L 219.277879 245.589935 
L 220.245568 245.602114 
L 220.729413 245.311425 
L 221.213257 245.206102 
L 222.180946 245.628013 
L 222.664791 245.40014 
L 223.148635 245.450778 
L 223.632479 245.366411 
L 224.116324 245.623025 
L 226.051702 245.572229 
L 226.535546 245.334998 
L 227.503235 245.131683 
L 227.98708 244.924105 
L 229.438613 244.951278 
L 229.922458 244.751812 
L 230.406302 245.00693 
L 230.890146 244.811314 
L 231.373991 244.955894 
L 232.825524 244.511003 
L 233.309369 244.613221 
L 233.793213 244.528038 
L 234.277058 244.319912 
L 234.760902 244.315618 
L 235.244747 244.097984 
L 235.728591 244.085184 
L 236.212436 243.89737 
L 236.69628 244.14668 
L 237.663969 244.121017 
L 238.147814 243.928592 
L 238.631658 244.174502 
L 239.115502 243.943183 
L 241.05088 243.762756 
L 241.534725 243.543906 
L 242.018569 243.685503 
L 242.502414 243.505266 
L 242.986258 243.683671 
L 243.470103 244.001823 
L 243.953947 243.980309 
L 244.921636 243.632241 
L 245.889325 243.106874 
L 246.857014 243.296315 
L 248.308547 243.291141 
L 248.792392 242.984837 
L 249.276236 243.29106 
L 249.760081 242.884515 
L 250.72777 243.079333 
L 251.695459 242.519516 
L 253.146992 241.933668 
L 253.630837 242.430923 
L 254.598525 242.652566 
L 255.08237 242.370048 
L 255.566214 242.942135 
L 256.050059 242.663502 
L 256.533903 242.236835 
L 257.017748 242.293389 
L 257.501592 242.096888 
L 257.985437 242.175406 
L 258.469281 241.992208 
L 258.953126 242.066346 
L 259.43697 242.482744 
L 260.404659 242.543923 
L 260.888504 242.723126 
L 261.372348 242.557068 
L 261.856192 243.176142 
L 262.340037 243.162988 
L 262.823881 242.887158 
L 263.307726 243.324998 
L 263.79157 243.12983 
L 264.275415 243.156128 
L 265.726948 242.664804 
L 266.694637 242.760188 
L 267.178482 242.456904 
L 267.662326 242.790962 
L 268.146171 242.574211 
L 268.630015 242.666685 
L 269.11386 242.569781 
L 269.597704 242.644658 
L 270.081548 242.25454 
L 270.565393 242.457507 
L 271.049237 242.263346 
L 271.533082 242.272169 
L 272.016926 242.404535 
L 272.500771 242.840076 
L 273.46846 242.67647 
L 273.952304 242.610163 
L 274.436149 242.681195 
L 274.919993 242.481542 
L 275.887682 242.684686 
L 276.371527 242.684686 
L 276.855371 242.395734 
L 277.339215 242.275683 
L 277.82306 242.315702 
L 278.306904 242.088967 
L 280.242282 241.715644 
L 280.726127 241.876021 
L 281.209971 241.85817 
L 281.693816 241.523382 
L 282.17766 241.550143 
L 283.145349 241.107071 
L 283.629194 241.075767 
L 284.113038 241.268123 
L 285.564571 240.871839 
L 286.048416 241.167588 
L 286.53226 241.127261 
L 287.016105 240.728596 
L 288.467638 240.468205 
L 288.951483 240.027069 
L 289.435327 239.757165 
L 289.919172 240.202527 
L 290.886861 239.860634 
L 291.370705 240.15042 
L 291.85455 239.943096 
L 292.822238 240.07378 
L 293.306083 239.993616 
L 293.789927 240.255485 
L 294.273772 240.223892 
L 295.241461 239.943953 
L 295.725305 240.232094 
L 296.20915 240.327071 
L 296.692994 240.11898 
L 297.176839 240.422056 
L 297.660683 240.290738 
L 298.144528 241.192603 
L 298.628372 241.591381 
L 299.112217 241.682018 
L 300.079906 241.739271 
L 300.56375 242.016239 
L 302.015283 241.420979 
L 302.499128 241.361817 
L 302.982972 241.516549 
L 303.950661 241.449258 
L 304.434506 241.244043 
L 304.91835 241.289652 
L 305.402195 240.997811 
L 306.369884 241.673821 
L 307.337573 241.189501 
L 308.305262 241.051364 
L 308.789106 240.671294 
L 309.756795 240.680485 
L 310.240639 240.823174 
L 310.724484 240.722235 
L 311.208328 240.446903 
L 311.692173 240.483621 
L 312.176017 240.19422 
L 312.659862 240.322981 
L 313.143706 240.14823 
L 313.627551 240.097656 
L 314.59524 240.523367 
L 315.562929 240.053371 
L 316.046773 240.154759 
L 317.982151 239.854567 
L 318.465995 239.817868 
L 318.94984 239.600397 
L 319.433684 239.845621 
L 320.885218 240.032174 
L 321.369062 239.763268 
L 321.852907 240.022888 
L 322.336751 240.050733 
L 322.820596 239.847421 
L 323.30444 240.061157 
L 324.272129 239.810278 
L 325.239818 239.86057 
L 325.723662 239.7302 
L 326.207507 239.992795 
L 326.691351 239.77853 
L 327.65904 240.053317 
L 328.142885 240.314162 
L 328.626729 240.225683 
L 329.110574 240.658616 
L 329.594418 240.864018 
L 331.045952 240.894446 
L 331.529796 240.936532 
L 332.01364 240.782167 
L 332.497485 240.824231 
L 332.981329 240.524809 
L 333.949018 240.62189 
L 334.432863 240.997027 
L 335.884396 240.950026 
L 336.368241 241.213224 
L 336.852085 240.827844 
L 337.33593 240.729748 
L 337.819774 240.885197 
L 339.271308 240.616707 
L 340.238996 240.418892 
L 341.206685 240.621881 
L 342.658219 240.323239 
L 343.142063 240.19549 
L 345.077441 240.687431 
L 345.561286 240.658979 
L 346.04513 241.104912 
L 346.528975 240.905256 
L 347.012819 241.085892 
L 347.496663 240.833929 
L 347.980508 241.003765 
L 348.464352 240.951205 
L 348.948197 240.70277 
L 349.432041 240.707553 
L 349.915886 240.597682 
L 350.39973 240.190139 
L 350.883575 240.151835 
L 352.335108 239.509043 
L 353.302797 239.672181 
L 354.270486 239.246339 
L 354.754331 239.068351 
L 355.722019 239.039536 
L 356.205864 239.281687 
L 356.689708 238.895881 
L 357.173553 238.765674 
L 357.657397 238.32204 
L 358.141242 238.105026 
L 358.625086 238.307081 
L 359.592775 238.403754 
L 360.07662 238.152394 
L 360.560464 238.205548 
L 362.011998 237.687087 
L 362.495842 237.207365 
L 362.979686 237.017942 
L 363.463531 236.998504 
L 363.947375 236.731384 
L 364.43122 236.619676 
L 364.915064 236.623539 
L 365.398909 236.76963 
L 365.882753 236.584641 
L 366.366598 236.565158 
L 367.818131 235.238041 
L 368.301976 235.18437 
L 368.78582 235.013605 
L 369.269665 235.109942 
L 369.753509 236.048963 
L 370.237354 235.476768 
L 370.721198 235.369154 
L 371.205042 234.910875 
L 371.688887 235.445169 
L 372.172731 235.410837 
L 372.656576 235.49908 
L 373.14042 235.224062 
L 373.624265 235.77428 
L 374.591954 235.253552 
L 376.527332 235.309059 
L 377.495021 234.968753 
L 378.462709 234.94903 
L 379.430398 234.159948 
L 379.914243 234.25234 
L 380.398087 234.217767 
L 380.881932 233.916274 
L 381.365776 233.263928 
L 381.849621 232.333367 
L 382.333465 235.304806 
L 382.81731 236.211095 
L 383.301154 233.467466 
L 383.784999 233.636499 
L 384.268843 232.509872 
L 385.720377 232.581344 
L 386.204221 232.785231 
L 387.17191 232.29786 
L 387.655754 232.193439 
L 388.139599 232.460464 
L 388.623443 232.121677 
L 390.074977 231.706467 
L 392.494199 230.984114 
L 392.978044 231.599135 
L 393.461888 231.359124 
L 393.945732 231.64415 
L 394.913421 231.416472 
L 396.848799 231.64098 
L 397.332644 231.555688 
L 398.300333 231.901875 
L 398.784177 231.503868 
L 399.268022 231.584272 
L 399.751866 231.257605 
L 400.235711 231.272694 
L 400.719555 231.50642 
L 401.2034 231.284927 
L 401.687244 231.342851 
L 402.654933 231.141272 
L 403.138777 231.700641 
L 404.106466 231.614981 
L 404.590311 231.584743 
L 405.074155 231.79068 
L 405.558 231.856311 
L 407.009533 232.922103 
L 407.977222 233.311419 
L 408.944911 232.956182 
L 409.9126 232.703004 
L 410.396444 232.596683 
L 410.880289 232.728327 
L 411.364133 232.579721 
L 411.847978 232.736929 
L 412.815667 232.610145 
L 413.299511 232.459335 
L 413.783356 232.179972 
L 414.2672 232.149512 
L 414.751045 232.367895 
L 415.234889 232.034617 
L 417.170267 231.475185 
L 417.654111 231.731368 
L 418.6218 231.542925 
L 420.557178 231.605582 
L 422.008712 232.401642 
L 422.492556 232.176885 
L 422.976401 232.437412 
L 423.94409 231.75228 
L 424.427934 232.212763 
L 425.395623 232.110419 
L 425.879467 231.745805 
L 426.363312 232.176182 
L 426.847156 231.977745 
L 427.814845 232.193162 
L 428.29869 233.008642 
L 428.782534 233.172746 
L 429.266379 233.141991 
L 429.750223 233.357395 
L 430.234068 233.911576 
L 431.201757 234.27112 
L 431.685601 234.425213 
L 432.169446 233.967487 
L 432.65329 234.939639 
L 433.137134 235.099114 
L 433.620979 236.12783 
L 434.104823 235.711355 
L 434.588668 236.751919 
L 435.556357 237.674024 
L 436.040201 237.71007 
L 436.524046 238.287539 
L 437.975579 236.966466 
L 438.459424 237.546918 
L 438.943268 238.353411 
L 439.427113 238.829021 
L 439.910957 238.461963 
L 440.394801 237.698127 
L 440.878646 238.273012 
L 442.330179 236.802121 
L 442.814024 237.404061 
L 443.297868 237.191292 
L 443.781713 237.777679 
L 444.265557 237.974869 
L 444.749402 238.517819 
L 445.233246 238.819399 
L 445.717091 239.313385 
L 446.200935 240.16093 
L 446.68478 240.608115 
L 447.168624 240.795194 
L 448.136313 241.837431 
L 448.620157 241.081811 
L 449.104002 241.428229 
L 449.587846 240.294824 
L 450.071691 240.038903 
L 450.555535 239.495708 
L 451.03938 238.723334 
L 451.523224 238.985068 
L 452.007069 238.573735 
L 452.490913 239.297806 
L 452.974758 239.811992 
L 453.458602 238.710158 
L 453.942447 238.274662 
L 454.910136 238.190708 
L 455.39398 238.198779 
L 455.877824 238.935133 
L 456.361669 239.156073 
L 456.845513 239.613668 
L 457.329358 239.516873 
L 457.813202 238.98436 
L 458.297047 238.240928 
L 458.780891 237.892946 
L 459.264736 238.167126 
L 459.74858 237.611031 
L 460.232425 238.16076 
L 460.716269 238.282334 
L 461.200114 237.864753 
L 462.167803 238.034869 
L 462.651647 238.729056 
L 463.135492 238.999291 
L 463.619336 238.587332 
L 464.10318 238.651087 
L 465.070869 238.497008 
L 465.554714 238.661711 
L 466.038558 239.282295 
L 466.522403 238.531195 
L 467.006247 238.504584 
L 467.973936 239.062298 
L 468.941625 239.628481 
L 469.909314 239.26599 
L 471.360847 239.796208 
L 472.328536 240.891894 
L 472.812381 240.413927 
L 473.296225 241.294671 
L 473.78007 240.97782 
L 474.263914 239.971702 
L 474.747759 240.090198 
L 475.231603 239.395344 
L 475.715448 239.449192 
L 476.199292 238.395361 
L 476.683137 238.362942 
L 477.166981 237.237399 
L 477.650826 237.161543 
L 478.13467 236.934024 
L 478.618515 237.50286 
L 479.102359 237.01529 
L 479.586203 237.600371 
L 480.070048 237.573284 
L 480.553892 237.203838 
L 481.037737 237.654813 
L 481.521581 237.942795 
L 482.005426 237.812379 
L 482.48927 237.552999 
L 482.973115 237.149741 
L 483.456959 237.787337 
L 483.940804 237.394956 
L 484.424648 237.329556 
L 485.392337 238.253284 
L 485.876182 238.570284 
L 486.360026 238.597625 
L 486.84387 237.964196 
L 487.327715 237.936778 
L 487.811559 237.646193 
L 488.779248 237.783261 
L 489.263093 237.562167 
L 489.746937 236.847168 
L 490.230782 236.935171 
L 490.714626 237.314675 
L 491.682315 236.42036 
L 492.16616 236.607942 
L 492.650004 236.458982 
L 493.133849 235.179754 
L 493.617693 235.611405 
L 494.585382 234.936252 
L 495.069226 235.224021 
L 495.553071 234.529 
L 496.036915 234.223693 
L 496.52076 234.368011 
L 497.004604 234.356915 
L 497.488449 235.043081 
L 497.972293 235.299215 
L 498.456138 235.288075 
L 498.939982 235.805938 
L 499.423827 236.118427 
L 499.907671 235.682736 
L 500.391516 236.151929 
L 500.87536 236.068156 
L 501.359205 235.29172 
L 501.843049 235.044065 
L 502.326893 235.83414 
L 502.810738 236.196319 
L 503.294582 236.376211 
L 503.778427 236.280654 
L 504.262271 236.769716 
L 504.746116 236.218808 
L 505.22996 236.16823 
L 506.681494 235.598165 
L 507.165338 235.417679 
L 507.649183 234.723941 
L 508.133027 235.061123 
L 508.616872 235.100728 
L 509.100716 234.840482 
L 509.584561 234.846145 
L 510.068405 234.247665 
L 510.552249 235.621289 
L 511.519938 234.735816 
L 512.487627 235.03214 
L 512.971472 235.08908 
L 513.455316 235.328256 
L 513.939161 234.838523 
L 514.423005 235.12247 
L 514.90685 234.733966 
L 515.390694 234.585423 
L 515.874539 234.25404 
L 516.358383 234.261082 
L 516.842228 234.501813 
L 517.326072 234.467431 
L 517.809916 234.272549 
L 518.293761 233.686261 
L 518.777605 233.801288 
L 519.26145 233.801288 
L 519.745294 233.536734 
L 520.229139 233.502224 
L 520.712983 232.944271 
L 521.196828 232.690381 
L 522.164517 232.961577 
L 523.61605 232.258576 
L 524.099895 232.154382 
L 524.583739 232.501702 
L 525.551428 232.625407 
L 526.519117 232.149176 
L 527.002961 232.419529 
L 527.486806 232.547719 
L 528.454495 232.218989 
L 528.938339 232.330066 
L 529.422184 232.148832 
L 530.389873 232.178068 
L 530.873717 232.166374 
L 531.357562 231.975763 
L 531.841406 231.471371 
L 532.325251 231.524153 
L 532.809095 231.230903 
L 533.776784 232.333449 
L 534.260628 232.657032 
L 534.744473 232.727634 
L 535.228317 232.122815 
L 535.712162 232.069684 
L 536.196006 231.756805 
L 537.163695 232.122556 
L 537.64754 231.956711 
L 538.131384 232.643797 
L 539.099073 232.027788 
L 539.582918 232.360001 
L 540.066762 232.009361 
L 540.550607 231.92616 
L 541.034451 231.664671 
L 541.518295 231.878615 
L 541.518295 231.878615 
" clip-path="url(#p45658dabb7)" style="fill: none; stroke: #3f6f8f; stroke-width: 1.5; stroke-linecap: square"/>
   </g>
   <g id="line2d_27">
    <path d="M 59.609205 256.741063 
L 60.093049 257.875834 
L 60.576893 257.553806 
L 61.060738 257.589587 
L 61.544582 257.850278 
L 62.028427 257.497578 
L 62.512271 256.95064 
L 62.996116 256.158343 
L 63.47996 257.267555 
L 63.963805 256.613274 
L 64.447649 256.674614 
L 64.931494 257.472019 
L 65.415338 256.909746 
L 65.899183 256.700173 
L 66.383027 255.233149 
L 66.866872 254.926455 
L 67.350716 253.725235 
L 67.834561 253.127178 
L 68.318405 253.183405 
L 69.286094 252.007745 
L 70.253783 249.896661 
L 70.737627 248.695441 
L 71.221472 250.95987 
L 71.705316 249.170818 
L 72.189161 251.179668 
L 72.673005 250.525386 
L 73.15685 250.56628 
L 73.640694 249.75865 
L 74.124539 248.276291 
L 74.608383 247.187527 
L 75.092228 245.42403 
L 75.576072 246.016975 
L 76.059916 244.544838 
L 76.543761 245.03044 
L 77.027605 244.187029 
L 77.51145 245.13267 
L 77.995294 242.965362 
L 78.479139 241.539232 
L 78.962983 241.585238 
L 79.446828 240.246003 
L 79.930672 244.744189 
L 80.414517 243.737212 
L 80.898361 244.570398 
L 81.382206 244.03368 
L 81.86605 244.381268 
L 82.833739 247.468661 
L 83.317584 246.016975 
L 83.801428 245.15823 
L 84.285272 244.069461 
L 84.769117 246.001641 
L 85.252961 245.178677 
L 85.736806 246.829714 
L 86.704495 243.946784 
L 87.188339 243.645203 
L 87.672184 242.060611 
L 88.156028 242.56666 
L 89.123717 244.917985 
L 89.607562 247.545336 
L 90.091406 251.02121 
L 90.575251 249.257713 
L 91.059095 248.935685 
L 91.542939 250.331144 
L 92.026784 252.084415 
L 92.510628 246.75304 
L 92.994473 246.415677 
L 93.478317 248.485868 
L 93.962162 248.163836 
L 94.929851 253.791684 
L 95.413695 254.236393 
L 95.89754 253.643448 
L 96.381384 253.23452 
L 96.865229 250.397597 
L 97.349073 249.651307 
L 97.832918 252.610911 
L 98.316762 249.395728 
L 98.800607 248.465421 
L 99.284451 246.947282 
L 99.768295 246.62525 
L 100.25214 247.806027 
L 100.735984 248.424528 
L 101.219829 245.44959 
L 101.703673 244.028572 
L 102.187518 244.907764 
L 102.671362 243.394733 
L 103.155207 240.711155 
L 103.639051 243.353843 
L 104.122896 243.527635 
L 104.60674 244.03368 
L 105.090585 242.863132 
L 106.058274 245.930079 
L 107.025962 247.141521 
L 107.509807 244.841311 
L 107.993651 246.25722 
L 108.477496 244.708408 
L 108.96134 243.905891 
L 109.929029 241.52901 
L 110.412874 242.801792 
L 110.896718 243.588976 
L 111.380563 243.726986 
L 111.864407 243.527635 
L 112.348252 244.05924 
L 112.832096 244.912872 
L 113.315941 243.711652 
L 113.799785 242.955137 
L 114.28363 242.985809 
L 114.767474 242.781345 
L 115.251318 243.164714 
L 115.735163 242.83246 
L 116.219007 242.720005 
L 116.702852 240.84917 
L 117.186696 240.210222 
L 117.670541 240.26645 
L 118.154385 241.120083 
L 118.63823 240.419795 
L 119.122074 238.134923 
L 120.089763 237.80267 
L 120.573608 238.293381 
L 121.057452 235.788707 
L 121.541297 234.607934 
L 122.025141 232.972226 
L 122.508985 231.888574 
L 122.99283 232.55819 
L 123.476674 234.822619 
L 124.444363 235.31333 
L 124.928208 235.850047 
L 125.412052 233.774744 
L 125.895897 234.035435 
L 126.379741 235.921609 
L 127.34743 237.194391 
L 128.315119 234.745944 
L 128.798964 234.766391 
L 129.282808 234.060995 
L 129.766653 235.522906 
L 130.734341 235.195766 
L 131.218186 234.342129 
L 131.70203 232.614417 
L 132.185875 233.841197 
L 133.153564 231.735225 
L 133.637408 230.247758 
L 134.121253 229.174324 
L 134.605097 231.806787 
L 135.088942 229.935952 
L 135.572786 229.77749 
L 136.056631 229.358341 
L 136.540475 227.916876 
L 137.02432 227.952657 
L 137.508164 230.135303 
L 137.992008 230.201752 
L 138.475853 231.06561 
L 139.443542 231.668776 
L 139.927386 230.467556 
L 140.411231 230.007514 
L 141.37892 228.847183 
L 141.862764 228.4127 
L 142.346609 228.479149 
L 143.314298 225.943807 
L 144.765831 222.370819 
L 145.249676 224.389891 
L 145.73352 222.912645 
L 146.217364 220.990687 
L 146.701209 222.365702 
L 147.185053 223.12733 
L 147.668898 222.662175 
L 148.152742 220.126829 
L 148.636587 221.48651 
L 149.120431 222.105015 
L 149.604276 221.869879 
L 150.08812 219.794579 
L 150.571965 222.42193 
L 151.055809 222.87686 
L 151.539654 223.725384 
L 152.023498 224.108752 
L 152.507343 223.403352 
L 152.991187 223.065986 
L 153.475031 221.48651 
L 154.44272 219.472548 
L 154.926565 220.050158 
L 155.410409 219.973488 
L 155.894254 219.518558 
L 156.378098 219.549226 
L 156.861943 217.269459 
L 157.829632 215.695092 
L 158.313476 212.817279 
L 158.797321 216.43116 
L 159.281165 216.262477 
L 160.248854 214.182069 
L 160.732699 213.916265 
L 161.216543 214.417197 
L 161.700387 214.059389 
L 162.184232 215.940453 
L 162.668076 216.620294 
L 163.635765 211.370702 
L 164.11961 210.900437 
L 164.603454 209.791226 
L 165.087299 208.022617 
L 166.054988 198.719547 
L 166.538832 199.987216 
L 167.022677 197.037833 
L 167.506521 198.336178 
L 167.990366 200.723284 
L 168.47421 209.019373 
L 168.958054 209.90879 
L 169.441899 209.336296 
L 169.925743 207.179209 
L 170.409588 209.162496 
L 170.893432 203.999807 
L 171.377277 203.371078 
L 171.861121 201.781377 
L 172.344966 205.022123 
L 172.82881 207.179209 
L 173.312655 203.89757 
L 173.796499 205.645736 
L 174.280344 211.355367 
L 174.764188 210.803316 
L 175.248033 213.011514 
L 175.731877 210.348386 
L 176.215722 209.295402 
L 176.699566 207.859042 
L 177.18341 204.332057 
L 177.667255 205.011898 
L 178.151099 205.267476 
L 178.634944 205.16013 
L 179.118788 202.665685 
L 179.602633 205.676404 
L 180.086477 205.655954 
L 180.570322 208.252636 
L 181.054166 208.135072 
L 181.538011 207.833491 
L 182.021855 209.781001 
L 182.5057 208.482655 
L 182.989544 209.152279 
L 183.473389 208.211742 
L 183.957233 209.188056 
L 184.441077 212.209 
L 184.924922 211.702951 
L 185.408766 212.658821 
L 185.892611 210.195037 
L 186.376455 211.610946 
L 186.8603 210.021245 
L 187.344144 212.679264 
L 187.827989 211.37581 
L 188.311833 212.132322 
L 188.795678 211.912528 
L 189.279522 212.152772 
L 189.763367 210.174594 
L 190.247211 211.191793 
L 190.731056 210.358611 
L 191.2149 210.59374 
L 191.698745 207.910161 
L 192.182589 206.760056 
L 193.150278 202.885479 
L 193.634122 202.803692 
L 194.117967 202.839477 
L 194.601811 202.466334 
L 195.5695 205.354372 
L 196.053345 205.885981 
L 196.537189 207.588129 
L 197.021034 204.919885 
L 197.504878 205.911532 
L 197.988723 204.004916 
L 198.472567 205.824637 
L 199.440256 206.806059 
L 199.9241 208.74846 
L 200.407945 208.641121 
L 200.891789 208.692232 
L 201.375634 208.375317 
L 201.859478 207.337667 
L 202.343323 208.584893 
L 202.827167 208.175965 
L 203.311012 208.114621 
L 203.794856 211.084454 
L 204.278701 212.510581 
L 204.762545 212.781494 
L 205.24639 212.643479 
L 206.214079 211.191793 
L 206.697923 211.75407 
L 207.181768 212.592368 
L 208.149456 221.455842 
L 208.633301 218.675143 
L 209.117145 218.07198 
L 209.60099 219.344758 
L 210.084834 223.704933 
L 210.568679 222.329925 
L 211.052523 222.248138 
L 211.536368 222.575279 
L 212.020212 221.987451 
L 212.504057 226.782105 
L 212.987901 229.818384 
L 213.471746 230.339767 
L 213.95559 227.252373 
L 214.439435 226.751437 
L 214.923279 224.875489 
L 215.407123 226.11249 
L 215.890968 225.856911 
L 216.374812 222.933088 
L 216.858657 221.747206 
L 217.826346 222.130574 
L 218.31019 225.3662 
L 218.794035 225.294638 
L 219.277879 224.778368 
L 219.761724 226.025594 
L 220.245568 228.034444 
L 221.213257 224.01674 
L 221.697102 225.810909 
L 222.180946 227.175699 
L 222.664791 227.155252 
L 223.148635 229.404347 
L 223.632479 229.005645 
L 224.116324 230.104631 
L 224.600168 229.680373 
L 225.084013 231.438753 
L 225.567857 230.835587 
L 226.051702 229.726375 
L 227.503235 228.192902 
L 227.98708 229.317451 
L 228.470924 228.254242 
L 228.954769 225.708675 
L 229.438613 225.488877 
L 229.922458 225.46843 
L 230.406302 224.717031 
L 230.890146 222.667284 
L 231.857835 227.032575 
L 232.34168 226.516305 
L 232.825524 225.82113 
L 233.309369 226.935454 
L 233.793213 226.587867 
L 234.277058 226.776997 
L 234.760902 227.267708 
L 235.244747 227.063244 
L 235.728591 227.058131 
L 236.212436 229.143656 
L 236.69628 229.051647 
L 237.180125 227.850427 
L 237.663969 226.040928 
L 238.147814 225.959141 
L 238.631658 225.703562 
L 239.115502 224.875489 
L 239.599347 226.230058 
L 240.083191 226.40385 
L 240.567036 227.124584 
L 241.05088 226.199386 
L 241.534725 226.562307 
L 242.018569 227.732859 
L 242.502414 227.390384 
L 242.986258 228.31047 
L 243.470103 230.191531 
L 243.953947 230.850925 
L 244.437792 230.866259 
L 244.921636 232.118594 
L 245.405481 230.595346 
L 245.889325 229.879724 
L 246.373169 230.206865 
L 246.857014 233.11535 
L 247.340858 232.956892 
L 247.824703 232.190156 
L 248.308547 231.719891 
L 248.792392 233.396488 
L 249.276236 232.210602 
L 249.760081 230.68735 
L 250.243925 232.036811 
L 250.72777 232.006138 
L 251.211614 232.389507 
L 251.695459 230.764025 
L 252.179303 228.075338 
L 252.663148 227.201255 
L 253.146992 227.599961 
L 253.630837 230.058629 
L 254.114681 230.395991 
L 254.598525 231.776119 
L 255.08237 231.326298 
L 255.566214 233.524278 
L 256.050059 234.025214 
L 256.533903 232.650198 
L 257.017748 231.888574 
L 257.501592 231.776119 
L 257.985437 231.423419 
L 258.469281 231.612549 
L 258.953126 232.915999 
L 259.43697 232.900665 
L 259.920815 232.445734 
L 260.404659 230.626014 
L 261.372348 232.379285 
L 261.856192 233.330039 
L 262.340037 232.82399 
L 262.823881 231.857902 
L 263.307726 233.166469 
L 263.79157 233.575393 
L 264.275415 233.713407 
L 265.243104 236.851916 
L 266.210793 237.209725 
L 266.694637 236.085179 
L 267.178482 233.897425 
L 267.662326 235.139538 
L 268.630015 236.437875 
L 269.11386 234.878847 
L 269.597704 234.572153 
L 270.081548 234.991302 
L 271.049237 233.20225 
L 271.533082 233.708295 
L 272.016926 234.83284 
L 272.500771 237.490863 
L 273.46846 238.007134 
L 273.952304 238.947662 
L 274.436149 237.531757 
L 275.403838 238.543847 
L 275.887682 238.027576 
L 276.371527 238.840319 
L 276.855371 236.683233 
L 277.339215 237.501085 
L 277.82306 237.03082 
L 278.306904 236.034064 
L 279.274593 230.201752 
L 279.758438 230.600455 
L 280.242282 230.840699 
L 280.726127 229.087428 
L 281.209971 229.665035 
L 281.693816 229.465684 
L 282.17766 231.239402 
L 282.661505 230.932708 
L 283.145349 230.165971 
L 283.629194 230.426663 
L 284.113038 230.441997 
L 284.596883 227.497727 
L 285.080727 227.737972 
L 285.564571 228.489374 
L 286.048416 229.51169 
L 286.53226 231.602323 
L 287.499949 228.47404 
L 289.435327 223.986072 
L 289.919172 225.867136 
L 290.403016 226.117603 
L 290.886861 224.773259 
L 291.370705 225.504211 
L 291.85455 225.580885 
L 292.338394 225.289526 
L 292.822238 226.270948 
L 293.306083 226.005147 
L 293.789927 225.913139 
L 294.273772 226.776997 
L 294.757616 225.453096 
L 295.241461 226.480524 
L 295.725305 229.496356 
L 296.20915 229.690594 
L 296.692994 228.939192 
L 297.176839 228.555823 
L 297.660683 227.119471 
L 298.144528 230.845812 
L 298.628372 231.842568 
L 299.112217 233.140909 
L 299.596061 233.381154 
L 300.079906 234.270568 
L 300.56375 235.471788 
L 301.047594 235.533128 
L 301.531439 234.674383 
L 302.499128 232.323058 
L 302.982972 231.893683 
L 303.466817 232.691092 
L 303.950661 231.341636 
L 304.434506 230.590233 
L 304.91835 230.54934 
L 305.402195 229.516803 
L 305.886039 230.636235 
L 306.369884 232.062366 
L 307.337573 229.946173 
L 307.821417 230.017735 
L 308.305262 229.639479 
L 308.789106 228.034444 
L 309.27295 228.18268 
L 309.756795 228.969864 
L 310.240639 230.891814 
L 310.724484 230.983823 
L 311.208328 229.670148 
L 312.176017 228.540489 
L 313.143706 229.70082 
L 313.627551 229.654813 
L 314.111395 230.375548 
L 314.59524 231.776119 
L 315.079084 231.014495 
L 315.562929 229.741709 
L 316.046773 229.010754 
L 316.530617 229.542358 
L 317.014462 227.937323 
L 317.498306 228.187789 
L 317.982151 227.962882 
L 318.465995 226.265839 
L 318.94984 225.289526 
L 319.917529 227.707304 
L 320.401373 228.555823 
L 320.885218 228.806294 
L 321.369062 227.410831 
L 321.852907 228.540489 
L 322.336751 228.903411 
L 322.820596 229.046534 
L 323.30444 228.785847 
L 323.788285 227.901542 
L 324.755973 228.550715 
L 325.239818 230.140412 
L 325.723662 229.782603 
L 326.207507 228.882964 
L 326.691351 227.497727 
L 327.65904 225.805796 
L 328.142885 226.081822 
L 328.626729 225.238407 
L 329.594418 226.925233 
L 330.078263 225.294638 
L 330.562107 226.224945 
L 331.045952 226.608314 
L 331.529796 226.531639 
L 332.01364 227.012129 
L 332.497485 225.473543 
L 332.981329 226.40385 
L 333.465174 226.097156 
L 333.949018 225.55533 
L 334.432863 225.974479 
L 335.400552 227.042797 
L 335.884396 226.807665 
L 336.368241 228.131562 
L 336.852085 227.722638 
L 337.33593 228.090672 
L 337.819774 227.824868 
L 338.303619 228.678504 
L 338.787463 229.189662 
L 339.271308 230.053516 
L 339.755152 229.946173 
L 340.722841 231.121838 
L 341.69053 231.960136 
L 342.174374 232.0777 
L 342.658219 233.386267 
L 343.142063 232.348613 
L 343.625908 232.680867 
L 344.593597 232.931337 
L 345.077441 232.691092 
L 345.561286 233.064235 
L 346.04513 232.53263 
L 346.528975 231.801675 
L 347.496663 231.014495 
L 347.980508 231.075831 
L 348.464352 232.185043 
L 348.948197 231.602323 
L 349.432041 231.525653 
L 349.915886 231.643217 
L 350.39973 230.339767 
L 350.883575 230.866259 
L 351.367419 230.017735 
L 351.851264 228.821628 
L 352.818953 228.443368 
L 353.302797 228.842074 
L 354.270486 227.063244 
L 354.754331 227.21148 
L 355.722019 226.552086 
L 356.205864 228.402478 
L 356.689708 227.911767 
L 357.173553 227.845314 
L 357.657397 227.334157 
L 358.141242 228.336025 
L 359.108931 228.428034 
L 359.592775 229.174324 
L 360.07662 228.663166 
L 360.560464 229.0312 
L 361.044309 228.632498 
L 361.528153 229.0312 
L 362.011998 228.698947 
L 362.495842 227.661297 
L 362.979686 225.994926 
L 363.463531 226.01026 
L 363.947375 223.239786 
L 364.43122 222.616173 
L 364.915064 223.157999 
L 365.398909 222.44749 
L 365.882753 221.967 
L 366.366598 222.391262 
L 366.850442 221.241157 
L 367.334287 218.496242 
L 368.301976 217.008771 
L 368.78582 217.223456 
L 369.753509 219.063628 
L 370.237354 217.632384 
L 370.721198 218.598472 
L 371.205042 218.169102 
L 371.688887 219.124964 
L 372.172731 218.905162 
L 372.656576 218.189544 
L 373.14042 217.831736 
L 373.624265 220.47442 
L 374.108109 220.055267 
L 374.591954 220.295512 
L 375.075798 220.234175 
L 375.559643 220.356856 
L 376.043487 219.625896 
L 376.527332 219.385652 
L 377.011176 217.9493 
L 377.495021 216.144913 
L 377.978865 215.608196 
L 378.462709 215.776879 
L 379.430398 214.371195 
L 379.914243 215.158383 
L 380.398087 214.539878 
L 380.881932 211.62628 
L 381.365776 214.856793 
L 381.849621 210.169478 
L 382.333465 217.463701 
L 382.81731 219.08407 
L 383.301154 212.878615 
L 383.784999 212.674155 
L 384.268843 209.586758 
L 384.752688 209.648095 
L 385.236532 207.567686 
L 385.720377 209.029598 
L 386.204221 208.702457 
L 386.688065 206.908296 
L 387.17191 207.276323 
L 387.655754 207.429672 
L 388.139599 209.934349 
L 388.623443 207.577912 
L 389.107288 206.857177 
L 389.591132 205.574174 
L 390.074977 205.349264 
L 390.558821 204.219601 
L 391.042666 203.744228 
L 392.010355 195.918404 
L 392.494199 193.168373 
L 392.978044 197.39565 
L 393.461888 197.656337 
L 393.945732 196.450005 
L 394.429577 197.855689 
L 395.397266 197.058284 
L 395.88111 201.280444 
L 396.364955 199.440281 
L 396.848799 198.141936 
L 397.332644 199.562954 
L 397.816488 199.389162 
L 398.300333 200.636388 
L 398.784177 197.063393 
L 399.268022 200.145673 
L 399.751866 200.897076 
L 400.235711 204.935227 
L 400.719555 202.619675 
L 401.2034 202.532779 
L 401.687244 200.513708 
L 402.171088 200.55971 
L 402.654933 199.532286 
L 403.138777 202.0983 
L 403.622622 203.227954 
L 404.106466 201.812053 
L 404.590311 202.471443 
L 405.074155 203.902686 
L 405.558 203.452865 
L 406.041844 205.333929 
L 406.525689 207.991948 
L 407.009533 209.356739 
L 407.493378 208.155515 
L 407.977222 207.260989 
L 408.461067 207.772146 
L 408.944911 207.905052 
L 409.428755 207.245655 
L 409.9126 205.671288 
L 410.396444 205.645736 
L 410.880289 206.023988 
L 411.364133 202.992826 
L 411.847978 202.430549 
L 412.331822 200.718175 
L 412.815667 199.52206 
L 413.783356 200.871516 
L 414.2672 206.397139 
L 414.751045 205.548615 
L 415.234889 205.190806 
L 415.718734 204.209376 
L 416.202578 204.107146 
L 416.686423 204.541633 
L 417.170267 203.89757 
L 417.654111 206.545371 
L 418.137956 205.650845 
L 418.6218 205.492387 
L 419.105645 203.708444 
L 419.589489 203.263739 
L 420.557178 206.990076 
L 421.041023 207.23032 
L 421.524867 206.57093 
L 422.008712 206.754947 
L 422.492556 206.192671 
L 422.976401 204.945445 
L 423.460245 205.517947 
L 423.94409 203.887352 
L 424.427934 201.530914 
L 424.911778 202.471443 
L 425.395623 205.415709 
L 426.363312 205.553724 
L 427.331001 204.332057 
L 427.814845 203.31485 
L 428.29869 204.95567 
L 428.782534 203.974248 
L 429.266379 203.248405 
L 429.750223 205.287919 
L 430.234068 204.388284 
L 430.717912 201.858055 
L 431.201757 200.166124 
L 431.685601 200.45748 
L 432.169446 196.81293 
L 432.65329 196.092196 
L 433.137134 199.051796 
L 433.620979 197.477429 
L 434.104823 198.949566 
L 434.588668 197.942585 
L 435.072512 196.628913 
L 436.040201 200.273463 
L 436.524046 201.035091 
L 437.00789 204.424069 
L 437.491735 202.767915 
L 437.975579 202.348762 
L 438.459424 202.486777 
L 438.943268 201.484912 
L 439.427113 203.156392 
L 439.910957 203.759563 
L 440.394801 204.664306 
L 440.878646 207.741478 
L 441.36249 209.423192 
L 441.846335 208.574668 
L 442.330179 206.821393 
L 442.814024 206.213121 
L 443.297868 204.894333 
L 443.781713 207.526793 
L 444.265557 208.017508 
L 444.749402 209.295402 
L 445.233246 209.009147 
L 445.717091 211.043561 
L 446.200935 212.490138 
L 446.68478 211.641615 
L 447.168624 210.000795 
L 447.652469 212.505472 
L 448.136313 211.907419 
L 448.620157 212.41346 
L 449.104002 210.721529 
L 449.587846 206.586264 
L 450.071691 207.491016 
L 450.555535 207.271214 
L 451.03938 205.20614 
L 452.007069 205.446385 
L 452.490913 205.20614 
L 452.974758 203.989582 
L 453.458602 201.909166 
L 453.942447 199.327826 
L 454.426291 199.056913 
L 454.910136 199.09269 
L 455.39398 202.036956 
L 455.877824 202.088074 
L 456.361669 203.161509 
L 456.845513 204.648972 
L 457.329358 202.532779 
L 457.813202 201.827387 
L 458.297047 196.76692 
L 458.780891 196.828264 
L 459.264736 197.048058 
L 459.74858 195.37657 
L 460.232425 195.443023 
L 460.716269 196.521567 
L 461.200114 196.240428 
L 461.683958 194.880747 
L 462.167803 195.213004 
L 463.135492 198.223723 
L 463.619336 198.15727 
L 464.10318 197.651229 
L 464.587025 197.860797 
L 465.070869 199.614073 
L 465.554714 199.578288 
L 466.038558 199.389162 
L 466.522403 197.963035 
L 467.006247 197.579667 
L 467.490092 197.743233 
L 467.973936 198.596866 
L 468.941625 201.081093 
L 469.909314 198.637759 
L 470.393159 199.675409 
L 471.360847 199.399387 
L 471.844692 203.064388 
L 472.328536 203.958914 
L 472.812381 199.292041 
L 473.296225 196.858933 
L 473.78007 195.55037 
L 474.263914 196.245545 
L 474.747759 198.944457 
L 475.231603 196.818039 
L 475.715448 195.872394 
L 476.199292 192.554985 
L 476.683137 195.811058 
L 477.166981 195.115883 
L 477.650826 193.444395 
L 478.13467 192.984356 
L 478.618515 193.914659 
L 479.102359 193.730642 
L 479.586203 194.64051 
L 480.070048 195.110774 
L 480.553892 194.292918 
L 481.521581 195.453249 
L 482.005426 194.28781 
L 482.48927 192.105164 
L 482.973115 187.637642 
L 483.456959 188.619064 
L 483.940804 188.291923 
L 484.424648 185.547008 
L 484.908493 180.731903 
L 485.392337 179.837377 
L 485.876182 177.721184 
L 486.84387 181.846223 
L 487.811559 176.376837 
L 488.295404 180.333201 
L 488.779248 180.650116 
L 489.263093 182.541398 
L 489.746937 180.430322 
L 490.230782 180.91592 
L 490.714626 180.798356 
L 491.198471 177.772303 
L 491.682315 176.657975 
L 492.650004 177.925644 
L 493.133849 175.518095 
L 493.617693 175.916798 
L 494.101538 172.118891 
L 494.585382 172.103557 
L 495.553071 172.814066 
L 496.036915 168.699253 
L 497.004604 165.458506 
L 497.488449 165.468732 
L 497.972293 165.228487 
L 498.456138 162.26377 
L 498.939982 161.215895 
L 499.423827 161.650382 
L 499.907671 163.955701 
L 500.391516 169.76757 
L 500.87536 162.99473 
L 501.359205 165.16715 
L 501.843049 166.516607 
L 502.326893 165.831657 
L 502.810738 166.951086 
L 503.294582 167.308903 
L 503.778427 166.240577 
L 504.262271 163.827912 
L 504.746116 163.286086 
L 505.22996 160.024904 
L 505.713805 158.537433 
L 506.197649 155.807853 
L 506.681494 154.586178 
L 507.165338 152.311535 
L 507.649183 156.129885 
L 508.133027 153.512744 
L 508.616872 150.011325 
L 509.100716 148.350063 
L 509.584561 145.50291 
L 510.068405 147.721333 
L 510.552249 138.413154 
L 511.036094 134.226771 
L 511.519938 134.937272 
L 512.003783 138.387587 
L 512.487627 133.858737 
L 512.971472 140.299328 
L 513.455316 132.371266 
L 513.939161 135.514883 
L 514.423005 134.70726 
L 514.90685 129.028289 
L 515.390694 132.177023 
L 515.874539 136.731441 
L 516.358383 133.70538 
L 516.842228 132.683064 
L 517.809916 133.572489 
L 518.293761 132.698414 
L 518.777605 130.684451 
L 519.26145 133.557155 
L 519.745294 131.947012 
L 520.229139 128.118429 
L 520.712983 121.483611 
L 521.680672 117.327896 
L 522.164517 113.463544 
L 523.132206 102.023831 
L 523.61605 91.867128 
L 524.583739 102.534989 
L 525.067584 102.437867 
L 525.551428 98.527514 
L 526.035272 99.391371 
L 526.519117 92.434506 
L 527.002961 93.170574 
L 527.486806 88.570154 
L 527.97065 86.740217 
L 528.454495 77.6825 
L 528.938339 87.118468 
L 529.422184 78.842823 
L 529.906028 75.356723 
L 530.389873 56.592125 
L 530.873717 63.262728 
L 531.357562 57.89047 
L 532.325251 51.163632 
L 532.809095 43.429812 
L 533.292939 48.664063 
L 533.776784 55.140439 
L 534.260628 79.399983 
L 534.744473 78.725251 
L 535.228317 71.206124 
L 536.196006 62.761803 
L 537.163695 74.390643 
L 537.64754 68.977484 
L 538.131384 77.401354 
L 538.615229 79.175072 
L 539.099073 77.488258 
L 539.582918 88.161235 
L 540.066762 93.119456 
L 540.550607 92.822991 
L 541.034451 99.718504 
L 541.518295 102.402083 
L 541.518295 102.402083 
" clip-path="url(#p45658dabb7)" style="fill: none; stroke: #7a8450; stroke-width: 1.5; stroke-linecap: square"/>
   </g>
   <g id="line2d_28">
    <path d="M 59.609205 257.613039 
L 63.963805 257.361222 
L 65.415338 257.21553 
L 70.253783 256.960348 
L 74.608383 256.792259 
L 79.446828 256.538592 
L 81.382206 256.523679 
L 82.833739 256.543066 
L 93.962162 256.150178 
L 94.446006 256.307817 
L 96.865229 256.189905 
L 97.349073 256.265063 
L 98.316762 256.215439 
L 102.671362 256.180824 
L 109.929029 256.165779 
L 112.348252 256.162029 
L 120.089763 256.180086 
L 122.508985 256.171794 
L 128.798964 256.168777 
L 132.669719 256.183858 
L 266.210793 256.287787 
L 273.46846 256.302832 
L 280.726127 256.295324 
L 286.53226 256.280268 
L 314.111395 256.172393 
L 332.497485 255.923453 
L 348.948197 255.516717 
L 362.979686 255.078786 
L 368.78582 254.903218 
L 388.623443 254.558474 
L 403.138777 254.569141 
L 414.751045 254.580967 
L 431.685601 254.608626 
L 436.524046 254.588079 
L 446.68478 254.39809 
L 451.03938 254.213947 
L 458.780891 253.719661 
L 460.716269 253.601578 
L 465.070869 253.311232 
L 484.908493 251.744353 
L 495.069226 250.924871 
L 500.87536 250.476865 
L 508.616872 249.949226 
L 525.551428 248.807771 
L 541.518295 247.879237 
L 541.518295 247.879237 
" clip-path="url(#p45658dabb7)" style="fill: none; stroke: #aba499; stroke-width: 1.5; stroke-linecap: square"/>
   </g>
   <g id="patch_3">
    <path d="M 35.51375 286.861812 
L 565.61375 286.861812 
" style="fill: none; stroke: #8a8f98; stroke-width: 0.8; stroke-linejoin: miter; stroke-linecap: square"/>
   </g>
   <g id="text_18">
    <text style="font-size: 14px; font-family: 'Helvetica Neue', 'Helvetica', 'Arial', 'DejaVu Sans', sans-serif; text-anchor: start; fill: #8a8f98" x="35.51375" y="17.837812" transform="rotate(-0 35.51375 17.837812)">Crescita di 100 investiti nel 2007, per asset class</text>
   </g>
   <g id="legend_1">
    <g id="line2d_29">
     <path d="M 45.41375 46.246094 
L 56.41375 46.246094 
L 67.41375 46.246094 
" style="fill: none; stroke: #b6892b; stroke-width: 2.1; stroke-linecap: square"/>
    </g>
    <g id="text_19">
     <text style="font-size: 11px; font-family: 'Helvetica Neue', 'Helvetica', 'Arial', 'DejaVu Sans', sans-serif; text-anchor: start; fill: #1f2328" x="76.21375" y="50.096094" transform="rotate(-0 76.21375 50.096094)">Azionario (S&amp;P 500)</text>
    </g>
    <g id="line2d_30">
     <path d="M 45.41375 62.746953 
L 56.41375 62.746953 
L 67.41375 62.746953 
" style="fill: none; stroke: #3f6f8f; stroke-width: 1.5; stroke-linecap: square"/>
    </g>
    <g id="text_20">
     <text style="font-size: 11px; font-family: 'Helvetica Neue', 'Helvetica', 'Arial', 'DejaVu Sans', sans-serif; text-anchor: start; fill: #1f2328" x="76.21375" y="66.596953" transform="rotate(-0 76.21375 66.596953)">Obbligazioni</text>
    </g>
    <g id="line2d_31">
     <path d="M 45.41375 79.247812 
L 56.41375 79.247812 
L 67.41375 79.247812 
" style="fill: none; stroke: #7a8450; stroke-width: 1.5; stroke-linecap: square"/>
    </g>
    <g id="text_21">
     <text style="font-size: 11px; font-family: 'Helvetica Neue', 'Helvetica', 'Arial', 'DejaVu Sans', sans-serif; text-anchor: start; fill: #1f2328" x="76.21375" y="83.097812" transform="rotate(-0 76.21375 83.097812)">Oro</text>
    </g>
    <g id="line2d_32">
     <path d="M 45.41375 96.188672 
L 56.41375 96.188672 
L 67.41375 96.188672 
" style="fill: none; stroke: #aba499; stroke-width: 1.5; stroke-linecap: square"/>
    </g>
    <g id="text_22">
     <text style="font-size: 11px; font-family: 'Helvetica Neue', 'Helvetica', 'Arial', 'DejaVu Sans', sans-serif; text-anchor: start; fill: #1f2328" x="76.21375" y="100.038672" transform="rotate(-0 76.21375 100.038672)">Liquidità</text>
    </g>
   </g>
  </g>
 </g>
 <defs>
  <clipPath id="p45658dabb7">
   <rect x="35.51375" y="31.837812" width="530.1" height="255.024"/>
  </clipPath>
 </defs>
</svg>
