<?xml version="1.0" encoding="utf-8" standalone="no"?>
<!DOCTYPE svg PUBLIC "-//W3C//DTD SVG 1.1//EN"
  "http://www.w3.org/Graphics/SVG/1.1/DTD/svg11.dtd">
<svg xmlns:xlink="http://www.w3.org/1999/xlink" width="572.81375pt" height="310.561812pt" viewBox="0 0 572.81375 310.561812" xmlns="http://www.w3.org/2000/svg" version="1.1">
 <metadata>
  <rdf:RDF xmlns:dc="http://purl.org/dc/elements/1.1/" xmlns:cc="http://creativecommons.org/ns#" xmlns:rdf="http://www.w3.org/1999/02/22-rdf-syntax-ns#">
   <cc:Work>
    <dc:type rdf:resource="http://purl.org/dc/dcmitype/StillImage"/>
    <dc:date>2026-06-18T20:54:23.010545</dc:date>
    <dc:format>image/svg+xml</dc:format>
    <dc:creator>
     <cc:Agent>
      <dc:title>Matplotlib v3.11.0, https://matplotlib.org/</dc:title>
     </cc:Agent>
    </dc:creator>
   </cc:Work>
  </rdf:RDF>
 </metadata>
 <defs>
  <style type="text/css">*{stroke-linejoin: round; stroke-linecap: butt}</style>
 </defs>
 <g id="figure_1">
  <g id="patch_1">
   <path d="M 0 310.561812 
L 572.81375 310.561812 
L 572.81375 0 
L 0 0 
z
" style="fill: #faf8f3"/>
  </g>
  <g id="axes_1">
   <g id="patch_2">
    <path d="M 35.51375 286.861812 
L 565.61375 286.861812 
L 565.61375 31.837812 
L 35.51375 31.837812 
z
" style="fill: #faf8f3"/>
   </g>
   <g id="matplotlib.axis_1">
    <g id="xtick_1">
     <g id="line2d_1"/>
     <g id="text_1">
      <text style="font-size: 13px; font-family: 'Helvetica Neue', 'Helvetica', 'Arial', 'DejaVu Sans', sans-serif; text-anchor: middle; fill: #8a8f98" x="74.292264" y="300.238766" transform="rotate(-0 74.292264 300.238766)">2008</text>
     </g>
    </g>
    <g id="xtick_2">
     <g id="line2d_2"/>
     <g id="text_2">
      <text style="font-size: 13px; font-family: 'Helvetica Neue', 'Helvetica', 'Arial', 'DejaVu Sans', sans-serif; text-anchor: middle; fill: #8a8f98" x="124.921115" y="300.238766" transform="rotate(-0 124.921115 300.238766)">2010</text>
     </g>
    </g>
    <g id="xtick_3">
     <g id="line2d_3"/>
     <g id="text_3">
      <text style="font-size: 13px; font-family: 'Helvetica Neue', 'Helvetica', 'Arial', 'DejaVu Sans', sans-serif; text-anchor: middle; fill: #8a8f98" x="175.480706" y="300.238766" transform="rotate(-0 175.480706 300.238766)">2012</text>
     </g>
    </g>
    <g id="xtick_4">
     <g id="line2d_4"/>
     <g id="text_4">
      <text style="font-size: 13px; font-family: 'Helvetica Neue', 'Helvetica', 'Arial', 'DejaVu Sans', sans-serif; text-anchor: middle; fill: #8a8f98" x="226.109557" y="300.238766" transform="rotate(-0 226.109557 300.238766)">2014</text>
     </g>
    </g>
    <g id="xtick_5">
     <g id="line2d_5"/>
     <g id="text_5">
      <text style="font-size: 13px; font-family: 'Helvetica Neue', 'Helvetica', 'Arial', 'DejaVu Sans', sans-serif; text-anchor: middle; fill: #8a8f98" x="276.669149" y="300.238766" transform="rotate(-0 276.669149 300.238766)">2016</text>
     </g>
    </g>
    <g id="xtick_6">
     <g id="line2d_6"/>
     <g id="text_6">
      <text style="font-size: 13px; font-family: 'Helvetica Neue', 'Helvetica', 'Arial', 'DejaVu Sans', sans-serif; text-anchor: middle; fill: #8a8f98" x="327.298" y="300.238766" transform="rotate(-0 327.298 300.238766)">2018</text>
     </g>
    </g>
    <g id="xtick_7">
     <g id="line2d_7"/>
     <g id="text_7">
      <text style="font-size: 13px; font-family: 'Helvetica Neue', 'Helvetica', 'Arial', 'DejaVu Sans', sans-serif; text-anchor: middle; fill: #8a8f98" x="377.857591" y="300.238766" transform="rotate(-0 377.857591 300.238766)">2020</text>
     </g>
    </g>
    <g id="xtick_8">
     <g id="line2d_8"/>
     <g id="text_8">
      <text style="font-size: 13px; font-family: 'Helvetica Neue', 'Helvetica', 'Arial', 'DejaVu Sans', sans-serif; text-anchor: middle; fill: #8a8f98" x="428.486442" y="300.238766" transform="rotate(-0 428.486442 300.238766)">2022</text>
     </g>
    </g>
    <g id="xtick_9">
     <g id="line2d_9"/>
     <g id="text_9">
      <text style="font-size: 13px; font-family: 'Helvetica Neue', 'Helvetica', 'Arial', 'DejaVu Sans', sans-serif; text-anchor: middle; fill: #8a8f98" x="479.046033" y="300.238766" transform="rotate(-0 479.046033 300.238766)">2024</text>
     </g>
    </g>
    <g id="xtick_10">
     <g id="line2d_10"/>
     <g id="text_10">
      <text style="font-size: 13px; font-family: 'Helvetica Neue', 'Helvetica', 'Arial', 'DejaVu Sans', sans-serif; text-anchor: middle; fill: #8a8f98" x="529.674884" y="300.238766" transform="rotate(-0 529.674884 300.238766)">2026</text>
     </g>
    </g>
   </g>
   <g id="matplotlib.axis_2">
    <g id="ytick_1">
     <g id="line2d_11">
      <path d="M 35.51375 257.620254 
L 565.61375 257.620254 
" clip-path="url(#pd205ca16fd)" style="fill: none; stroke: #e7e3da; stroke-width: 0.9; stroke-linecap: square"/>
     </g>
     <g id="line2d_12"/>
     <g id="text_11">
      <text style="font-size: 13px; font-family: 'Helvetica Neue', 'Helvetica', 'Arial', 'DejaVu Sans', sans-serif; text-anchor: end; fill: #8a8f98" x="32.01375" y="262.558731" transform="rotate(-0 32.01375 262.558731)">100</text>
     </g>
    </g>
    <g id="ytick_2">
     <g id="line2d_13">
      <path d="M 35.51375 224.538122 
L 565.61375 224.538122 
" clip-path="url(#pd205ca16fd)" style="fill: none; stroke: #e7e3da; stroke-width: 0.9; stroke-linecap: square"/>
     </g>
     <g id="line2d_14"/>
     <g id="text_12">
      <text style="font-size: 13px; font-family: 'Helvetica Neue', 'Helvetica', 'Arial', 'DejaVu Sans', sans-serif; text-anchor: end; fill: #8a8f98" x="32.01375" y="229.476599" transform="rotate(-0 32.01375 229.476599)">200</text>
     </g>
    </g>
    <g id="ytick_3">
     <g id="line2d_15">
      <path d="M 35.51375 191.455991 
L 565.61375 191.455991 
" clip-path="url(#pd205ca16fd)" style="fill: none; stroke: #e7e3da; stroke-width: 0.9; stroke-linecap: square"/>
     </g>
     <g id="line2d_16"/>
     <g id="text_13">
      <text style="font-size: 13px; font-family: 'Helvetica Neue', 'Helvetica', 'Arial', 'DejaVu Sans', sans-serif; text-anchor: end; fill: #8a8f98" x="32.01375" y="196.394467" transform="rotate(-0 32.01375 196.394467)">300</text>
     </g>
    </g>
    <g id="ytick_4">
     <g id="line2d_17">
      <path d="M 35.51375 158.373859 
L 565.61375 158.373859 
" clip-path="url(#pd205ca16fd)" style="fill: none; stroke: #e7e3da; stroke-width: 0.9; stroke-linecap: square"/>
     </g>
     <g id="line2d_18"/>
     <g id="text_14">
      <text style="font-size: 13px; font-family: 'Helvetica Neue', 'Helvetica', 'Arial', 'DejaVu Sans', sans-serif; text-anchor: end; fill: #8a8f98" x="32.01375" y="163.312335" transform="rotate(-0 32.01375 163.312335)">400</text>
     </g>
    </g>
    <g id="ytick_5">
     <g id="line2d_19">
      <path d="M 35.51375 125.291727 
L 565.61375 125.291727 
" clip-path="url(#pd205ca16fd)" style="fill: none; stroke: #e7e3da; stroke-width: 0.9; stroke-linecap: square"/>
     </g>
     <g id="line2d_20"/>
     <g id="text_15">
      <text style="font-size: 13px; font-family: 'Helvetica Neue', 'Helvetica', 'Arial', 'DejaVu Sans', sans-serif; text-anchor: end; fill: #8a8f98" x="32.01375" y="130.230204" transform="rotate(-0 32.01375 130.230204)">500</text>
     </g>
    </g>
    <g id="ytick_6">
     <g id="line2d_21">
      <path d="M 35.51375 92.209595 
L 565.61375 92.209595 
" clip-path="url(#pd205ca16fd)" style="fill: none; stroke: #e7e3da; stroke-width: 0.9; stroke-linecap: square"/>
     </g>
     <g id="line2d_22"/>
     <g id="text_16">
      <text style="font-size: 13px; font-family: 'Helvetica Neue', 'Helvetica', 'Arial', 'DejaVu Sans', sans-serif; text-anchor: end; fill: #8a8f98" x="32.01375" y="97.148072" transform="rotate(-0 32.01375 97.148072)">600</text>
     </g>
    </g>
    <g id="ytick_7">
     <g id="line2d_23">
      <path d="M 35.51375 59.127463 
L 565.61375 59.127463 
" clip-path="url(#pd205ca16fd)" style="fill: none; stroke: #e7e3da; stroke-width: 0.9; stroke-linecap: square"/>
     </g>
     <g id="line2d_24"/>
     <g id="text_17">
      <text style="font-size: 13px; font-family: 'Helvetica Neue', 'Helvetica', 'Arial', 'DejaVu Sans', sans-serif; text-anchor: end; fill: #8a8f98" x="32.01375" y="64.06594" transform="rotate(-0 32.01375 64.06594)">700</text>
     </g>
    </g>
   </g>
   <g id="line2d_25">
    <path d="M 59.609205 257.490926 
L 60.094023 258.146207 
L 60.578841 257.566426 
L 61.063659 258.11196 
L 61.548477 258.137928 
L 62.518113 257.181092 
L 63.002931 257.473335 
L 63.487749 259.289575 
L 63.972567 259.573153 
L 64.457385 259.376164 
L 64.942203 259.376164 
L 65.427021 258.59251 
L 65.911839 258.752722 
L 66.396657 259.081768 
L 66.881475 258.46913 
L 67.366293 257.648472 
L 67.851111 257.5158 
L 68.335929 256.804563 
L 68.820747 256.700167 
L 69.305565 258.148734 
L 69.790383 257.289592 
L 70.275201 257.815953 
L 70.760019 259.134017 
L 71.244837 258.992657 
L 71.729655 259.353694 
L 72.214473 258.368407 
L 72.699291 257.879028 
L 73.184109 258.692486 
L 73.668927 258.312691 
L 74.153745 258.494194 
L 74.638563 259.803943 
L 75.123381 260.057589 
L 75.608199 261.826511 
L 76.093017 261.61224 
L 76.577835 260.18221 
L 77.062653 261.605666 
L 77.547471 261.153051 
L 78.032289 261.048097 
L 78.517107 261.441689 
L 79.001925 262.340363 
L 79.486743 262.362222 
L 79.97156 261.679169 
L 80.456378 261.804416 
L 80.941196 260.62222 
L 81.426014 261.393505 
L 81.910832 260.272834 
L 82.39565 260.026741 
L 82.880468 259.607024 
L 83.365286 260.180533 
L 83.850104 259.354329 
L 84.334922 260.45742 
L 84.81974 259.861918 
L 85.304558 260.754069 
L 85.789376 260.784831 
L 86.759012 262.538816 
L 87.24383 262.808243 
L 87.728648 263.353709 
L 88.213466 262.881115 
L 88.698284 262.991544 
L 89.183102 262.841357 
L 89.66792 262.132462 
L 90.152738 261.955795 
L 91.122374 262.260555 
L 91.607192 263.225628 
L 92.09201 262.856824 
L 92.576828 263.133221 
L 93.061646 263.859545 
L 93.546464 266.193982 
L 94.031282 271.045017 
L 94.5161 269.998845 
L 95.000918 271.36932 
L 95.485736 269.194787 
L 95.970554 269.854469 
L 96.94019 273.039638 
L 97.425008 270.691858 
L 97.909826 271.171636 
L 98.394644 270.93619 
L 98.879462 270.954858 
L 99.36428 271.185501 
L 99.849098 269.886771 
L 100.818734 271.655733 
L 101.303552 272.092379 
L 101.78837 272.155084 
L 102.273188 271.22581 
L 102.758006 272.170755 
L 103.242824 273.366485 
L 103.727642 274.147968 
L 104.21246 275.269812 
L 104.697278 273.664301 
L 105.182096 273.402534 
L 105.666914 272.297466 
L 106.151732 271.699834 
L 107.121368 271.063865 
L 107.606186 271.158572 
L 108.091004 270.881185 
L 108.575822 269.733271 
L 109.06064 270.696243 
L 109.545458 270.62634 
L 110.030276 269.834753 
L 110.515094 269.379196 
L 110.999912 269.259665 
L 111.48473 269.828006 
L 111.969548 269.873361 
L 112.939184 270.75334 
L 113.424002 269.354013 
L 113.90882 268.462693 
L 114.393638 268.292597 
L 114.878456 267.750558 
L 115.363274 267.843537 
L 115.848092 267.349119 
L 116.33291 267.256129 
L 116.817728 267.555502 
L 117.787364 266.383348 
L 118.757 267.347267 
L 119.241818 266.260285 
L 119.726636 265.88886 
L 120.211454 266.073426 
L 120.696272 267.10344 
L 121.18109 266.289921 
L 121.665908 265.722502 
L 122.635544 265.733893 
L 123.120362 265.405761 
L 124.089998 265.452847 
L 124.574816 264.932782 
L 125.059634 265.171049 
L 125.544452 264.45395 
L 126.02927 264.667014 
L 126.514088 265.681953 
L 126.998906 266.098915 
L 127.483724 266.266158 
L 127.968542 265.949998 
L 128.45336 265.239784 
L 128.938178 265.331424 
L 129.422996 264.527266 
L 130.392632 264.023794 
L 130.87745 263.883458 
L 131.847086 263.20023 
L 132.331904 263.243933 
L 132.816722 262.680318 
L 133.30154 263.370456 
L 133.786358 265.107327 
L 134.271176 264.502298 
L 134.755994 265.60192 
L 135.240812 265.542102 
L 135.72563 266.128728 
L 136.695266 264.876909 
L 137.180084 265.76911 
L 137.664902 267.079684 
L 138.14972 265.748309 
L 138.634538 266.048803 
L 139.119356 265.182008 
L 139.604174 265.21437 
L 140.088992 264.724358 
L 140.57381 265.66741 
L 141.543446 266.002567 
L 142.028264 265.071069 
L 142.513082 264.934685 
L 142.9979 264.562039 
L 143.482718 264.0206 
L 143.967536 264.069394 
L 144.452354 263.620899 
L 145.42199 263.200293 
L 145.906808 263.167765 
L 146.391626 262.184798 
L 146.876444 262.770393 
L 147.361262 262.749483 
L 147.84608 263.095725 
L 148.330898 262.145299 
L 148.815716 261.775806 
L 149.300534 261.665727 
L 149.785352 261.362049 
L 150.27017 261.327008 
L 150.754988 261.002312 
L 151.239806 260.497725 
L 152.209442 260.866809 
L 152.69426 260.065562 
L 153.663896 259.275995 
L 154.148714 259.789924 
L 154.633532 259.757209 
L 155.11835 260.137985 
L 155.603168 260.727821 
L 156.087986 259.897279 
L 156.572804 259.46324 
L 157.057622 259.531274 
L 157.54244 259.723661 
L 158.027258 259.315433 
L 158.512076 258.693694 
L 158.996894 259.21689 
L 160.451348 259.378781 
L 161.420984 260.765355 
L 162.39062 260.803211 
L 162.875438 259.126815 
L 163.360256 259.01364 
L 163.845074 259.652604 
L 164.329892 258.971205 
L 164.81471 260.209042 
L 165.299528 262.389998 
L 165.784346 262.852129 
L 166.269164 264.144198 
L 166.753982 262.887499 
L 167.2388 262.915792 
L 167.723618 263.370844 
L 168.208436 261.90225 
L 168.693254 263.793499 
L 169.178072 263.885924 
L 169.66289 263.279208 
L 170.147708 261.653402 
L 170.632526 261.321597 
L 171.117344 260.224288 
L 171.602162 260.963734 
L 172.08698 260.684064 
L 173.056616 263.129902 
L 173.541434 261.110669 
L 174.026252 260.828635 
L 174.51107 261.702897 
L 174.995888 260.55808 
L 175.480706 260.770347 
L 175.965524 260.243259 
L 176.450342 259.973753 
L 176.93516 259.232009 
L 177.419978 259.263018 
L 177.904796 258.61429 
L 178.389614 258.657218 
L 178.874432 258.168295 
L 180.328886 257.891624 
L 180.813704 257.093881 
L 181.298522 257.249584 
L 181.78334 256.971706 
L 182.268158 257.216052 
L 182.752976 257.850847 
L 183.237794 257.656807 
L 183.722612 257.072314 
L 184.20743 257.884382 
L 184.692248 258.217348 
L 185.177066 259.623494 
L 185.661884 259.058164 
L 186.146702 260.001985 
L 186.63152 258.818604 
L 187.116338 258.402985 
L 187.601156 258.566729 
L 188.085974 257.93106 
L 188.570792 258.077934 
L 189.540428 257.841949 
L 190.025246 257.309827 
L 190.510064 257.148485 
L 191.4797 256.46706 
L 192.449336 256.712663 
L 193.418972 255.248655 
L 193.90379 255.391044 
L 194.388608 255.850984 
L 194.873426 255.32569 
L 195.358244 256.112427 
L 195.843062 255.991399 
L 196.32788 256.485207 
L 196.812698 256.43439 
L 197.297516 257.257435 
L 197.782334 257.69075 
L 198.267152 256.485207 
L 198.75197 256.291561 
L 199.236788 256.228629 
L 199.721606 256.303662 
L 200.206424 255.891477 
L 200.691242 256.564345 
L 201.17606 255.018701 
L 201.660878 254.848045 
L 202.145696 254.540877 
L 202.630514 254.072803 
L 203.60015 253.694921 
L 204.084968 253.619351 
L 205.054604 253.619351 
L 205.539422 252.807519 
L 206.02424 252.543478 
L 206.509058 252.599791 
L 206.993876 252.337768 
L 207.478694 252.707544 
L 207.963512 251.816184 
L 208.44833 252.629186 
L 210.387602 249.82291 
L 211.357238 250.677518 
L 211.842056 250.346933 
L 212.326874 250.743644 
L 212.811692 251.543971 
L 213.29651 251.211633 
L 213.781328 250.571595 
L 214.266146 249.466282 
L 214.750964 249.057653 
L 215.235782 249.072408 
L 215.7206 248.619463 
L 216.205418 249.023191 
L 216.690236 249.87985 
L 217.175054 249.685389 
L 217.659872 250.416511 
L 218.14469 249.828166 
L 218.629508 249.018252 
L 219.114326 248.471228 
L 219.599144 248.918982 
L 220.083962 248.923912 
L 220.56878 248.584996 
L 221.053598 247.563371 
L 221.538416 247.177462 
L 222.023234 247.113173 
L 222.508052 246.845985 
L 222.99287 246.163247 
L 223.477688 245.975257 
L 224.447324 245.943094 
L 224.932142 246.643146 
L 225.41696 245.545907 
L 225.901778 244.976344 
L 226.386596 245.215088 
L 226.871414 244.904219 
L 227.356232 245.02857 
L 227.84105 246.209965 
L 228.325868 246.38655 
L 228.810686 246.013481 
L 229.295504 244.934056 
L 229.780322 244.966383 
L 230.749958 243.879511 
L 231.234776 244.77487 
L 231.719594 244.187478 
L 232.204412 244.36483 
L 232.68923 244.137528 
L 233.174048 245.359094 
L 233.658866 244.140009 
L 234.143684 244.164986 
L 234.628502 243.72282 
L 235.598138 243.725324 
L 237.052592 241.894201 
L 237.53741 242.206462 
L 238.022228 241.519744 
L 238.507046 241.549889 
L 238.991864 240.95248 
L 239.476682 241.351592 
L 239.9615 241.075484 
L 240.446318 241.072975 
L 240.931136 242.383229 
L 241.415954 242.197468 
L 241.900772 241.574978 
L 242.38559 240.70398 
L 242.870408 240.322454 
L 243.355226 240.222039 
L 243.840044 240.719029 
L 244.324862 240.089466 
L 244.80968 240.795583 
L 245.294498 241.143586 
L 245.779316 242.651637 
L 246.264134 243.173665 
L 246.748952 241.166274 
L 247.23377 239.847377 
L 247.718588 239.423703 
L 248.203406 239.196752 
L 248.688224 238.581429 
L 249.65786 238.248536 
L 250.142678 240.041558 
L 250.627496 238.334327 
L 251.112314 237.847466 
L 251.597132 238.610715 
L 252.08195 238.909931 
L 252.566768 239.574302 
L 253.051586 238.72737 
L 253.536404 240.127105 
L 254.021222 238.580285 
L 254.50604 237.507681 
L 254.990858 237.137453 
L 255.475676 237.284519 
L 255.960494 238.085832 
L 256.445312 238.509295 
L 256.93013 237.109765 
L 257.414948 238.299239 
L 257.899766 238.120948 
L 258.384584 237.204003 
L 258.869402 237.736334 
L 259.35422 236.793926 
L 259.839038 237.030819 
L 261.293492 236.452622 
L 262.263128 237.272778 
L 262.747946 237.211652 
L 263.232764 236.74669 
L 263.717582 237.000095 
L 264.2024 237.642507 
L 264.687218 237.59899 
L 265.172036 236.319269 
L 265.656854 237.465912 
L 266.141672 236.826042 
L 266.62649 237.478695 
L 267.111308 237.102458 
L 267.596126 240.068857 
L 268.080944 239.697741 
L 268.565762 241.410018 
L 269.05058 240.347833 
L 269.535398 240.41793 
L 270.020216 241.086847 
L 270.505034 240.533702 
L 270.989852 238.905146 
L 271.47467 238.406049 
L 271.959488 237.315201 
L 272.444306 237.207152 
L 272.929124 236.664296 
L 273.413942 238.593862 
L 273.89876 236.852094 
L 274.868396 236.772359 
L 275.353214 238.763663 
L 275.838032 238.935917 
L 276.32285 237.471089 
L 276.807668 237.939527 
L 277.292486 241.032257 
L 277.777304 242.09596 
L 278.74694 240.566412 
L 279.231758 242.059727 
L 279.716576 242.401343 
L 280.201394 241.01155 
L 280.686212 240.211863 
L 281.17103 238.829817 
L 282.140666 237.53471 
L 282.625484 237.862492 
L 283.110302 236.873979 
L 283.59512 237.5035 
L 284.079938 236.650242 
L 284.564756 236.340672 
L 285.049574 237.027446 
L 286.01921 237.43587 
L 286.504028 237.245955 
L 286.988846 236.010302 
L 287.958482 236.05451 
L 288.4433 236.698618 
L 288.928118 237.556324 
L 289.412936 235.809543 
L 290.382572 234.264119 
L 290.86739 233.895404 
L 291.352208 233.926792 
L 291.837026 233.6496 
L 292.806662 233.55546 
L 293.29148 233.882336 
L 293.776298 233.599921 
L 294.261116 234.930924 
L 294.745934 234.625541 
L 295.230752 233.936968 
L 295.71557 233.855504 
L 296.200388 234.186659 
L 296.685206 234.691255 
L 297.170024 234.465224 
L 297.654842 234.843699 
L 298.13966 235.89231 
L 298.624478 233.823976 
L 299.109296 233.277306 
L 299.594114 232.4836 
L 300.078932 232.96719 
L 300.56375 231.17216 
L 301.048568 231.209901 
L 301.533386 231.032784 
L 302.018204 231.609093 
L 302.503022 230.636236 
L 303.472658 230.760479 
L 303.957476 230.170952 
L 304.442294 230.073154 
L 304.927112 229.499461 
L 305.41193 228.553039 
L 306.381566 227.672715 
L 306.866384 227.865691 
L 307.351202 227.76757 
L 307.83602 228.609255 
L 308.320838 228.110088 
L 308.805656 228.253468 
L 309.290474 228.967701 
L 309.775292 228.415425 
L 310.26011 227.488771 
L 310.744928 227.058645 
L 311.714564 227.427715 
L 312.199382 226.524955 
L 312.6842 225.871803 
L 313.169018 226.073585 
L 314.138654 225.833126 
L 314.623472 226.187974 
L 315.10829 226.105272 
L 315.593108 225.184772 
L 316.077926 224.832606 
L 316.562744 224.824588 
L 317.047562 224.691174 
L 317.53238 225.568984 
L 318.017198 225.945189 
L 318.502016 225.451595 
L 318.986834 224.576467 
L 319.471652 224.912631 
L 319.95647 223.886306 
L 320.441288 223.819288 
L 320.926106 223.339328 
L 321.410924 222.497386 
L 321.895742 222.341863 
L 322.38056 221.762699 
L 323.350196 221.403403 
L 324.319832 221.561594 
L 324.80465 220.891271 
L 325.289468 219.791915 
L 325.774286 219.510378 
L 326.259104 218.87696 
L 326.743922 218.607483 
L 327.22874 218.782648 
L 327.713558 217.014711 
L 328.198376 215.801933 
L 328.683194 215.130862 
L 329.168012 213.46805 
L 329.65283 216.467621 
L 330.137648 220.227204 
L 330.622466 217.09825 
L 331.107284 216.667054 
L 331.592102 218.18436 
L 332.07692 215.545902 
L 332.561738 216.508536 
L 333.046556 220.878455 
L 333.531374 219.498473 
L 334.016192 220.426556 
L 334.50101 218.957313 
L 334.985828 218.562279 
L 335.470646 218.575791 
L 335.955464 218.721895 
L 336.440282 216.873817 
L 336.9251 217.285128 
L 337.409918 217.063213 
L 337.894736 216.670871 
L 338.379554 215.428906 
L 338.864372 215.379025 
L 339.34919 216.028599 
L 339.834008 216.969031 
L 340.803644 214.710389 
L 341.288462 214.685911 
L 342.258098 213.620466 
L 342.742916 213.740064 
L 343.712552 212.557749 
L 344.19737 211.796692 
L 344.682188 212.533286 
L 345.651824 210.980816 
L 346.136642 211.327567 
L 346.62146 212.119344 
L 347.106278 215.360192 
L 347.591096 215.278293 
L 348.075914 218.259769 
L 349.04555 214.86601 
L 349.530368 215.966324 
L 350.015186 218.827659 
L 350.500004 215.442137 
L 350.984822 218.74028 
L 351.46964 219.586684 
L 351.954458 224.600688 
L 352.439276 222.664594 
L 352.924094 221.390349 
L 353.89373 217.526423 
L 354.378548 217.713137 
L 354.863366 216.537742 
L 355.348184 216.425156 
L 355.833002 214.530257 
L 356.802638 213.692646 
L 357.287456 215.329439 
L 357.772274 213.107983 
L 358.257092 213.676191 
L 358.74191 212.785257 
L 359.226728 211.105414 
L 359.711546 210.666845 
L 360.196364 210.705456 
L 360.681182 209.770384 
L 361.166 209.599382 
L 361.650818 211.235086 
L 362.135636 211.858449 
L 362.620454 212.702484 
L 363.105272 214.774005 
L 363.59009 211.359217 
L 364.074908 210.915107 
L 364.559726 209.213235 
L 365.044544 209.490398 
L 365.529362 207.977077 
L 366.01418 207.370029 
L 366.498998 208.334602 
L 366.983816 206.993058 
L 367.468634 209.595756 
L 367.953452 209.872901 
L 368.43827 210.640672 
L 368.923088 211.749372 
L 369.407906 209.642852 
L 369.892724 208.090695 
L 370.377542 207.248066 
L 370.86236 207.645137 
L 371.347178 208.447099 
L 371.831996 208.739456 
L 372.801632 207.731488 
L 374.740904 203.883214 
L 375.225722 204.114347 
L 375.71054 203.181517 
L 376.195358 203.025578 
L 376.680176 202.343373 
L 377.164994 200.954753 
L 377.649812 200.35875 
L 378.13463 200.484656 
L 378.619448 199.561236 
L 379.104266 197.815156 
L 379.589084 198.705011 
L 380.073902 200.674945 
L 380.55872 197.745157 
L 381.043538 196.234144 
L 381.528356 197.387016 
L 382.013174 207.802019 
L 382.497992 207.466239 
L 382.98281 215.340461 
L 383.467628 226.302405 
L 383.952446 219.372661 
L 384.437264 220.844726 
L 384.922082 212.397886 
L 385.4069 210.022261 
L 385.891718 211.055244 
L 386.376536 211.105919 
L 386.861354 208.389743 
L 387.346172 210.12361 
L 388.315808 205.045906 
L 388.800626 200.81826 
L 389.285444 205.076883 
L 389.770262 203.447682 
L 390.25508 205.876116 
L 390.739898 202.432771 
L 391.709534 199.74988 
L 392.194352 199.987349 
L 392.67917 198.392881 
L 393.163988 196.117087 
L 394.133624 194.729018 
L 394.618442 191.590954 
L 395.588078 196.261271 
L 396.557714 197.39608 
L 397.042532 195.945674 
L 397.52735 192.252918 
L 398.012168 192.128021 
L 398.496986 192.55662 
L 398.981804 198.017686 
L 399.466622 191.313416 
L 399.95144 189.059731 
L 400.436258 189.845986 
L 400.921076 187.478748 
L 401.405894 185.72465 
L 401.890712 186.732263 
L 402.37553 185.468138 
L 402.860348 185.519438 
L 403.345166 184.128435 
L 403.829984 182.024755 
L 404.314802 183.609626 
L 404.79962 181.562947 
L 405.284438 185.214429 
L 405.769256 180.186194 
L 406.254074 178.780884 
L 406.738892 179.524864 
L 407.22371 182.281314 
L 407.708528 181.349176 
L 408.193346 178.376114 
L 408.678164 179.318027 
L 409.162982 177.45916 
L 409.6478 176.135044 
L 410.132618 173.023573 
L 410.617436 171.373451 
L 411.102254 171.522176 
L 411.587072 171.362004 
L 412.07189 169.983587 
L 412.556708 171.567907 
L 413.041526 172.036938 
L 413.526344 170.578413 
L 414.011162 169.846309 
L 414.49598 169.357271 
L 414.980798 171.654436 
L 415.465616 168.300367 
L 415.950434 166.260388 
L 416.435252 165.743933 
L 416.92007 166.943256 
L 417.404888 164.475753 
L 417.889706 164.886055 
L 418.859342 162.759976 
L 419.34416 163.494481 
L 419.828978 161.517614 
L 420.313796 160.705663 
L 420.798614 162.897684 
L 421.283432 163.65113 
L 421.76825 162.928642 
L 422.253068 165.71205 
L 422.737886 164.67006 
L 423.707522 160.277681 
L 424.19234 158.513239 
L 424.677158 155.842113 
L 425.161976 156.204778 
L 425.646794 155.738465 
L 426.131612 158.593835 
L 426.61643 160.19133 
L 427.101248 155.205967 
L 427.586066 157.869739 
L 428.070884 154.770407 
L 428.555702 153.511029 
L 429.04052 156.073106 
L 429.525338 156.46884 
L 430.010156 164.192618 
L 430.494974 163.045895 
L 430.979792 161.096164 
L 431.46461 163.476297 
L 431.949428 165.275799 
L 432.434246 164.259066 
L 432.919064 165.870839 
L 433.403882 169.365878 
L 433.8887 161.904658 
L 434.373518 159.537439 
L 434.858336 159.470813 
L 435.343154 161.020942 
L 436.31279 167.259161 
L 436.797608 171.327177 
L 437.282426 171.518429 
L 437.767244 174.305771 
L 438.252062 177.808808 
L 438.73688 170.38262 
L 439.221698 171.750197 
L 440.191334 184.238166 
L 440.676152 177.19021 
L 441.16097 179.762613 
L 441.645788 177.600494 
L 442.130606 178.630617 
L 442.615424 175.732292 
L 443.100242 170.814433 
L 443.58506 170.383769 
L 444.069878 166.417476 
L 444.554696 167.860798 
L 445.524332 176.561652 
L 446.00915 172.382923 
L 446.978786 183.19012 
L 447.463604 186.337024 
L 447.948422 184.697834 
L 448.43324 186.205558 
L 449.402876 177.033617 
L 449.887694 180.735708 
L 450.372512 174.260722 
L 450.85733 174.98535 
L 451.342148 173.144546 
L 451.826966 171.806301 
L 452.311784 175.788882 
L 452.796602 178.199487 
L 453.766238 178.446066 
L 454.251056 176.78758 
L 454.735874 173.728943 
L 455.220692 174.498022 
L 455.70551 171.621376 
L 456.190328 169.663505 
L 456.675146 170.928631 
L 457.159964 171.157586 
L 457.644782 174.351241 
L 458.1296 172.058739 
L 458.614418 177.424539 
L 459.584054 174.092803 
L 460.068872 170.073723 
L 460.55369 170.132649 
L 461.038508 169.169151 
L 461.523326 169.245746 
L 462.008144 168.146689 
L 462.492962 169.119046 
L 462.97778 169.425495 
L 463.462598 167.354072 
L 463.947416 166.941555 
L 464.432234 164.613769 
L 464.917052 164.030353 
L 465.40187 160.73249 
L 465.886688 162.580901 
L 466.371506 159.6027 
L 466.856324 161.001599 
L 467.341142 157.828222 
L 467.82596 156.97054 
L 468.310778 155.568678 
L 468.795596 158.558718 
L 469.280414 158.901769 
L 469.765232 161.607881 
L 470.25005 160.581644 
L 470.734868 157.263327 
L 471.219686 158.940221 
L 471.704504 159.11355 
L 472.189322 162.957012 
L 472.67414 163.829589 
L 473.643776 162.63649 
L 474.613412 168.8157 
L 475.09823 161.689709 
L 475.583048 159.932706 
L 476.067866 156.911352 
L 477.037502 154.445017 
L 477.52232 154.118544 
L 478.007138 150.844089 
L 478.491956 149.556742 
L 478.976774 149.062061 
L 479.461592 151.264249 
L 479.94641 148.653796 
L 481.400864 143.388214 
L 481.885682 141.346945 
L 482.3705 141.850579 
L 482.855318 139.365293 
L 483.340136 137.875324 
L 483.824954 138.21203 
L 484.309772 138.303203 
L 484.79459 134.901477 
L 485.279408 134.345496 
L 485.764226 135.732491 
L 486.249044 137.998314 
L 486.733862 142.688395 
L 487.21868 138.772505 
L 487.703498 137.866764 
L 488.673134 132.438357 
L 489.157952 132.441347 
L 489.64277 133.06015 
L 490.127588 131.075274 
L 490.612406 128.453729 
L 491.097224 127.411477 
L 491.582042 127.498454 
L 492.06686 124.373659 
L 492.551678 122.769267 
L 493.036496 126.068018 
L 493.521314 127.432502 
L 494.006132 130.89319 
L 494.49095 130.866203 
L 494.975768 124.472616 
L 495.460586 122.127515 
L 495.945404 121.662707 
L 496.430222 128.656035 
L 496.91504 122.163472 
L 497.399858 119.769518 
L 497.884676 118.800955 
L 498.369494 118.346744 
L 498.854312 116.361383 
L 499.33913 114.85436 
L 499.823948 116.523844 
L 500.308766 118.930281 
L 500.793584 110.763393 
L 501.278402 114.505422 
L 501.76322 111.569551 
L 502.248038 109.451911 
L 502.732856 107.869628 
L 503.217674 108.952547 
L 503.702492 112.282601 
L 504.18731 111.117582 
L 504.672128 112.041143 
L 505.156946 115.499962 
L 505.641764 110.341887 
L 506.126582 107.206009 
L 506.6114 109.062213 
L 507.096218 109.379081 
L 507.581036 106.683865 
L 508.065854 109.629603 
L 508.550672 111.368086 
L 509.03549 116.879285 
L 509.520308 120.836104 
L 510.005126 119.970945 
L 510.489944 122.489609 
L 510.974762 137.740952 
L 511.45958 129.064833 
L 511.944398 131.344355 
L 512.429216 124.009284 
L 512.914034 119.129354 
L 513.398852 119.861953 
L 513.88367 110.822562 
L 514.368488 115.390708 
L 515.338124 109.32707 
L 515.822942 109.974896 
L 516.30776 110.266478 
L 516.792578 104.002777 
L 517.277396 100.836007 
L 517.762214 101.358245 
L 518.247032 100.155905 
L 518.73185 97.265429 
L 519.216668 101.935129 
L 519.701486 97.241133 
L 520.186304 95.340469 
L 520.671122 94.772724 
L 521.15594 94.851646 
L 521.640757 94.186738 
L 522.610393 88.630425 
L 523.095211 89.202805 
L 523.580029 86.95283 
L 524.064847 91.882098 
L 525.034483 84.504959 
L 525.519301 83.040509 
L 526.004119 86.417005 
L 526.488937 86.124713 
L 526.973755 90.052265 
L 527.458573 82.635561 
L 527.943391 81.935294 
L 528.428209 83.131822 
L 528.913027 82.875749 
L 529.397845 79.90764 
L 529.882663 82.087925 
L 530.367481 78.759478 
L 531.337117 80.23744 
L 531.821935 79.400745 
L 532.306753 79.812982 
L 532.791571 82.521541 
L 533.276389 80.176347 
L 533.761207 81.226804 
L 534.246025 85.382788 
L 535.215661 92.112587 
L 535.700479 96.546304 
L 536.670115 82.654175 
L 537.154933 73.260072 
L 537.639751 72.09653 
L 538.124569 70.041945 
L 538.609387 64.845801 
L 539.094205 64.3712 
L 539.579023 62.3901 
L 540.063841 59.070942 
L 540.548659 64.867237 
L 541.518295 62.053292 
L 541.518295 62.053292 
" clip-path="url(#pd205ca16fd)" style="fill: none; stroke: #b6892b; stroke-width: 2.1; stroke-linecap: square"/>
   </g>
   <g id="line2d_26">
    <path d="M 59.609205 257.727568 
L 60.094023 258.035149 
L 61.548477 257.817857 
L 62.033295 257.961877 
L 63.972567 257.414016 
L 64.457385 257.602877 
L 64.942203 257.353317 
L 65.427021 257.299352 
L 66.396657 256.765687 
L 67.366293 256.931664 
L 67.851111 256.826667 
L 68.335929 257.076968 
L 68.820747 256.879737 
L 69.305565 256.444415 
L 70.275201 256.363281 
L 71.729655 256.124193 
L 72.214473 255.868077 
L 73.184109 256.284027 
L 73.668927 256.160582 
L 75.608199 255.155216 
L 76.093017 255.234398 
L 76.577835 255.102006 
L 77.062653 255.18496 
L 77.547471 255.461475 
L 78.032289 255.585935 
L 78.517107 255.122749 
L 79.001925 255.451317 
L 79.97156 254.81983 
L 80.456378 255.021044 
L 81.426014 254.893696 
L 81.910832 255.168887 
L 82.39565 255.315208 
L 82.880468 255.080097 
L 83.365286 254.975256 
L 83.850104 255.087091 
L 84.334922 255.07663 
L 84.81974 255.412128 
L 85.304558 255.273889 
L 85.789376 255.898388 
L 86.759012 255.494935 
L 87.24383 255.630917 
L 87.728648 255.402019 
L 88.213466 255.842249 
L 88.698284 255.673173 
L 89.183102 255.380348 
L 89.66792 255.45106 
L 90.152738 255.263662 
L 91.122374 255.07624 
L 92.09201 254.773083 
L 92.576828 254.847635 
L 93.061646 255.660554 
L 93.546464 255.553469 
L 94.031282 259.195948 
L 94.5161 257.167979 
L 95.970554 255.953938 
L 96.94019 256.12213 
L 97.425008 255.467163 
L 98.879462 254.053797 
L 99.36428 253.44645 
L 99.849098 253.354116 
L 100.333916 253.729226 
L 100.818734 253.336048 
L 101.303552 253.942016 
L 101.78837 253.866269 
L 102.273188 254.160927 
L 102.758006 253.856867 
L 103.242824 254.150063 
L 103.727642 254.255027 
L 104.21246 254.132652 
L 104.697278 254.143541 
L 105.182096 253.903846 
L 105.666914 254.212512 
L 106.63655 254.10776 
L 107.121368 254.016642 
L 107.606186 253.736048 
L 108.091004 253.806103 
L 108.575822 253.711047 
L 109.06064 253.34179 
L 109.545458 253.520937 
L 110.030276 253.400306 
L 110.515094 254.006095 
L 111.969548 253.217677 
L 112.454366 253.169016 
L 112.939184 252.848928 
L 113.424002 253.110152 
L 113.90882 253.029188 
L 114.393638 252.767957 
L 114.878456 253.20207 
L 115.363274 252.633606 
L 115.848092 252.681591 
L 117.302546 252.100653 
L 117.787364 252.100653 
L 118.272182 251.896974 
L 118.757 251.833256 
L 119.241818 252.004162 
L 120.211454 251.937251 
L 120.696272 251.76265 
L 121.18109 251.805883 
L 122.635544 251.328836 
L 123.60518 251.582209 
L 124.089998 251.533617 
L 124.574816 251.862687 
L 125.059634 252.003708 
L 126.514088 251.52745 
L 127.483724 251.427218 
L 127.968542 251.570189 
L 128.45336 251.577689 
L 128.938178 251.378331 
L 130.392632 251.173419 
L 130.87745 251.373398 
L 131.847086 251.418422 
L 132.331904 251.176176 
L 132.816722 251.244293 
L 133.30154 250.998279 
L 133.786358 251.062074 
L 134.755994 250.496353 
L 135.240812 250.5685 
L 138.14972 249.933484 
L 138.634538 249.66995 
L 139.119356 249.66995 
L 139.604174 249.509554 
L 140.57381 249.343337 
L 141.058628 249.224601 
L 141.543446 249.28968 
L 142.028264 249.218326 
L 142.513082 249.41806 
L 144.452354 248.808942 
L 144.937172 249.116915 
L 145.42199 248.932135 
L 145.906808 248.912892 
L 146.391626 248.779343 
L 146.876444 249.207757 
L 148.330898 249.477865 
L 148.815716 249.850314 
L 149.785352 249.842565 
L 150.27017 249.541661 
L 150.754988 249.635096 
L 151.239806 249.549469 
L 151.724624 249.59617 
L 152.209442 249.498849 
L 152.69426 249.9999 
L 153.179078 249.984271 
L 153.663896 249.83205 
L 154.148714 249.535308 
L 154.633532 249.592321 
L 155.11835 249.353525 
L 155.603168 249.23999 
L 156.087986 249.502273 
L 156.572804 249.493123 
L 157.057622 249.650149 
L 157.54244 249.300734 
L 158.027258 249.179019 
L 158.996894 248.700966 
L 159.96653 248.571013 
L 160.936166 248.317626 
L 162.39062 248.195191 
L 162.875438 248.560861 
L 163.845074 248.089568 
L 164.329892 248.10541 
L 165.784346 247.315697 
L 166.269164 247.001943 
L 166.753982 247.260122 
L 167.2388 246.940991 
L 167.723618 246.857385 
L 168.208436 246.984763 
L 168.693254 246.829537 
L 169.178072 246.877318 
L 169.66289 247.140933 
L 170.147708 247.256545 
L 170.632526 247.06913 
L 171.117344 247.029243 
L 171.602162 246.719117 
L 173.056616 246.867052 
L 174.026252 246.73067 
L 174.51107 246.465336 
L 174.995888 246.577905 
L 175.480706 246.373669 
L 175.965524 246.425929 
L 176.450342 246.253042 
L 176.93516 246.48223 
L 177.904796 246.138641 
L 178.874432 246.227352 
L 179.844068 246.051173 
L 180.328886 246.176451 
L 180.813704 246.544176 
L 181.78334 246.313827 
L 182.268158 246.304509 
L 182.752976 246.008915 
L 185.661884 245.688464 
L 186.146702 245.31568 
L 186.63152 245.600388 
L 187.116338 245.405175 
L 187.601156 245.543425 
L 188.570792 245.232691 
L 189.540428 244.890444 
L 190.994882 245.025299 
L 191.4797 245.286611 
L 192.449336 244.821122 
L 193.418972 245.140648 
L 194.388608 244.698818 
L 194.873426 244.855799 
L 195.358244 244.667251 
L 195.843062 244.818918 
L 199.236788 244.564707 
L 200.206424 244.787805 
L 200.691242 244.626335 
L 201.17606 244.829224 
L 202.145696 244.771251 
L 203.115332 245.09401 
L 203.60015 244.952966 
L 204.569786 244.940524 
L 205.054604 244.70858 
L 205.539422 245.057696 
L 207.478694 244.375333 
L 208.44833 244.358697 
L 208.933148 244.254548 
L 210.87242 244.842233 
L 211.357238 245.163595 
L 211.842056 245.291109 
L 212.326874 245.220068 
L 212.811692 246.127351 
L 213.29651 245.876463 
L 213.781328 246.367425 
L 214.750964 245.663703 
L 215.7206 245.858662 
L 216.205418 245.732744 
L 216.690236 246.286745 
L 217.659872 246.127283 
L 218.14469 246.435029 
L 218.629508 246.262641 
L 219.114326 245.808532 
L 219.599144 245.589887 
L 220.56878 245.602025 
L 221.053598 245.311381 
L 221.538416 245.206098 
L 222.508052 245.627992 
L 222.99287 245.400105 
L 223.477688 245.45077 
L 223.962506 245.366344 
L 224.447324 245.622968 
L 226.386596 245.572163 
L 226.871414 245.334954 
L 227.84105 245.131634 
L 228.325868 244.92407 
L 229.780322 244.951234 
L 230.26514 244.751781 
L 230.749958 245.006859 
L 231.234776 244.811278 
L 231.719594 244.955854 
L 233.174048 244.510963 
L 233.658866 244.613181 
L 234.143684 244.527994 
L 234.628502 244.319872 
L 235.11332 244.315582 
L 235.598138 244.097948 
L 236.082956 244.085116 
L 236.567774 243.897361 
L 237.052592 244.146635 
L 238.022228 244.120995 
L 238.507046 243.928584 
L 238.991864 244.174452 
L 239.476682 243.943125 
L 241.415954 243.762743 
L 241.900772 243.543861 
L 242.38559 243.685467 
L 242.870408 243.505226 
L 243.355226 243.683644 
L 243.840044 244.001765 
L 244.324862 243.980282 
L 245.294498 243.6322 
L 246.264134 243.106792 
L 247.23377 243.296287 
L 248.688224 243.291118 
L 249.173042 242.984828 
L 249.65786 243.291037 
L 250.142678 242.884478 
L 251.112314 243.079274 
L 252.08195 242.519456 
L 253.536404 241.933649 
L 254.021222 242.430845 
L 254.990858 242.652533 
L 255.475676 242.370011 
L 255.960494 242.942089 
L 256.445312 242.66347 
L 256.93013 242.236802 
L 257.414948 242.293402 
L 257.899766 242.096864 
L 258.384584 242.175378 
L 258.869402 241.992184 
L 259.35422 242.066331 
L 259.839038 242.482716 
L 260.808674 242.5439 
L 261.293492 242.723058 
L 261.77831 242.556999 
L 262.263128 243.176092 
L 262.747946 243.162952 
L 263.232764 242.887121 
L 263.717582 243.32497 
L 264.2024 243.12978 
L 264.687218 243.156119 
L 266.141672 242.664771 
L 267.111308 242.760161 
L 267.596126 242.456853 
L 268.080944 242.790898 
L 268.565762 242.574138 
L 269.05058 242.666639 
L 269.535398 242.56974 
L 270.020216 242.644603 
L 270.505034 242.254485 
L 270.989852 242.457465 
L 271.47467 242.263299 
L 271.959488 242.272141 
L 272.444306 242.404525 
L 272.929124 242.840057 
L 273.89876 242.676442 
L 274.383578 242.610121 
L 274.868396 242.681185 
L 275.353214 242.481496 
L 276.32285 242.684622 
L 276.807668 242.684622 
L 277.292486 242.395674 
L 277.777304 242.275669 
L 278.262122 242.315642 
L 278.74694 242.088948 
L 280.686212 241.715601 
L 281.17103 241.876001 
L 281.655848 241.85816 
L 282.140666 241.523344 
L 282.625484 241.550114 
L 283.59512 241.107032 
L 284.079938 241.075742 
L 284.564756 241.26809 
L 286.01921 240.87181 
L 286.504028 241.167572 
L 286.988846 241.127232 
L 287.473664 240.728567 
L 288.928118 240.468153 
L 289.412936 240.027034 
L 289.897754 239.757135 
L 290.382572 240.202456 
L 291.352208 239.86059 
L 291.837026 240.150372 
L 292.321844 239.943066 
L 293.29148 240.073772 
L 293.776298 239.993559 
L 294.261116 240.255451 
L 294.745934 240.223835 
L 295.71557 239.943928 
L 296.200388 240.232059 
L 296.685206 240.327036 
L 297.170024 240.118973 
L 297.654842 240.422036 
L 298.13966 240.290722 
L 298.624478 241.192533 
L 299.109296 241.59137 
L 299.594114 241.681967 
L 300.56375 241.739242 
L 301.048568 242.016197 
L 302.503022 241.420909 
L 302.98784 241.361793 
L 303.472658 241.516471 
L 304.442294 241.449197 
L 304.927112 241.244005 
L 305.41193 241.289577 
L 305.896748 240.99775 
L 306.866384 241.673806 
L 307.83602 241.189436 
L 308.805656 241.051308 
L 309.290474 240.671296 
L 310.26011 240.680414 
L 310.744928 240.823136 
L 311.229746 240.722196 
L 311.714564 240.446883 
L 312.199382 240.483578 
L 312.6842 240.194154 
L 313.169018 240.322924 
L 313.653836 240.148196 
L 314.138654 240.097617 
L 315.10829 240.523315 
L 316.077926 240.053332 
L 316.562744 240.154702 
L 318.502016 239.854537 
L 318.986834 239.817806 
L 319.471652 239.600357 
L 319.95647 239.845582 
L 321.410924 240.032131 
L 321.895742 239.763219 
L 322.38056 240.022867 
L 322.865378 240.050666 
L 323.350196 239.847396 
L 323.835014 240.061118 
L 324.80465 239.810211 
L 325.774286 239.860531 
L 326.259104 239.730156 
L 326.743922 239.992743 
L 327.22874 239.778486 
L 328.198376 240.053305 
L 328.683194 240.314137 
L 329.168012 240.225626 
L 329.65283 240.658551 
L 330.137648 240.863975 
L 331.592102 240.89439 
L 332.07692 240.936526 
L 332.561738 240.782102 
L 333.046556 240.824201 
L 333.531374 240.52478 
L 334.50101 240.621851 
L 334.985828 240.996984 
L 336.440282 240.950019 
L 336.9251 241.213186 
L 337.409918 240.827779 
L 337.894736 240.729719 
L 338.379554 240.885163 
L 339.834008 240.616641 
L 340.803644 240.418853 
L 341.77328 240.621829 
L 343.227734 240.323223 
L 343.712552 240.195446 
L 345.651824 240.687383 
L 346.136642 240.658922 
L 346.62146 241.104847 
L 347.106278 240.905204 
L 347.591096 241.085826 
L 348.075914 240.833873 
L 348.560732 241.003708 
L 349.04555 240.951148 
L 349.530368 240.702736 
L 350.015186 240.707506 
L 350.500004 240.597621 
L 350.984822 240.190114 
L 351.46964 240.151782 
L 352.924094 239.509003 
L 353.89373 239.672146 
L 354.863366 239.246326 
L 355.348184 239.068325 
L 356.31782 239.039456 
L 356.802638 239.281647 
L 357.287456 238.89585 
L 357.772274 238.765648 
L 358.257092 238.321999 
L 358.74191 238.10499 
L 359.226728 238.307046 
L 360.196364 238.403732 
L 360.681182 238.15235 
L 361.166 238.205503 
L 362.620454 237.687032 
L 363.105272 237.207324 
L 363.59009 237.017896 
L 364.074908 236.998468 
L 364.559726 236.731329 
L 365.044544 236.619639 
L 365.529362 236.623516 
L 366.01418 236.769561 
L 366.498998 236.584609 
L 366.983816 236.56513 
L 368.43827 235.238021 
L 368.923088 235.184336 
L 369.407906 235.013539 
L 369.892724 235.109913 
L 370.377542 236.048926 
L 370.86236 235.476707 
L 371.347178 235.369103 
L 371.831996 234.910836 
L 372.316814 235.445131 
L 372.801632 235.410808 
L 373.28645 235.499038 
L 373.771268 235.224015 
L 374.256086 235.774238 
L 375.225722 235.253459 
L 377.164994 235.308994 
L 378.13463 234.96871 
L 379.104266 234.948973 
L 380.073902 234.159891 
L 380.55872 234.252333 
L 381.043538 234.217733 
L 381.528356 233.916253 
L 382.013174 233.263866 
L 382.497992 232.333309 
L 382.98281 235.304768 
L 383.467628 236.211063 
L 383.952446 233.467422 
L 384.437264 233.636446 
L 384.922082 232.509823 
L 386.376536 232.581277 
L 386.861354 232.785186 
L 387.83099 232.297824 
L 388.315808 232.193371 
L 388.800626 232.460437 
L 389.285444 232.121632 
L 390.739898 231.706435 
L 393.163988 230.984082 
L 393.648806 231.599112 
L 394.133624 231.359088 
L 394.618442 231.6441 
L 395.588078 231.416436 
L 397.52735 231.640935 
L 398.012168 231.555652 
L 398.981804 231.901844 
L 399.466622 231.503809 
L 399.95144 231.584231 
L 400.436258 231.257591 
L 400.921076 231.272662 
L 401.405894 231.50638 
L 401.890712 231.284877 
L 402.37553 231.342787 
L 403.345166 231.141222 
L 403.829984 231.700609 
L 404.79962 231.614932 
L 405.284438 231.584707 
L 405.769256 231.790644 
L 406.254074 231.856248 
L 407.708528 232.922063 
L 408.678164 233.311379 
L 409.6478 232.956128 
L 410.617436 232.702964 
L 411.102254 232.596625 
L 411.587072 232.728278 
L 412.07189 232.579681 
L 412.556708 232.736898 
L 413.526344 232.6101 
L 414.011162 232.459285 
L 414.49598 232.179941 
L 414.980798 232.149467 
L 415.465616 232.367859 
L 415.950434 232.034563 
L 417.889706 231.475148 
L 418.374524 231.73131 
L 419.34416 231.542879 
L 421.283432 231.605528 
L 422.737886 232.401607 
L 423.222704 232.176826 
L 423.707522 232.437349 
L 424.677158 231.752248 
L 425.161976 232.212705 
L 426.131612 232.110401 
L 426.61643 231.745778 
L 427.101248 232.176141 
L 427.586066 231.977704 
L 428.555702 232.193117 
L 429.04052 233.008584 
L 429.525338 233.172711 
L 430.010156 233.141961 
L 430.494974 233.35736 
L 430.979792 233.911537 
L 431.949428 234.271082 
L 432.434246 234.425166 
L 432.919064 233.967452 
L 433.403882 234.939592 
L 433.8887 235.099053 
L 434.373518 236.127798 
L 434.858336 235.711295 
L 435.343154 236.7519 
L 436.31279 237.673979 
L 436.797608 237.710052 
L 437.282426 238.287494 
L 438.73688 236.96642 
L 439.221698 237.546891 
L 439.706516 238.353371 
L 440.191334 238.828981 
L 440.676152 238.461928 
L 441.16097 237.698082 
L 441.645788 238.272962 
L 443.100242 236.802066 
L 443.58506 237.40402 
L 444.069878 237.19125 
L 444.554696 237.777652 
L 445.039514 237.974824 
L 445.524332 238.517766 
L 446.00915 238.819368 
L 446.493968 239.313318 
L 446.978786 240.160905 
L 447.463604 240.608076 
L 447.948422 240.795151 
L 448.918058 241.837402 
L 449.402876 241.081759 
L 449.887694 241.428209 
L 450.372512 240.29478 
L 450.85733 240.038887 
L 451.342148 239.495664 
L 451.826966 238.723281 
L 452.311784 238.985019 
L 452.796602 238.573699 
L 453.28142 239.297757 
L 453.766238 239.811961 
L 454.251056 238.710109 
L 454.735874 238.274617 
L 455.70551 238.190659 
L 456.190328 238.198738 
L 456.675146 238.935111 
L 457.159964 239.156015 
L 457.644782 239.613624 
L 458.1296 239.516834 
L 458.614418 238.984325 
L 459.099236 238.240888 
L 459.584054 237.892901 
L 460.068872 238.167067 
L 460.55369 237.610986 
L 461.038508 238.160747 
L 461.523326 238.282321 
L 462.008144 237.864712 
L 462.97778 238.034829 
L 463.462598 238.728994 
L 463.947416 238.999256 
L 464.432234 238.587306 
L 464.917052 238.651052 
L 465.886688 238.496968 
L 466.371506 238.661684 
L 466.856324 239.28226 
L 467.341142 238.531173 
L 467.82596 238.504549 
L 468.795596 239.062258 
L 469.765232 239.628446 
L 470.734868 239.265941 
L 472.189322 239.796169 
L 473.158958 240.891855 
L 473.643776 240.413902 
L 474.128594 241.294633 
L 474.613412 240.977791 
L 475.09823 239.971654 
L 475.583048 240.090172 
L 476.067866 239.395287 
L 476.552684 239.449157 
L 477.037502 238.395321 
L 477.52232 238.362911 
L 478.007138 237.237367 
L 478.491956 237.161516 
L 478.976774 236.933987 
L 479.461592 237.502805 
L 479.94641 237.015239 
L 480.431228 237.600326 
L 480.916046 237.573253 
L 481.400864 237.203783 
L 481.885682 237.654767 
L 482.3705 237.942745 
L 482.855318 237.812352 
L 483.340136 237.552944 
L 483.824954 237.149695 
L 484.309772 237.787283 
L 484.79459 237.394906 
L 485.279408 237.32951 
L 486.249044 238.253239 
L 486.733862 238.570239 
L 487.21868 238.597567 
L 487.703498 237.964155 
L 488.188316 237.936751 
L 488.673134 237.646148 
L 489.64277 237.78322 
L 490.127588 237.562126 
L 490.612406 236.847136 
L 491.097224 236.93513 
L 491.582042 237.314643 
L 492.551678 236.420327 
L 493.036496 236.607891 
L 493.521314 236.45894 
L 494.006132 235.179707 
L 494.49095 235.611353 
L 495.460586 234.936219 
L 495.945404 235.223974 
L 496.430222 234.528952 
L 496.91504 234.22365 
L 497.399858 234.367967 
L 497.884676 234.356868 
L 498.369494 235.043043 
L 498.854312 235.299177 
L 499.33913 235.288041 
L 499.823948 235.805873 
L 500.308766 236.118371 
L 500.793584 235.682703 
L 501.278402 236.151887 
L 501.76322 236.06811 
L 502.248038 235.291687 
L 502.732856 235.044018 
L 503.217674 235.834089 
L 503.702492 236.196295 
L 504.18731 236.376174 
L 504.672128 236.280612 
L 505.156946 236.76967 
L 505.641764 236.218771 
L 506.126582 236.168179 
L 507.581036 235.598123 
L 508.065854 235.417641 
L 508.550672 234.723898 
L 509.03549 235.061085 
L 509.520308 235.100686 
L 510.005126 234.840444 
L 510.489944 234.846111 
L 510.974762 234.247622 
L 511.45958 235.621242 
L 512.429216 234.735773 
L 513.398852 235.032084 
L 513.88367 235.089033 
L 514.368488 235.328209 
L 514.853306 234.838476 
L 515.338124 235.122427 
L 515.822942 234.733923 
L 516.30776 234.58538 
L 516.792578 234.254001 
L 517.277396 234.261038 
L 517.762214 234.501775 
L 518.247032 234.467383 
L 518.73185 234.272501 
L 519.216668 233.686217 
L 519.701486 233.801239 
L 520.186304 233.801239 
L 520.671122 233.53669 
L 521.15594 233.50219 
L 521.640757 232.944217 
L 522.125575 232.690341 
L 523.095211 232.961533 
L 524.549665 232.258527 
L 525.034483 232.154337 
L 525.519301 232.501662 
L 526.488937 232.625362 
L 527.458573 232.149136 
L 527.943391 232.419485 
L 528.428209 232.547665 
L 529.397845 232.218948 
L 529.882663 232.330017 
L 530.367481 232.148791 
L 531.337117 232.178023 
L 531.821935 232.166334 
L 532.306753 231.975723 
L 532.791571 231.471322 
L 533.276389 231.524113 
L 533.761207 231.230857 
L 534.730843 232.333404 
L 535.215661 232.656983 
L 535.700479 232.727589 
L 536.185297 232.12277 
L 536.670115 232.069639 
L 537.154933 231.75676 
L 538.124569 232.122512 
L 538.609387 231.956666 
L 539.094205 232.643753 
L 540.063841 232.027743 
L 540.548659 232.359956 
L 541.033477 232.009316 
L 541.518295 231.926115 
L 541.518295 231.926115 
" clip-path="url(#pd205ca16fd)" style="fill: none; stroke: #3f6f8f; stroke-width: 1.5; stroke-linecap: square"/>
   </g>
   <g id="line2d_27">
    <path d="M 59.609205 256.741062 
L 60.094023 257.875833 
L 60.578841 257.553805 
L 61.063659 257.589586 
L 61.548477 257.850277 
L 62.033295 257.497577 
L 62.518113 256.950639 
L 63.002931 256.158343 
L 63.487749 257.267554 
L 63.972567 256.613273 
L 64.457385 256.674613 
L 64.942203 257.472018 
L 65.427021 256.909745 
L 65.911839 256.700172 
L 66.396657 255.233148 
L 66.881475 254.926454 
L 67.366293 253.725234 
L 67.851111 253.127177 
L 68.335929 253.183404 
L 69.305565 252.007744 
L 70.275201 249.89666 
L 70.760019 248.69544 
L 71.244837 250.959869 
L 71.729655 249.170817 
L 72.214473 251.179667 
L 72.699291 250.525386 
L 73.184109 250.566279 
L 73.668927 249.758649 
L 74.153745 248.276291 
L 74.638563 247.187526 
L 75.123381 245.424029 
L 75.608199 246.016974 
L 76.093017 244.544837 
L 76.577835 245.030439 
L 77.062653 244.187028 
L 77.547471 245.132669 
L 78.032289 242.965362 
L 78.517107 241.539231 
L 79.001925 241.585237 
L 79.486743 240.246002 
L 79.97156 244.744188 
L 80.456378 243.737211 
L 80.941196 244.570397 
L 81.426014 244.033679 
L 81.910832 244.381267 
L 82.880468 247.46866 
L 83.365286 246.016974 
L 83.850104 245.158229 
L 84.334922 244.06946 
L 84.81974 246.00164 
L 85.304558 245.178676 
L 85.789376 246.829713 
L 86.759012 243.946784 
L 87.24383 243.645202 
L 87.728648 242.06061 
L 88.213466 242.566659 
L 89.183102 244.917984 
L 89.66792 247.545335 
L 90.152738 251.021209 
L 90.637556 249.257713 
L 91.122374 248.935685 
L 91.607192 250.331143 
L 92.09201 252.084414 
L 92.576828 246.753039 
L 93.061646 246.415677 
L 93.546464 248.485867 
L 94.031282 248.163835 
L 95.000918 253.791683 
L 95.485736 254.236392 
L 95.970554 253.643447 
L 96.455372 253.234519 
L 96.94019 250.397596 
L 97.425008 249.651306 
L 97.909826 252.61091 
L 98.394644 249.395727 
L 98.879462 248.46542 
L 99.36428 246.947281 
L 99.849098 246.625249 
L 100.333916 247.806026 
L 100.818734 248.424527 
L 101.303552 245.449589 
L 101.78837 244.028571 
L 102.273188 244.907763 
L 102.758006 243.394732 
L 103.242824 240.711154 
L 103.727642 243.353843 
L 104.21246 243.527634 
L 104.697278 244.033679 
L 105.182096 242.863132 
L 106.151732 245.930078 
L 107.121368 247.14152 
L 107.606186 244.84131 
L 108.091004 246.257219 
L 108.575822 244.708408 
L 109.06064 243.90589 
L 110.030276 241.52901 
L 110.515094 242.801791 
L 110.999912 243.588975 
L 111.48473 243.726986 
L 111.969548 243.527634 
L 112.454366 244.059239 
L 112.939184 244.912871 
L 113.424002 243.711652 
L 113.90882 242.955136 
L 114.393638 242.985808 
L 114.878456 242.781345 
L 115.363274 243.164713 
L 115.848092 242.83246 
L 116.33291 242.720004 
L 116.817728 240.849169 
L 117.302546 240.210222 
L 117.787364 240.266449 
L 118.272182 241.120082 
L 118.757 240.419794 
L 119.241818 238.134922 
L 120.211454 237.802669 
L 120.696272 238.29338 
L 121.18109 235.788706 
L 121.665908 234.607933 
L 122.150726 232.972226 
L 122.635544 231.888574 
L 123.120362 232.558189 
L 123.60518 234.822618 
L 124.574816 235.313329 
L 125.059634 235.850046 
L 125.544452 233.774743 
L 126.02927 234.035435 
L 126.514088 235.921608 
L 127.483724 237.19439 
L 128.45336 234.745944 
L 128.938178 234.76639 
L 129.422996 234.060994 
L 129.907814 235.522906 
L 130.87745 235.195765 
L 131.362268 234.342129 
L 131.847086 232.614417 
L 132.331904 233.841196 
L 133.30154 231.735225 
L 133.786358 230.247758 
L 134.271176 229.174323 
L 134.755994 231.806786 
L 135.240812 229.935951 
L 135.72563 229.777489 
L 136.210448 229.35834 
L 136.695266 227.916875 
L 137.180084 227.952656 
L 137.664902 230.135302 
L 138.14972 230.201751 
L 138.634538 231.065609 
L 139.604174 231.668776 
L 140.088992 230.467556 
L 140.57381 230.007513 
L 141.543446 228.847182 
L 142.028264 228.412699 
L 142.513082 228.479148 
L 143.482718 225.943806 
L 144.937172 222.370818 
L 145.42199 224.38989 
L 145.906808 222.912644 
L 146.391626 220.990686 
L 146.876444 222.365702 
L 147.361262 223.12733 
L 147.84608 222.662174 
L 148.330898 220.126828 
L 148.815716 221.48651 
L 149.300534 222.105014 
L 149.785352 221.869878 
L 150.27017 219.794579 
L 150.754988 222.421929 
L 151.239806 222.87686 
L 151.724624 223.725383 
L 152.209442 224.108752 
L 152.69426 223.403351 
L 153.179078 223.065985 
L 153.663896 221.48651 
L 154.633532 219.472547 
L 155.11835 220.050158 
L 155.603168 219.973487 
L 156.087986 219.518557 
L 156.572804 219.549225 
L 157.057622 217.269458 
L 158.027258 215.695091 
L 158.512076 212.817278 
L 158.996894 216.43116 
L 159.481712 216.262477 
L 160.451348 214.182069 
L 160.936166 213.916264 
L 161.420984 214.417197 
L 161.905802 214.059388 
L 162.39062 215.940453 
L 162.875438 216.620293 
L 163.845074 211.370701 
L 164.329892 210.900437 
L 164.81471 209.791225 
L 165.299528 208.022616 
L 166.269164 198.719546 
L 166.753982 199.987215 
L 167.2388 197.037832 
L 167.723618 198.336178 
L 168.208436 200.723283 
L 168.693254 209.019372 
L 169.178072 209.908789 
L 169.66289 209.336295 
L 170.147708 207.179209 
L 170.632526 209.162496 
L 171.117344 203.999807 
L 171.602162 203.371077 
L 172.08698 201.781376 
L 172.571798 205.022122 
L 173.056616 207.179209 
L 173.541434 203.897569 
L 174.026252 205.645735 
L 174.51107 211.355367 
L 174.995888 210.803315 
L 175.480706 213.011513 
L 175.965524 210.348385 
L 176.450342 209.295402 
L 176.93516 207.859042 
L 177.419978 204.332056 
L 177.904796 205.011897 
L 178.389614 205.267476 
L 178.874432 205.160129 
L 179.35925 202.665685 
L 179.844068 205.676404 
L 180.328886 205.655953 
L 180.813704 208.252635 
L 181.298522 208.135071 
L 181.78334 207.83349 
L 182.268158 209.781 
L 182.752976 208.482655 
L 183.237794 209.152278 
L 183.722612 208.211742 
L 184.20743 209.188055 
L 184.692248 212.208999 
L 185.177066 211.70295 
L 185.661884 212.658821 
L 186.146702 210.195036 
L 186.63152 211.610946 
L 187.116338 210.021245 
L 187.601156 212.679263 
L 188.085974 211.37581 
L 188.570792 212.132321 
L 189.05561 211.912527 
L 189.540428 212.152772 
L 190.025246 210.174594 
L 190.510064 211.191792 
L 190.994882 210.358611 
L 191.4797 210.593739 
L 191.964518 207.910161 
L 192.449336 206.760056 
L 193.418972 202.885479 
L 193.90379 202.803692 
L 194.388608 202.839476 
L 194.873426 202.466333 
L 195.843062 205.354372 
L 196.32788 205.88598 
L 196.812698 207.588129 
L 197.297516 204.919884 
L 197.782334 205.911532 
L 198.267152 204.004915 
L 198.75197 205.824636 
L 199.721606 206.806058 
L 200.206424 208.748459 
L 200.691242 208.64112 
L 201.17606 208.692231 
L 201.660878 208.375316 
L 202.145696 207.337666 
L 202.630514 208.584893 
L 203.115332 208.175965 
L 203.60015 208.114621 
L 204.084968 211.084454 
L 204.569786 212.51058 
L 205.054604 212.781493 
L 205.539422 212.643479 
L 206.509058 211.191792 
L 206.993876 211.754069 
L 207.478694 212.592368 
L 208.44833 221.455842 
L 208.933148 218.675142 
L 209.417966 218.07198 
L 209.902784 219.344757 
L 210.387602 223.704933 
L 210.87242 222.329925 
L 211.357238 222.248138 
L 211.842056 222.575278 
L 212.326874 221.98745 
L 212.811692 226.782105 
L 213.29651 229.818383 
L 213.781328 230.339766 
L 214.266146 227.252373 
L 214.750964 226.751436 
L 215.235782 224.875488 
L 215.7206 226.112489 
L 216.205418 225.85691 
L 216.690236 222.933087 
L 217.175054 221.747205 
L 218.14469 222.130574 
L 218.629508 225.366199 
L 219.114326 225.294638 
L 219.599144 224.778367 
L 220.083962 226.025593 
L 220.56878 228.034443 
L 221.538416 224.016739 
L 222.023234 225.810908 
L 222.508052 227.175698 
L 222.99287 227.155252 
L 223.477688 229.404346 
L 223.962506 229.005644 
L 224.447324 230.10463 
L 224.932142 229.680372 
L 225.41696 231.438752 
L 225.901778 230.835586 
L 226.386596 229.726374 
L 227.84105 228.192901 
L 228.325868 229.317451 
L 228.810686 228.254241 
L 229.295504 225.708674 
L 229.780322 225.488876 
L 230.26514 225.468429 
L 230.749958 224.717031 
L 231.234776 222.667283 
L 232.204412 227.032575 
L 232.68923 226.516304 
L 233.174048 225.821129 
L 233.658866 226.935454 
L 234.143684 226.587866 
L 234.628502 226.776996 
L 235.11332 227.267707 
L 235.598138 227.063243 
L 236.082956 227.05813 
L 236.567774 229.143655 
L 237.052592 229.051646 
L 237.53741 227.850426 
L 238.022228 226.040927 
L 238.507046 225.95914 
L 238.991864 225.703561 
L 239.476682 224.875488 
L 239.9615 226.230057 
L 240.446318 226.403849 
L 240.931136 227.124583 
L 241.415954 226.199385 
L 241.900772 226.562307 
L 242.38559 227.732858 
L 242.870408 227.390384 
L 243.355226 228.310469 
L 243.840044 230.19153 
L 244.324862 230.850924 
L 244.80968 230.866258 
L 245.294498 232.118593 
L 245.779316 230.595345 
L 246.264134 229.879723 
L 246.748952 230.206864 
L 247.23377 233.115349 
L 247.718588 232.956891 
L 248.203406 232.190155 
L 248.688224 231.719891 
L 249.173042 233.396487 
L 249.65786 232.210602 
L 250.142678 230.68735 
L 250.627496 232.03681 
L 251.112314 232.006138 
L 251.597132 232.389506 
L 252.08195 230.764024 
L 252.566768 228.075337 
L 253.051586 227.201254 
L 253.536404 227.59996 
L 254.021222 230.058628 
L 254.50604 230.39599 
L 254.990858 231.776118 
L 255.475676 231.326297 
L 255.960494 233.524277 
L 256.445312 234.025213 
L 256.93013 232.650198 
L 257.414948 231.888574 
L 257.899766 231.776118 
L 258.384584 231.423418 
L 258.869402 231.612548 
L 259.35422 232.915998 
L 259.839038 232.900664 
L 260.323856 232.445734 
L 260.808674 230.626013 
L 261.77831 232.379285 
L 262.263128 233.330038 
L 262.747946 232.823989 
L 263.232764 231.857901 
L 263.717582 233.166468 
L 264.2024 233.575392 
L 264.687218 233.713407 
L 265.656854 236.851915 
L 266.62649 237.209724 
L 267.111308 236.085178 
L 267.596126 233.897424 
L 268.080944 235.139537 
L 269.05058 236.437875 
L 269.535398 234.878846 
L 270.020216 234.572152 
L 270.505034 234.991301 
L 271.47467 233.202249 
L 271.959488 233.708294 
L 272.444306 234.83284 
L 272.929124 237.490862 
L 273.89876 238.007133 
L 274.383578 238.947661 
L 274.868396 237.531756 
L 275.838032 238.543846 
L 276.32285 238.027576 
L 276.807668 238.840319 
L 277.292486 236.683232 
L 277.777304 237.501084 
L 278.262122 237.03082 
L 278.74694 236.034063 
L 279.716576 230.201751 
L 280.201394 230.600454 
L 280.686212 230.840699 
L 281.17103 229.087427 
L 281.655848 229.665034 
L 282.140666 229.465683 
L 282.625484 231.239401 
L 283.110302 230.932707 
L 283.59512 230.16597 
L 284.079938 230.426662 
L 284.564756 230.441996 
L 285.049574 227.497726 
L 285.534392 227.737971 
L 286.01921 228.489374 
L 286.504028 229.511689 
L 286.988846 231.602323 
L 287.958482 228.474039 
L 289.897754 223.986071 
L 290.382572 225.867136 
L 290.86739 226.117602 
L 291.352208 224.773258 
L 291.837026 225.50421 
L 292.321844 225.580885 
L 292.806662 225.289525 
L 293.29148 226.270947 
L 293.776298 226.005147 
L 294.261116 225.913138 
L 294.745934 226.776996 
L 295.230752 225.453095 
L 295.71557 226.480523 
L 296.200388 229.496355 
L 296.685206 229.690594 
L 297.170024 228.939191 
L 297.654842 228.555823 
L 298.13966 227.119471 
L 298.624478 230.845811 
L 299.109296 231.842567 
L 299.594114 233.140909 
L 300.078932 233.381153 
L 300.56375 234.270567 
L 301.048568 235.471787 
L 301.533386 235.533127 
L 302.018204 234.674382 
L 302.98784 232.323057 
L 303.472658 231.893682 
L 303.957476 232.691091 
L 304.442294 231.341635 
L 304.927112 230.590232 
L 305.41193 230.549339 
L 305.896748 229.516802 
L 306.381566 230.636235 
L 306.866384 232.062365 
L 307.83602 229.946172 
L 308.320838 230.017734 
L 308.805656 229.639479 
L 309.290474 228.034443 
L 309.775292 228.18268 
L 310.26011 228.969863 
L 310.744928 230.891814 
L 311.229746 230.983822 
L 311.714564 229.670147 
L 312.6842 228.540489 
L 313.653836 229.700819 
L 314.138654 229.654813 
L 314.623472 230.375547 
L 315.10829 231.776118 
L 315.593108 231.014494 
L 316.077926 229.741709 
L 316.562744 229.010753 
L 317.047562 229.542357 
L 317.53238 227.937322 
L 318.017198 228.187788 
L 318.502016 227.962882 
L 318.986834 226.265838 
L 319.471652 225.289525 
L 320.441288 227.707303 
L 320.926106 228.555823 
L 321.410924 228.806293 
L 321.895742 227.41083 
L 322.38056 228.540489 
L 322.865378 228.90341 
L 323.350196 229.046534 
L 323.835014 228.785846 
L 324.319832 227.901541 
L 325.289468 228.550714 
L 325.774286 230.140411 
L 326.259104 229.782602 
L 326.743922 228.882963 
L 327.22874 227.497726 
L 328.198376 225.805795 
L 328.683194 226.081821 
L 329.168012 225.238406 
L 330.137648 226.925232 
L 330.622466 225.294638 
L 331.107284 226.224945 
L 331.592102 226.608313 
L 332.07692 226.531638 
L 332.561738 227.012128 
L 333.046556 225.473542 
L 333.531374 226.403849 
L 334.016192 226.097155 
L 334.50101 225.555329 
L 334.985828 225.974478 
L 335.955464 227.042796 
L 336.440282 226.807664 
L 336.9251 228.131561 
L 337.409918 227.722637 
L 337.894736 228.090671 
L 338.379554 227.824867 
L 338.864372 228.678503 
L 339.34919 229.189661 
L 339.834008 230.053515 
L 340.318826 229.946172 
L 341.288462 231.121837 
L 342.258098 231.960135 
L 342.742916 232.077699 
L 343.227734 233.386266 
L 343.712552 232.348612 
L 344.19737 232.680866 
L 345.167006 232.931336 
L 345.651824 232.691091 
L 346.136642 233.064234 
L 346.62146 232.53263 
L 347.106278 231.801674 
L 348.075914 231.014494 
L 348.560732 231.075831 
L 349.04555 232.185042 
L 349.530368 231.602323 
L 350.015186 231.525652 
L 350.500004 231.643216 
L 350.984822 230.339766 
L 351.46964 230.866258 
L 351.954458 230.017734 
L 352.439276 228.821627 
L 353.408912 228.443367 
L 353.89373 228.842074 
L 354.863366 227.063243 
L 355.348184 227.211479 
L 356.31782 226.552085 
L 356.802638 228.402478 
L 357.287456 227.911767 
L 357.772274 227.845314 
L 358.257092 227.334156 
L 358.74191 228.336025 
L 359.711546 228.428033 
L 360.196364 229.174323 
L 360.681182 228.663165 
L 361.166 229.0312 
L 361.650818 228.632497 
L 362.135636 229.0312 
L 362.620454 228.698946 
L 363.105272 227.661297 
L 363.59009 225.994925 
L 364.074908 226.010259 
L 364.559726 223.239785 
L 365.044544 222.616172 
L 365.529362 223.157998 
L 366.01418 222.447489 
L 366.498998 221.966999 
L 366.983816 222.391261 
L 367.468634 221.241156 
L 367.953452 218.496241 
L 368.923088 217.00877 
L 369.407906 217.223456 
L 370.377542 219.063627 
L 370.86236 217.632384 
L 371.347178 218.598471 
L 371.831996 218.169101 
L 372.316814 219.124963 
L 372.801632 218.905161 
L 373.28645 218.189544 
L 373.771268 217.831735 
L 374.256086 220.47442 
L 374.740904 220.055266 
L 375.225722 220.295511 
L 375.71054 220.234175 
L 376.195358 220.356855 
L 376.680176 219.625896 
L 377.164994 219.385651 
L 377.649812 217.949299 
L 378.13463 216.144913 
L 378.619448 215.608195 
L 379.104266 215.776878 
L 380.073902 214.371194 
L 380.55872 215.158382 
L 381.043538 214.539877 
L 381.528356 211.62628 
L 382.013174 214.856793 
L 382.497992 210.169477 
L 382.98281 217.463701 
L 383.467628 219.08407 
L 383.952446 212.878615 
L 384.437264 212.674155 
L 384.922082 209.586757 
L 385.4069 209.648094 
L 385.891718 207.567686 
L 386.376536 209.029597 
L 386.861354 208.702457 
L 387.346172 206.908296 
L 387.83099 207.276322 
L 388.315808 207.429671 
L 388.800626 209.934349 
L 389.285444 207.577911 
L 389.770262 206.857177 
L 390.25508 205.574174 
L 390.739898 205.349263 
L 391.224716 204.219601 
L 391.709534 203.744228 
L 392.67917 195.918403 
L 393.163988 193.168372 
L 393.648806 197.395649 
L 394.133624 197.656337 
L 394.618442 196.450004 
L 395.10326 197.855688 
L 396.072896 197.058283 
L 396.557714 201.280444 
L 397.042532 199.44028 
L 397.52735 198.141935 
L 398.012168 199.562953 
L 398.496986 199.389161 
L 398.981804 200.636388 
L 399.466622 197.063392 
L 399.95144 200.145673 
L 400.436258 200.897075 
L 400.921076 204.935226 
L 401.405894 202.619674 
L 401.890712 202.532779 
L 402.37553 200.513707 
L 402.860348 200.559709 
L 403.345166 199.532285 
L 403.829984 202.098299 
L 404.314802 203.227953 
L 404.79962 201.812052 
L 405.284438 202.471442 
L 405.769256 203.902685 
L 406.254074 203.452864 
L 406.738892 205.333929 
L 407.22371 207.991948 
L 407.708528 209.356738 
L 408.193346 208.155514 
L 408.678164 207.260988 
L 409.162982 207.772146 
L 409.6478 207.905052 
L 410.132618 207.245654 
L 410.617436 205.671287 
L 411.102254 205.645735 
L 411.587072 206.023987 
L 412.07189 202.992825 
L 412.556708 202.430549 
L 413.041526 200.718175 
L 413.526344 199.52206 
L 414.49598 200.871516 
L 414.980798 206.397138 
L 415.465616 205.548614 
L 415.950434 205.190805 
L 416.435252 204.209375 
L 416.92007 204.107145 
L 417.404888 204.541633 
L 417.889706 203.897569 
L 418.374524 206.54537 
L 418.859342 205.650844 
L 419.34416 205.492386 
L 419.828978 203.708443 
L 420.313796 203.263738 
L 421.283432 206.990075 
L 421.76825 207.23032 
L 422.253068 206.57093 
L 422.737886 206.754947 
L 423.222704 206.19267 
L 423.707522 204.945444 
L 424.19234 205.517946 
L 424.677158 203.887351 
L 425.161976 201.530914 
L 425.646794 202.471442 
L 426.131612 205.415708 
L 427.101248 205.553723 
L 428.070884 204.332056 
L 428.555702 203.314849 
L 429.04052 204.955669 
L 429.525338 203.974247 
L 430.010156 203.248404 
L 430.494974 205.287919 
L 430.979792 204.388284 
L 431.46461 201.858054 
L 431.949428 200.166123 
L 432.434246 200.457479 
L 432.919064 196.81293 
L 433.403882 196.092195 
L 433.8887 199.051795 
L 434.373518 197.477428 
L 434.858336 198.949565 
L 435.343154 197.942584 
L 435.827972 196.628912 
L 436.797608 200.273462 
L 437.282426 201.03509 
L 437.767244 204.424069 
L 438.252062 202.767915 
L 438.73688 202.348761 
L 439.221698 202.486776 
L 439.706516 201.484911 
L 440.191334 203.156392 
L 440.676152 203.759562 
L 441.16097 204.664306 
L 441.645788 207.741478 
L 442.130606 209.423191 
L 442.615424 208.574667 
L 443.100242 206.821392 
L 443.58506 206.213121 
L 444.069878 204.894333 
L 444.554696 207.526792 
L 445.039514 208.017507 
L 445.524332 209.295402 
L 446.00915 209.009147 
L 446.493968 211.04356 
L 446.978786 212.490138 
L 447.463604 211.641614 
L 447.948422 210.000794 
L 448.43324 212.505472 
L 448.918058 211.907418 
L 449.402876 212.413459 
L 449.887694 210.721528 
L 450.372512 206.586264 
L 450.85733 207.491015 
L 451.342148 207.271213 
L 451.826966 205.206139 
L 452.796602 205.446384 
L 453.28142 205.206139 
L 453.766238 203.989581 
L 454.251056 201.909165 
L 454.735874 199.327825 
L 455.220692 199.056912 
L 455.70551 199.092689 
L 456.190328 202.036955 
L 456.675146 202.088074 
L 457.159964 203.161508 
L 457.644782 204.648971 
L 458.1296 202.532779 
L 458.614418 201.827386 
L 459.099236 196.766919 
L 459.584054 196.828264 
L 460.068872 197.048058 
L 460.55369 195.37657 
L 461.038508 195.443023 
L 461.523326 196.521566 
L 462.008144 196.240428 
L 462.492962 194.880746 
L 462.97778 195.213003 
L 463.947416 198.223722 
L 464.432234 198.157269 
L 464.917052 197.651228 
L 465.40187 197.860797 
L 465.886688 199.614072 
L 466.371506 199.578287 
L 466.856324 199.389161 
L 467.341142 197.963035 
L 467.82596 197.579666 
L 468.310778 197.743233 
L 468.795596 198.596865 
L 469.765232 201.081092 
L 470.734868 198.637759 
L 471.219686 199.675408 
L 472.189322 199.399387 
L 472.67414 203.064387 
L 473.158958 203.958913 
L 473.643776 199.29204 
L 474.128594 196.858932 
L 474.613412 195.550369 
L 475.09823 196.245544 
L 475.583048 198.944457 
L 476.067866 196.818038 
L 476.552684 195.872393 
L 477.037502 192.554984 
L 477.52232 195.811057 
L 478.007138 195.115882 
L 478.491956 193.444394 
L 478.976774 192.984355 
L 479.461592 193.914658 
L 479.94641 193.730641 
L 480.431228 194.640509 
L 480.916046 195.110773 
L 481.400864 194.292918 
L 482.3705 195.453248 
L 482.855318 194.287809 
L 483.340136 192.105163 
L 483.824954 187.637641 
L 484.309772 188.619063 
L 484.79459 188.291923 
L 485.279408 185.547008 
L 485.764226 180.731903 
L 486.249044 179.837376 
L 486.733862 177.721184 
L 487.703498 181.846223 
L 488.673134 176.376836 
L 489.157952 180.3332 
L 489.64277 180.650115 
L 490.127588 182.541398 
L 490.612406 180.430321 
L 491.097224 180.91592 
L 491.582042 180.798356 
L 492.06686 177.772303 
L 492.551678 176.657975 
L 493.521314 177.925644 
L 494.006132 175.518095 
L 494.49095 175.916797 
L 494.975768 172.118891 
L 495.460586 172.103557 
L 496.430222 172.814066 
L 496.91504 168.699252 
L 497.884676 165.458506 
L 498.369494 165.468731 
L 498.854312 165.228486 
L 499.33913 162.26377 
L 499.823948 161.215895 
L 500.308766 161.650382 
L 500.793584 163.955701 
L 501.278402 169.76757 
L 501.76322 162.994729 
L 502.248038 165.16715 
L 502.732856 166.516606 
L 503.217674 165.831657 
L 503.702492 166.951086 
L 504.18731 167.308902 
L 504.672128 166.240577 
L 505.156946 163.827911 
L 505.641764 163.286085 
L 506.126582 160.024904 
L 506.6114 158.537433 
L 507.096218 155.807852 
L 507.581036 154.586178 
L 508.065854 152.311535 
L 508.550672 156.129884 
L 509.03549 153.512743 
L 509.520308 150.011325 
L 510.005126 148.350062 
L 510.489944 145.50291 
L 510.974762 147.721333 
L 511.45958 138.413154 
L 511.944398 134.22677 
L 512.429216 134.937272 
L 512.914034 138.387587 
L 513.398852 133.858736 
L 513.88367 140.299327 
L 514.368488 132.371265 
L 514.853306 135.514882 
L 515.338124 134.70726 
L 515.822942 129.028289 
L 516.30776 132.177023 
L 516.792578 136.73144 
L 517.277396 133.70538 
L 517.762214 132.683064 
L 518.73185 133.572489 
L 519.216668 132.698414 
L 519.701486 130.684451 
L 520.186304 133.557155 
L 520.671122 131.947011 
L 521.15594 128.118429 
L 521.640757 121.483611 
L 522.610393 117.327896 
L 523.095211 113.463544 
L 524.064847 102.023831 
L 524.549665 91.867128 
L 525.519301 102.534988 
L 526.004119 102.437867 
L 526.488937 98.527513 
L 526.973755 99.391371 
L 527.458573 92.434506 
L 527.943391 93.170574 
L 528.428209 88.570154 
L 528.913027 86.740216 
L 529.397845 77.6825 
L 529.882663 87.118468 
L 530.367481 78.842822 
L 530.852299 75.356723 
L 531.337117 56.592125 
L 531.821935 63.262728 
L 532.306753 57.89047 
L 533.276389 51.163632 
L 533.761207 43.429812 
L 534.246025 48.664063 
L 534.730843 55.140439 
L 535.215661 79.399983 
L 535.700479 78.725251 
L 536.185297 71.206124 
L 537.154933 62.761803 
L 538.124569 74.390643 
L 538.609387 68.977484 
L 539.094205 77.401354 
L 539.579023 79.175072 
L 540.063841 77.488258 
L 540.548659 88.161234 
L 541.033477 93.119455 
L 541.518295 92.822991 
L 541.518295 92.822991 
" clip-path="url(#pd205ca16fd)" style="fill: none; stroke: #7a8450; stroke-width: 1.5; stroke-linecap: square"/>
   </g>
   <g id="line2d_28">
    <path d="M 59.609205 257.61301 
L 63.972567 257.361214 
L 65.427021 257.215508 
L 70.275201 256.960322 
L 74.638563 256.792262 
L 79.486743 256.538573 
L 81.426014 256.523706 
L 82.880468 256.543069 
L 94.031282 256.150191 
L 94.5161 256.307812 
L 96.94019 256.189904 
L 97.425008 256.265033 
L 98.394644 256.215431 
L 102.758006 256.180845 
L 110.030276 256.165778 
L 112.454366 256.162024 
L 120.211454 256.180085 
L 122.635544 256.171821 
L 128.938178 256.168791 
L 132.816722 256.183854 
L 266.62649 256.287758 
L 273.89876 256.302846 
L 281.17103 256.295312 
L 286.988846 256.280246 
L 314.623472 256.172388 
L 333.046556 255.923444 
L 349.530368 255.516712 
L 363.59009 255.078778 
L 369.407906 254.90322 
L 389.285444 254.558473 
L 403.829984 254.569133 
L 415.465616 254.58098 
L 432.434246 254.608607 
L 437.282426 254.588067 
L 447.463604 254.398074 
L 451.826966 254.213936 
L 459.584054 253.719653 
L 461.523326 253.60157 
L 465.886688 253.311227 
L 485.764226 251.744344 
L 495.945404 250.924866 
L 501.76322 250.476859 
L 509.520308 249.949217 
L 526.488937 248.807758 
L 541.518295 247.911942 
L 541.518295 247.911942 
" clip-path="url(#pd205ca16fd)" style="fill: none; stroke: #aba499; stroke-width: 1.5; stroke-linecap: square"/>
   </g>
   <g id="patch_3">
    <path d="M 35.51375 286.861812 
L 565.61375 286.861812 
" style="fill: none; stroke: #8a8f98; stroke-width: 0.8; stroke-linejoin: miter; stroke-linecap: square"/>
   </g>
   <g id="text_18">
    <text style="font-size: 14px; font-family: 'Helvetica Neue', 'Helvetica', 'Arial', 'DejaVu Sans', sans-serif; text-anchor: start; fill: #8a8f98" x="35.51375" y="17.837812" transform="rotate(-0 35.51375 17.837812)">Crescita di 100 investiti nel 2007, per asset class</text>
   </g>
   <g id="legend_1">
    <g id="line2d_29">
     <path d="M 45.41375 46.246094 
L 56.41375 46.246094 
L 67.41375 46.246094 
" style="fill: none; stroke: #b6892b; stroke-width: 2.1; stroke-linecap: square"/>
    </g>
    <g id="text_19">
     <text style="font-size: 11px; font-family: 'Helvetica Neue', 'Helvetica', 'Arial', 'DejaVu Sans', sans-serif; text-anchor: start; fill: #1f2328" x="76.21375" y="50.096094" transform="rotate(-0 76.21375 50.096094)">Azionario (S&amp;P 500)</text>
    </g>
    <g id="line2d_30">
     <path d="M 45.41375 62.746953 
L 56.41375 62.746953 
L 67.41375 62.746953 
" style="fill: none; stroke: #3f6f8f; stroke-width: 1.5; stroke-linecap: square"/>
    </g>
    <g id="text_20">
     <text style="font-size: 11px; font-family: 'Helvetica Neue', 'Helvetica', 'Arial', 'DejaVu Sans', sans-serif; text-anchor: start; fill: #1f2328" x="76.21375" y="66.596953" transform="rotate(-0 76.21375 66.596953)">Obbligazioni</text>
    </g>
    <g id="line2d_31">
     <path d="M 45.41375 79.247812 
L 56.41375 79.247812 
L 67.41375 79.247812 
" style="fill: none; stroke: #7a8450; stroke-width: 1.5; stroke-linecap: square"/>
    </g>
    <g id="text_21">
     <text style="font-size: 11px; font-family: 'Helvetica Neue', 'Helvetica', 'Arial', 'DejaVu Sans', sans-serif; text-anchor: start; fill: #1f2328" x="76.21375" y="83.097812" transform="rotate(-0 76.21375 83.097812)">Oro</text>
    </g>
    <g id="line2d_32">
     <path d="M 45.41375 96.188672 
L 56.41375 96.188672 
L 67.41375 96.188672 
" style="fill: none; stroke: #aba499; stroke-width: 1.5; stroke-linecap: square"/>
    </g>
    <g id="text_22">
     <text style="font-size: 11px; font-family: 'Helvetica Neue', 'Helvetica', 'Arial', 'DejaVu Sans', sans-serif; text-anchor: start; fill: #1f2328" x="76.21375" y="100.038672" transform="rotate(-0 76.21375 100.038672)">Liquidità</text>
    </g>
   </g>
  </g>
 </g>
 <defs>
  <clipPath id="pd205ca16fd">
   <rect x="35.51375" y="31.837812" width="530.1" height="255.024"/>
  </clipPath>
 </defs>
</svg>
