<?xml version="1.0" encoding="utf-8" standalone="no"?>
<!DOCTYPE svg PUBLIC "-//W3C//DTD SVG 1.1//EN"
  "http://www.w3.org/Graphics/SVG/1.1/DTD/svg11.dtd">
<svg xmlns:xlink="http://www.w3.org/1999/xlink" width="569.681563pt" height="309.001344pt" viewBox="0 0 569.681563 309.001344" xmlns="http://www.w3.org/2000/svg" version="1.1">
 <metadata>
  <rdf:RDF xmlns:dc="http://purl.org/dc/elements/1.1/" xmlns:cc="http://creativecommons.org/ns#" xmlns:rdf="http://www.w3.org/1999/02/22-rdf-syntax-ns#">
   <cc:Work>
    <dc:type rdf:resource="http://purl.org/dc/dcmitype/StillImage"/>
    <dc:date>2026-06-18T20:47:10.702253</dc:date>
    <dc:format>image/svg+xml</dc:format>
    <dc:creator>
     <cc:Agent>
      <dc:title>Matplotlib v3.9.4, https://matplotlib.org/</dc:title>
     </cc:Agent>
    </dc:creator>
   </cc:Work>
  </rdf:RDF>
 </metadata>
 <defs>
  <style type="text/css">*{stroke-linejoin: round; stroke-linecap: butt}</style>
 </defs>
 <g id="figure_1">
  <g id="patch_1">
   <path d="M 0 309.001344 
L 569.681563 309.001344 
L 569.681563 0 
L 0 0 
z
" style="fill: #faf8f3"/>
  </g>
  <g id="axes_1">
   <g id="patch_2">
    <path d="M 32.381563 286.457125 
L 562.481562 286.457125 
L 562.481562 31.433125 
L 32.381563 31.433125 
z
" style="fill: #faf8f3"/>
   </g>
   <g id="matplotlib.axis_1">
    <g id="xtick_1">
     <g id="line2d_1"/>
     <g id="text_1">
      <text style="fill: #8a8f98; font: 13px 'Helvetica Neue', 'Helvetica', 'Arial', 'DejaVu Sans', sans-serif; text-anchor: middle" x="71.160076" y="299.239937" transform="rotate(-0 71.160076 299.239937)">2008</text>
     </g>
    </g>
    <g id="xtick_2">
     <g id="line2d_2"/>
     <g id="text_2">
      <text style="fill: #8a8f98; font: 13px 'Helvetica Neue', 'Helvetica', 'Arial', 'DejaVu Sans', sans-serif; text-anchor: middle" x="121.788927" y="299.239937" transform="rotate(-0 121.788927 299.239937)">2010</text>
     </g>
    </g>
    <g id="xtick_3">
     <g id="line2d_3"/>
     <g id="text_3">
      <text style="fill: #8a8f98; font: 13px 'Helvetica Neue', 'Helvetica', 'Arial', 'DejaVu Sans', sans-serif; text-anchor: middle" x="172.348519" y="299.239937" transform="rotate(-0 172.348519 299.239937)">2012</text>
     </g>
    </g>
    <g id="xtick_4">
     <g id="line2d_4"/>
     <g id="text_4">
      <text style="fill: #8a8f98; font: 13px 'Helvetica Neue', 'Helvetica', 'Arial', 'DejaVu Sans', sans-serif; text-anchor: middle" x="222.97737" y="299.239937" transform="rotate(-0 222.97737 299.239937)">2014</text>
     </g>
    </g>
    <g id="xtick_5">
     <g id="line2d_5"/>
     <g id="text_5">
      <text style="fill: #8a8f98; font: 13px 'Helvetica Neue', 'Helvetica', 'Arial', 'DejaVu Sans', sans-serif; text-anchor: middle" x="273.536961" y="299.239937" transform="rotate(-0 273.536961 299.239937)">2016</text>
     </g>
    </g>
    <g id="xtick_6">
     <g id="line2d_6"/>
     <g id="text_6">
      <text style="fill: #8a8f98; font: 13px 'Helvetica Neue', 'Helvetica', 'Arial', 'DejaVu Sans', sans-serif; text-anchor: middle" x="324.165812" y="299.239937" transform="rotate(-0 324.165812 299.239937)">2018</text>
     </g>
    </g>
    <g id="xtick_7">
     <g id="line2d_7"/>
     <g id="text_7">
      <text style="fill: #8a8f98; font: 13px 'Helvetica Neue', 'Helvetica', 'Arial', 'DejaVu Sans', sans-serif; text-anchor: middle" x="374.725403" y="299.239937" transform="rotate(-0 374.725403 299.239937)">2020</text>
     </g>
    </g>
    <g id="xtick_8">
     <g id="line2d_8"/>
     <g id="text_8">
      <text style="fill: #8a8f98; font: 13px 'Helvetica Neue', 'Helvetica', 'Arial', 'DejaVu Sans', sans-serif; text-anchor: middle" x="425.354254" y="299.239937" transform="rotate(-0 425.354254 299.239937)">2022</text>
     </g>
    </g>
    <g id="xtick_9">
     <g id="line2d_9"/>
     <g id="text_9">
      <text style="fill: #8a8f98; font: 13px 'Helvetica Neue', 'Helvetica', 'Arial', 'DejaVu Sans', sans-serif; text-anchor: middle" x="475.913846" y="299.239937" transform="rotate(-0 475.913846 299.239937)">2024</text>
     </g>
    </g>
    <g id="xtick_10">
     <g id="line2d_10"/>
     <g id="text_10">
      <text style="fill: #8a8f98; font: 13px 'Helvetica Neue', 'Helvetica', 'Arial', 'DejaVu Sans', sans-serif; text-anchor: middle" x="526.542697" y="299.239937" transform="rotate(-0 526.542697 299.239937)">2026</text>
     </g>
    </g>
   </g>
   <g id="matplotlib.axis_2">
    <g id="ytick_1">
     <g id="line2d_11">
      <path d="M 32.381563 257.215574 
L 562.481562 257.215574 
" clip-path="url(#p2c10c10f5d)" style="fill: none; stroke: #e7e3da; stroke-width: 0.9; stroke-linecap: square"/>
     </g>
     <g id="line2d_12"/>
     <g id="text_11">
      <text style="fill: #8a8f98; font: 13px 'Helvetica Neue', 'Helvetica', 'Arial', 'DejaVu Sans', sans-serif; text-anchor: end" x="28.881563" y="261.85698" transform="rotate(-0 28.881563 261.85698)">100</text>
     </g>
    </g>
    <g id="ytick_2">
     <g id="line2d_13">
      <path d="M 32.381563 224.133441 
L 562.481562 224.133441 
" clip-path="url(#p2c10c10f5d)" style="fill: none; stroke: #e7e3da; stroke-width: 0.9; stroke-linecap: square"/>
     </g>
     <g id="line2d_14"/>
     <g id="text_12">
      <text style="fill: #8a8f98; font: 13px 'Helvetica Neue', 'Helvetica', 'Arial', 'DejaVu Sans', sans-serif; text-anchor: end" x="28.881563" y="228.774847" transform="rotate(-0 28.881563 228.774847)">200</text>
     </g>
    </g>
    <g id="ytick_3">
     <g id="line2d_15">
      <path d="M 32.381563 191.051308 
L 562.481562 191.051308 
" clip-path="url(#p2c10c10f5d)" style="fill: none; stroke: #e7e3da; stroke-width: 0.9; stroke-linecap: square"/>
     </g>
     <g id="line2d_16"/>
     <g id="text_13">
      <text style="fill: #8a8f98; font: 13px 'Helvetica Neue', 'Helvetica', 'Arial', 'DejaVu Sans', sans-serif; text-anchor: end" x="28.881563" y="195.692714" transform="rotate(-0 28.881563 195.692714)">300</text>
     </g>
    </g>
    <g id="ytick_4">
     <g id="line2d_17">
      <path d="M 32.381563 157.969175 
L 562.481562 157.969175 
" clip-path="url(#p2c10c10f5d)" style="fill: none; stroke: #e7e3da; stroke-width: 0.9; stroke-linecap: square"/>
     </g>
     <g id="line2d_18"/>
     <g id="text_14">
      <text style="fill: #8a8f98; font: 13px 'Helvetica Neue', 'Helvetica', 'Arial', 'DejaVu Sans', sans-serif; text-anchor: end" x="28.881563" y="162.610581" transform="rotate(-0 28.881563 162.610581)">400</text>
     </g>
    </g>
    <g id="ytick_5">
     <g id="line2d_19">
      <path d="M 32.381563 124.887042 
L 562.481562 124.887042 
" clip-path="url(#p2c10c10f5d)" style="fill: none; stroke: #e7e3da; stroke-width: 0.9; stroke-linecap: square"/>
     </g>
     <g id="line2d_20"/>
     <g id="text_15">
      <text style="fill: #8a8f98; font: 13px 'Helvetica Neue', 'Helvetica', 'Arial', 'DejaVu Sans', sans-serif; text-anchor: end" x="28.881563" y="129.528449" transform="rotate(-0 28.881563 129.528449)">500</text>
     </g>
    </g>
    <g id="ytick_6">
     <g id="line2d_21">
      <path d="M 32.381563 91.804909 
L 562.481562 91.804909 
" clip-path="url(#p2c10c10f5d)" style="fill: none; stroke: #e7e3da; stroke-width: 0.9; stroke-linecap: square"/>
     </g>
     <g id="line2d_22"/>
     <g id="text_16">
      <text style="fill: #8a8f98; font: 13px 'Helvetica Neue', 'Helvetica', 'Arial', 'DejaVu Sans', sans-serif; text-anchor: end" x="28.881563" y="96.446316" transform="rotate(-0 28.881563 96.446316)">600</text>
     </g>
    </g>
    <g id="ytick_7">
     <g id="line2d_23">
      <path d="M 32.381563 58.722776 
L 562.481562 58.722776 
" clip-path="url(#p2c10c10f5d)" style="fill: none; stroke: #e7e3da; stroke-width: 0.9; stroke-linecap: square"/>
     </g>
     <g id="line2d_24"/>
     <g id="text_17">
      <text style="fill: #8a8f98; font: 13px 'Helvetica Neue', 'Helvetica', 'Arial', 'DejaVu Sans', sans-serif; text-anchor: end" x="28.881563" y="63.364183" transform="rotate(-0 28.881563 63.364183)">700</text>
     </g>
    </g>
   </g>
   <g id="line2d_25">
    <path d="M 56.477017 257.086243 
L 56.961835 257.741517 
L 57.446653 257.161743 
L 57.931471 257.707247 
L 58.416289 257.733236 
L 59.385925 256.776426 
L 59.870743 257.068648 
L 60.355561 258.884888 
L 60.840379 259.168483 
L 61.325197 258.971473 
L 61.810015 258.971473 
L 62.294833 258.187821 
L 62.779651 258.348042 
L 63.264469 258.677071 
L 63.749287 258.064457 
L 64.234105 257.243803 
L 64.718923 257.111116 
L 65.203741 256.39988 
L 65.688559 256.295492 
L 66.173377 257.744061 
L 66.658195 256.884914 
L 67.143013 257.41128 
L 67.627831 258.729342 
L 68.112649 258.587961 
L 68.597467 258.949021 
L 69.082285 257.963729 
L 69.567103 257.474345 
L 70.051921 258.287815 
L 70.536739 257.908008 
L 71.021557 258.089495 
L 71.506375 259.399251 
L 71.991193 259.652902 
L 72.476011 261.421846 
L 72.960829 261.207558 
L 73.445647 259.777533 
L 73.930465 261.200989 
L 74.415283 260.74838 
L 74.900101 260.643429 
L 75.384919 261.036995 
L 75.869737 261.935683 
L 76.354555 261.957545 
L 76.839373 261.274485 
L 77.324191 261.399732 
L 77.809009 260.217536 
L 78.293827 260.988816 
L 78.778645 259.868147 
L 79.263463 259.622038 
L 79.748281 259.202333 
L 80.233099 259.775874 
L 80.717917 258.949635 
L 81.202735 260.052727 
L 81.687553 259.457243 
L 82.172371 260.349378 
L 82.657189 260.380156 
L 83.626825 262.13413 
L 84.111643 262.403559 
L 84.596461 262.949025 
L 85.081279 262.476433 
L 85.566097 262.586853 
L 86.050915 262.436684 
L 86.535733 261.72779 
L 87.020551 261.551125 
L 87.990187 261.855871 
L 88.475005 262.820939 
L 88.959823 262.452147 
L 89.444641 262.728542 
L 89.929459 263.454852 
L 90.414277 265.789312 
L 90.899095 270.640346 
L 91.383913 269.594178 
L 91.868731 270.964636 
L 92.353549 268.790104 
L 92.838367 269.449802 
L 93.808003 272.634961 
L 94.292821 270.287175 
L 94.777639 270.766947 
L 95.262457 270.531521 
L 95.747275 270.550184 
L 96.232093 270.780824 
L 96.716911 269.482085 
L 97.686547 271.251054 
L 98.171365 271.687712 
L 98.656183 271.750393 
L 99.141001 270.821128 
L 99.625819 271.766069 
L 100.110637 272.961807 
L 100.595455 273.743292 
L 101.080273 274.865125 
L 101.565091 273.25962 
L 102.049909 272.997844 
L 102.534727 271.892787 
L 103.019545 271.295152 
L 103.989181 270.659172 
L 104.473999 270.753895 
L 104.958817 270.47649 
L 105.443635 269.32859 
L 105.928453 270.291567 
L 106.413271 270.221657 
L 106.898089 269.430074 
L 107.382907 268.97452 
L 107.867725 268.854984 
L 108.352543 269.423337 
L 108.837361 269.46869 
L 109.806997 270.348654 
L 110.291815 268.949325 
L 110.776633 268.058012 
L 111.261451 267.887916 
L 111.746269 267.345868 
L 112.231087 267.438863 
L 112.715905 266.944436 
L 113.200723 266.851452 
L 113.685541 267.150823 
L 114.655177 265.978662 
L 115.624813 266.942586 
L 116.109631 265.855615 
L 116.594449 265.484174 
L 117.079267 265.668754 
L 117.564085 266.698758 
L 118.048903 265.885235 
L 118.533721 265.317819 
L 119.503357 265.329209 
L 119.988175 265.00107 
L 120.957811 265.04817 
L 121.442629 264.528105 
L 121.927447 264.766365 
L 122.412265 264.049271 
L 122.897083 264.262339 
L 123.381901 265.277271 
L 123.866719 265.694238 
L 124.351537 265.861479 
L 124.836355 265.545321 
L 125.321173 264.835105 
L 125.805991 264.926733 
L 126.290809 264.122587 
L 127.260445 263.619112 
L 127.745263 263.478795 
L 128.714899 262.795539 
L 129.199717 262.839249 
L 129.684535 262.275636 
L 130.169353 262.965777 
L 130.654171 264.702634 
L 131.138989 264.097609 
L 131.623807 265.197241 
L 132.108625 265.137418 
L 132.593443 265.724051 
L 133.563079 264.472223 
L 134.047897 265.364435 
L 134.532715 266.675014 
L 135.017533 265.343625 
L 135.502351 265.644108 
L 135.987169 264.777324 
L 136.471987 264.809697 
L 136.956805 264.319674 
L 137.441623 265.262729 
L 138.411259 265.597888 
L 138.896077 264.666387 
L 139.380895 264.530016 
L 139.865713 264.15736 
L 140.350531 263.615905 
L 140.835349 263.66472 
L 141.320167 263.216222 
L 142.289803 262.79562 
L 142.774621 262.763088 
L 143.259439 261.780118 
L 143.744257 262.365718 
L 144.229075 262.344799 
L 144.713893 262.691048 
L 145.198711 261.740615 
L 145.683529 261.371127 
L 146.168347 261.261052 
L 146.653165 260.95737 
L 147.137983 260.92233 
L 147.622801 260.597625 
L 148.107619 260.093043 
L 149.077255 260.462129 
L 149.562073 259.660875 
L 150.531709 258.871304 
L 151.016527 259.385221 
L 151.501345 259.352527 
L 151.986163 259.733292 
L 152.470981 260.323137 
L 152.955799 259.492606 
L 153.440617 259.058555 
L 153.925435 259.12659 
L 154.410253 259.318988 
L 154.895071 258.910749 
L 155.379889 258.289018 
L 155.864707 258.812212 
L 157.319161 258.974092 
L 158.288797 260.360682 
L 159.258433 260.398534 
L 159.743251 258.722137 
L 160.228069 258.608963 
L 160.712887 259.247933 
L 161.197705 258.566513 
L 161.682523 259.804356 
L 162.167341 261.985316 
L 162.652159 262.447447 
L 163.136977 263.739524 
L 163.621795 262.482813 
L 164.106613 262.511112 
L 164.591431 262.966153 
L 165.076249 261.497568 
L 165.561067 263.388818 
L 166.045885 263.481257 
L 166.530703 262.874531 
L 167.015521 261.248711 
L 167.500339 260.916911 
L 167.985157 259.819608 
L 168.469975 260.559047 
L 168.954793 260.279384 
L 169.924429 262.72522 
L 170.409247 260.70598 
L 170.894065 260.423962 
L 171.378883 261.298208 
L 171.863701 260.153401 
L 172.348519 260.365667 
L 172.833337 259.838579 
L 173.318155 259.569069 
L 173.802973 258.827329 
L 174.287791 258.858338 
L 174.772609 258.20961 
L 175.257427 258.252533 
L 175.742245 257.763612 
L 177.196699 257.486956 
L 177.681517 256.689184 
L 178.166335 256.844904 
L 178.651153 256.567018 
L 179.135971 256.811364 
L 179.620789 257.446165 
L 180.105607 257.252127 
L 180.590425 256.667636 
L 181.075243 257.4797 
L 181.560061 257.81267 
L 182.044879 259.218807 
L 182.529697 258.653486 
L 183.014515 259.597303 
L 183.499333 258.413932 
L 183.984151 257.998315 
L 184.468969 258.162045 
L 184.953787 257.526356 
L 185.438605 257.67324 
L 186.408241 257.437267 
L 186.893059 256.905131 
L 187.377877 256.743793 
L 188.347513 256.062364 
L 189.317149 256.307974 
L 190.286785 254.84397 
L 190.771603 254.986369 
L 191.256421 255.446301 
L 191.741239 254.921005 
L 192.226057 255.707745 
L 192.710875 255.586707 
L 193.195693 256.080529 
L 193.680511 256.02971 
L 194.165329 256.852765 
L 194.650147 257.286059 
L 195.134965 256.080529 
L 195.619783 255.886881 
L 196.104601 255.823931 
L 196.589419 255.898978 
L 197.074237 255.486795 
L 197.559055 256.159641 
L 198.043873 254.61403 
L 198.528691 254.443381 
L 199.013509 254.136183 
L 199.498327 253.668113 
L 200.467963 253.290236 
L 200.952781 253.214664 
L 201.922417 253.214664 
L 202.407235 252.402836 
L 202.892053 252.138785 
L 203.376871 252.195104 
L 203.861689 251.933099 
L 204.346507 252.302849 
L 204.831325 251.411522 
L 205.316143 252.224485 
L 207.255415 249.418218 
L 208.225051 250.272849 
L 208.709869 249.94226 
L 209.194687 250.338952 
L 209.679505 251.139285 
L 210.164323 250.806955 
L 210.649141 250.166917 
L 211.133959 249.061613 
L 211.618777 248.652965 
L 212.103595 248.667738 
L 212.588413 248.21477 
L 213.073231 248.618484 
L 213.558049 249.475172 
L 214.042867 249.280706 
L 214.527685 250.011814 
L 215.012503 249.423479 
L 215.497321 248.613574 
L 215.982139 248.066549 
L 216.466957 248.51428 
L 216.951775 248.519242 
L 217.436593 248.180336 
L 217.921411 247.158706 
L 218.406229 246.772788 
L 218.891047 246.708466 
L 219.375865 246.44132 
L 219.860683 245.758573 
L 220.345501 245.570583 
L 221.315137 245.538415 
L 221.799955 246.238472 
L 222.284773 245.141233 
L 222.769591 244.571646 
L 223.254409 244.810432 
L 223.739227 244.499536 
L 224.224045 244.623877 
L 224.708863 245.805272 
L 225.193681 245.981876 
L 225.678499 245.608797 
L 226.163317 244.529372 
L 226.648135 244.561695 
L 227.617771 243.474827 
L 228.102589 244.370196 
L 228.587407 243.782785 
L 229.072225 243.96015 
L 229.557043 243.732821 
L 230.041861 244.954396 
L 230.526679 243.735325 
L 231.011497 243.760321 
L 231.496315 243.318136 
L 232.465951 243.320631 
L 233.920405 241.489526 
L 234.405223 241.801782 
L 234.890041 241.115069 
L 235.374859 241.145191 
L 235.859677 240.547805 
L 236.344495 240.946894 
L 236.829313 240.670791 
L 237.314131 240.668282 
L 237.798949 241.978545 
L 238.283767 241.792802 
L 238.768585 241.170299 
L 239.253403 240.299291 
L 239.738221 239.917779 
L 240.223039 239.817369 
L 240.707857 240.314378 
L 241.192675 239.684787 
L 241.677493 240.390908 
L 242.162311 240.738911 
L 242.647129 242.246948 
L 243.131947 242.76899 
L 243.616765 240.761599 
L 244.101583 239.442693 
L 244.586401 239.019037 
L 245.071219 238.792072 
L 245.556037 238.176726 
L 246.525673 237.843828 
L 247.010491 239.636859 
L 247.495309 237.929652 
L 247.980127 237.442777 
L 248.464945 238.206054 
L 248.949763 238.50526 
L 249.434581 239.169608 
L 249.919399 238.322681 
L 250.404217 239.722398 
L 250.889035 238.1756 
L 251.373853 237.102997 
L 251.858671 236.732778 
L 252.343489 236.879839 
L 252.828307 237.681147 
L 253.313125 238.10462 
L 253.797943 236.705071 
L 254.282761 237.894554 
L 254.767579 237.716259 
L 255.252397 236.799319 
L 255.737215 237.331658 
L 256.222033 236.389236 
L 256.706851 236.626116 
L 258.161305 236.047947 
L 259.130941 236.868089 
L 259.615759 236.806963 
L 260.100577 236.34201 
L 260.585395 236.595406 
L 261.070213 237.237818 
L 261.555031 237.19431 
L 262.039849 235.914598 
L 262.524667 237.0612 
L 263.009485 236.421348 
L 263.494303 237.074011 
L 263.979121 236.697778 
L 264.463939 239.664173 
L 264.948757 239.29307 
L 265.433575 241.005333 
L 265.918393 239.943168 
L 266.403211 240.013251 
L 266.888029 240.682177 
L 267.372847 240.129027 
L 267.857665 238.500467 
L 268.342483 238.001365 
L 268.827301 236.910526 
L 269.312119 236.802468 
L 269.796937 236.259607 
L 270.281755 238.189178 
L 270.766573 236.447405 
L 271.736209 236.36767 
L 272.221027 238.358979 
L 272.705845 238.531256 
L 273.190663 237.066395 
L 273.675481 237.534842 
L 274.160299 240.627578 
L 274.645117 241.691262 
L 275.614753 240.161723 
L 276.099571 241.655029 
L 276.584389 241.996659 
L 277.069207 240.606875 
L 277.554025 239.80717 
L 278.038843 238.425137 
L 279.008479 237.130026 
L 279.493297 237.457817 
L 279.978115 236.469262 
L 280.462933 237.098825 
L 280.947751 236.245557 
L 281.432569 235.935987 
L 281.917387 236.622752 
L 282.887023 237.031199 
L 283.371841 236.841275 
L 283.856659 235.605608 
L 284.826295 235.649839 
L 285.311113 236.293938 
L 285.795931 237.151634 
L 286.280749 235.404863 
L 287.250385 233.859439 
L 287.735203 233.490747 
L 288.220021 233.522102 
L 288.704839 233.244929 
L 289.674475 233.150794 
L 290.159293 233.477656 
L 290.644111 233.19525 
L 291.128929 234.526249 
L 291.613747 234.220865 
L 292.098565 233.532288 
L 292.583383 233.450814 
L 293.068201 233.781974 
L 293.553019 234.286589 
L 294.037837 234.060558 
L 294.522655 234.439014 
L 295.007473 235.487621 
L 295.492291 233.419286 
L 295.977109 232.872626 
L 296.461927 232.078915 
L 296.946745 232.5625 
L 297.431562 230.767474 
L 297.91638 230.805226 
L 298.401198 230.628094 
L 298.886016 231.204417 
L 299.370834 230.231556 
L 300.34047 230.355794 
L 300.825288 229.766276 
L 301.310106 229.668459 
L 301.794924 229.094789 
L 302.279742 228.148359 
L 303.249378 227.26803 
L 303.734196 227.46101 
L 304.219014 227.362871 
L 304.703832 228.204565 
L 305.18865 227.705412 
L 305.673468 227.848773 
L 306.158286 228.563006 
L 306.643104 228.010749 
L 307.127922 227.0841 
L 307.61274 226.653964 
L 308.582376 227.02302 
L 309.067194 226.120293 
L 309.552012 225.467112 
L 310.03683 225.668909 
L 311.006466 225.42845 
L 311.491284 225.783302 
L 311.976102 225.700586 
L 312.46092 224.780095 
L 312.945738 224.427906 
L 313.430556 224.419902 
L 313.915374 224.286497 
L 314.400192 225.164298 
L 314.88501 225.540503 
L 315.369828 225.046905 
L 315.854646 224.171776 
L 316.339464 224.507954 
L 316.824282 223.481634 
L 317.3091 223.414588 
L 317.793918 222.934628 
L 318.278736 222.0927 
L 318.763554 221.937186 
L 319.248372 221.358022 
L 320.218008 220.998712 
L 321.187644 221.156922 
L 321.672462 220.486594 
L 322.15728 219.387252 
L 322.642098 219.105682 
L 323.126916 218.472274 
L 323.611734 218.202768 
L 324.096552 218.377961 
L 324.58137 216.610006 
L 325.066188 215.397256 
L 325.551006 214.72618 
L 326.035824 213.063344 
L 326.520642 216.062916 
L 327.00546 219.822508 
L 327.490278 216.693568 
L 327.975096 216.262372 
L 328.459914 217.779683 
L 328.944732 215.141196 
L 329.42955 216.103854 
L 329.914368 220.473759 
L 330.399186 219.093787 
L 330.884004 220.021884 
L 331.368822 218.552636 
L 331.85364 218.157569 
L 332.338458 218.171091 
L 332.823276 218.317223 
L 333.308094 216.469125 
L 333.792912 216.880413 
L 334.27773 216.65855 
L 334.762548 216.266194 
L 335.247366 215.024219 
L 335.732184 214.97432 
L 336.217002 215.623917 
L 336.70182 216.564335 
L 337.671456 214.305711 
L 338.156274 214.281238 
L 339.12591 213.215774 
L 339.610728 213.335378 
L 340.580364 212.153062 
L 341.065182 211.392014 
L 341.55 212.128608 
L 342.519636 210.576129 
L 343.004454 210.922917 
L 343.489272 211.714647 
L 343.97409 214.955528 
L 344.458908 214.873611 
L 344.943726 217.855097 
L 345.913362 214.461356 
L 346.39818 215.561618 
L 346.882998 218.422968 
L 347.367816 215.037432 
L 347.852634 218.335603 
L 348.337452 219.181993 
L 348.82227 224.196006 
L 349.307088 222.259899 
L 349.791906 220.985663 
L 350.761542 217.121713 
L 351.24636 217.30847 
L 351.731178 216.133078 
L 352.215996 216.020483 
L 352.700814 214.125575 
L 353.67045 213.287988 
L 354.155268 214.924729 
L 354.640086 212.703319 
L 355.124904 213.271509 
L 355.609722 212.380574 
L 356.09454 210.700736 
L 356.579358 210.262167 
L 357.064176 210.300778 
L 357.548994 209.365696 
L 358.033812 209.194713 
L 358.51863 210.830361 
L 359.003448 211.453762 
L 359.488266 212.297811 
L 359.973084 214.369318 
L 360.457902 210.95452 
L 360.94272 210.510429 
L 361.427538 208.808547 
L 361.912356 209.085711 
L 362.397174 207.572361 
L 362.881992 206.965332 
L 363.36681 207.929905 
L 363.851628 206.588361 
L 364.336446 209.191022 
L 364.821264 209.468232 
L 365.306082 210.236012 
L 365.7909 211.344713 
L 366.275718 209.238155 
L 366.760536 207.686008 
L 367.245354 206.843407 
L 367.730172 207.240459 
L 368.21499 208.042402 
L 368.699808 208.334769 
L 369.669444 207.326782 
L 371.608716 203.478545 
L 372.093534 203.70965 
L 372.578352 202.77682 
L 373.06317 202.620899 
L 373.547988 201.938667 
L 374.032806 200.550074 
L 374.517624 199.954062 
L 375.002442 200.079987 
L 375.48726 199.156548 
L 375.972078 197.410449 
L 376.456896 198.300304 
L 376.941714 200.270266 
L 377.426532 197.340497 
L 377.91135 195.829474 
L 378.396168 196.982318 
L 378.880986 207.397323 
L 379.365804 207.061589 
L 379.850622 214.93576 
L 380.33544 225.897729 
L 380.820258 218.96797 
L 381.305076 220.440045 
L 381.789894 211.993189 
L 382.274712 209.617583 
L 382.75953 210.650575 
L 383.244348 210.70125 
L 383.729166 207.985056 
L 384.213984 209.718904 
L 385.18362 204.641237 
L 385.668438 200.413562 
L 386.153256 204.672195 
L 386.638074 203.042975 
L 387.122892 205.471457 
L 387.60771 202.028083 
L 388.577346 199.345182 
L 389.062164 199.582679 
L 389.546982 197.988193 
L 390.0318 195.712398 
L 391.001436 194.324273 
L 391.486254 191.186255 
L 392.45589 195.856563 
L 393.425526 196.991382 
L 393.910344 195.540967 
L 394.395162 191.848229 
L 394.87998 191.72336 
L 395.364798 192.151949 
L 395.849616 197.612997 
L 396.334434 190.908727 
L 396.819252 188.655032 
L 397.30407 189.441296 
L 397.788888 187.074086 
L 398.273706 185.319941 
L 398.758524 186.327573 
L 399.243342 185.063448 
L 399.72816 185.11473 
L 400.212978 183.723736 
L 400.697796 181.620046 
L 401.182614 183.204917 
L 401.667432 181.158285 
L 402.15225 184.809739 
L 402.637068 179.781485 
L 403.121886 178.376203 
L 403.606704 179.120183 
L 404.091522 181.876596 
L 404.57634 180.944495 
L 405.061158 177.971414 
L 405.545976 178.913346 
L 406.030794 177.05446 
L 406.515612 175.730362 
L 407.00043 172.618863 
L 407.485248 170.968741 
L 407.970066 171.117456 
L 408.454884 170.957312 
L 408.939702 169.578868 
L 409.42452 171.163216 
L 409.909338 171.632238 
L 410.394156 170.17374 
L 410.878974 169.441608 
L 411.363792 168.952589 
L 411.84861 171.249745 
L 412.333428 167.895684 
L 412.818246 165.855686 
L 413.303064 165.33926 
L 413.787882 166.538545 
L 414.2727 164.07106 
L 414.757518 164.481353 
L 415.727154 162.355275 
L 416.211972 163.089798 
L 416.69679 161.11294 
L 417.181608 160.300961 
L 417.666426 162.493029 
L 418.151244 163.246419 
L 418.636062 162.523959 
L 419.12088 165.307358 
L 419.605698 164.265367 
L 420.575334 159.872998 
L 421.060152 158.108537 
L 421.54497 155.437411 
L 422.029788 155.800094 
L 422.514606 155.333782 
L 422.999424 158.189142 
L 423.484242 159.786628 
L 423.96906 154.801283 
L 424.453878 157.465037 
L 424.938696 154.365705 
L 425.423514 153.106335 
L 425.908332 155.668394 
L 426.39315 156.064119 
L 426.877968 163.787945 
L 427.362786 162.641194 
L 427.847604 160.691481 
L 428.332422 163.071596 
L 428.81724 164.871126 
L 429.302058 163.854374 
L 429.786876 165.466157 
L 430.271694 168.961195 
L 430.756512 161.499984 
L 431.24133 159.132765 
L 431.726148 159.066121 
L 432.210966 160.616249 
L 433.180602 166.854488 
L 433.66542 170.922486 
L 434.150238 171.113747 
L 434.635056 173.901089 
L 435.119874 177.404117 
L 435.604692 169.977929 
L 436.08951 171.345534 
L 437.059146 183.833448 
L 437.543964 176.78551 
L 438.028782 179.357932 
L 438.5136 177.195812 
L 438.998418 178.225927 
L 439.483236 175.32762 
L 439.968054 170.409751 
L 440.452872 169.979069 
L 440.93769 166.012775 
L 441.422508 167.456144 
L 442.392144 176.156942 
L 442.876962 171.978223 
L 443.846598 182.78542 
L 444.331416 185.932353 
L 444.816234 184.293135 
L 445.301052 185.800859 
L 446.270688 176.628945 
L 446.755506 180.331018 
L 447.240324 173.856021 
L 447.725142 174.580659 
L 448.20996 172.739854 
L 448.694778 171.401609 
L 449.179596 175.3842 
L 449.664414 177.794796 
L 450.63405 178.041385 
L 451.118868 176.382889 
L 451.603686 173.324251 
L 452.088504 174.093303 
L 452.573322 171.216675 
L 453.05814 169.258814 
L 453.542958 170.523939 
L 454.027776 170.752904 
L 454.512594 173.946549 
L 454.997412 171.654038 
L 455.48223 177.019848 
L 456.451866 173.688131 
L 456.936684 169.669022 
L 457.421502 169.727967 
L 457.90632 168.764459 
L 458.391138 168.841045 
L 458.875956 167.741979 
L 459.360774 168.714364 
L 459.845592 169.020812 
L 460.33041 166.94938 
L 460.815228 166.536863 
L 461.300046 164.209096 
L 461.784864 163.62567 
L 462.269682 160.327779 
L 462.7545 162.176208 
L 463.239318 159.198016 
L 463.724136 160.596925 
L 464.208954 157.42352 
L 464.693772 156.565856 
L 465.17859 155.163994 
L 465.663408 158.154016 
L 466.148226 158.497086 
L 466.633044 161.203188 
L 467.117862 160.176942 
L 467.60268 156.858624 
L 468.087498 158.535538 
L 468.572316 158.708857 
L 469.057134 162.552329 
L 469.541952 163.424897 
L 470.511588 162.231789 
L 471.481224 168.411008 
L 471.966042 161.285026 
L 472.45086 159.528032 
L 472.935678 156.506687 
L 473.905314 154.040315 
L 474.390132 153.713841 
L 474.87495 150.439386 
L 475.359768 149.152039 
L 475.844586 148.657376 
L 476.329404 150.859574 
L 476.814222 148.249111 
L 478.268676 142.983519 
L 478.753494 140.94226 
L 479.238312 141.445875 
L 479.72313 138.960589 
L 480.207948 137.470619 
L 480.692766 137.807344 
L 481.177584 137.898508 
L 481.662402 134.496791 
L 482.14722 133.940838 
L 482.632038 135.327814 
L 483.116856 137.59361 
L 483.601674 142.283682 
L 484.086492 138.36781 
L 484.57131 137.462079 
L 485.540946 132.033661 
L 486.025764 132.036651 
L 486.510582 132.655436 
L 486.9954 130.670579 
L 487.480218 128.049033 
L 487.965036 127.006818 
L 488.449854 127.093777 
L 488.934672 123.968962 
L 489.41949 122.364571 
L 489.904308 125.66334 
L 490.389126 127.027806 
L 490.873944 130.488494 
L 491.358762 130.461489 
L 491.84358 124.067919 
L 492.328398 121.722837 
L 492.813216 121.257991 
L 493.298034 128.251358 
L 493.782852 121.758812 
L 494.26767 119.36484 
L 494.752488 118.39624 
L 495.237306 117.942047 
L 495.722124 115.956704 
L 496.206942 114.449681 
L 496.69176 116.119147 
L 497.176578 118.525584 
L 497.661396 110.358695 
L 498.146214 114.100725 
L 498.631032 111.164872 
L 499.11585 109.047194 
L 499.600668 107.46493 
L 500.085486 108.547849 
L 500.570304 111.877885 
L 501.055122 110.712885 
L 501.53994 111.636426 
L 502.024758 115.095265 
L 502.509576 109.937171 
L 502.994394 106.801311 
L 503.479212 108.657496 
L 503.96403 108.974401 
L 504.448848 106.279148 
L 504.933666 109.224924 
L 505.418484 110.96337 
L 505.903302 116.474588 
L 506.38812 120.431407 
L 506.872938 119.56623 
L 507.357756 122.084931 
L 507.842574 137.336247 
L 508.327392 128.660118 
L 508.81221 130.939659 
L 509.297028 123.604588 
L 509.781846 118.724638 
L 510.266664 119.457237 
L 510.751482 110.417845 
L 511.2363 114.985992 
L 512.205936 108.922391 
L 512.690754 109.570217 
L 513.175572 109.86178 
L 513.66039 103.598097 
L 514.145208 100.431308 
L 514.630026 100.953546 
L 515.114844 99.751206 
L 515.599662 96.860729 
L 516.08448 101.530449 
L 516.569298 96.836453 
L 517.054116 94.93577 
L 517.538934 94.367987 
L 518.023752 94.446947 
L 518.50857 93.78202 
L 519.478206 88.225725 
L 519.963024 88.798105 
L 520.447842 86.548129 
L 520.93266 91.477398 
L 521.902296 84.100259 
L 522.387114 82.63579 
L 522.871932 86.012304 
L 523.35675 85.719994 
L 523.841568 89.647565 
L 524.326386 82.230861 
L 524.811204 81.530593 
L 525.296022 82.72714 
L 525.78084 82.471048 
L 526.265658 79.502939 
L 526.750476 81.683224 
L 527.235294 78.354777 
L 528.20493 79.832739 
L 528.689748 78.996044 
L 529.174566 79.40828 
L 529.659384 82.116841 
L 530.144202 79.771646 
L 530.62902 80.822103 
L 531.113838 84.978088 
L 532.083474 91.707887 
L 532.568292 96.141605 
L 533.537928 82.249475 
L 534.022746 72.85537 
L 534.507564 71.691828 
L 534.992382 69.637243 
L 535.4772 64.441098 
L 535.962018 63.966498 
L 536.446836 61.985397 
L 536.931654 58.666238 
L 537.416472 64.462534 
L 538.386108 61.685331 
L 538.386108 61.685331 
" clip-path="url(#p2c10c10f5d)" style="fill: none; stroke: #b6892b; stroke-width: 2.1; stroke-linecap: square"/>
   </g>
   <g id="line2d_26">
    <path d="M 56.477017 257.322895 
L 56.961835 257.630512 
L 58.416289 257.413188 
L 58.901107 257.557208 
L 60.840379 257.009375 
L 61.325197 257.198231 
L 61.810015 256.948676 
L 62.294833 256.89472 
L 63.264469 256.361033 
L 64.234105 256.527005 
L 64.718923 256.421996 
L 65.203741 256.672309 
L 65.688559 256.475048 
L 66.173377 256.03972 
L 67.143013 255.958627 
L 68.597467 255.719569 
L 69.082285 255.463442 
L 70.051921 255.87935 
L 70.536739 255.755933 
L 72.476011 254.750545 
L 72.960829 254.82974 
L 73.445647 254.697361 
L 73.930465 254.780307 
L 74.415283 255.05684 
L 74.900101 255.181284 
L 75.384919 254.718091 
L 75.869737 255.046647 
L 76.839373 254.415163 
L 77.324191 254.616413 
L 78.293827 254.489056 
L 78.778645 254.764256 
L 79.263463 254.910593 
L 79.748281 254.675461 
L 80.233099 254.570634 
L 80.717917 254.68244 
L 81.202735 254.671959 
L 81.687553 255.007445 
L 82.172371 254.86921 
L 82.657189 255.493741 
L 83.626825 255.090261 
L 84.111643 255.226265 
L 84.596461 254.997331 
L 85.081279 255.437572 
L 85.566097 255.268526 
L 86.050915 254.97567 
L 86.535733 255.046407 
L 87.020551 254.859008 
L 87.990187 254.671576 
L 88.959823 254.368418 
L 89.444641 254.442971 
L 89.929459 255.255923 
L 90.414277 255.148813 
L 90.899095 258.791281 
L 91.383913 256.763325 
L 92.838367 255.549262 
L 93.808003 255.717494 
L 94.292821 255.062532 
L 95.747275 253.649137 
L 96.232093 253.041784 
L 96.716911 252.949455 
L 97.201729 253.32456 
L 97.686547 252.931413 
L 98.171365 253.537352 
L 98.656183 253.461593 
L 99.141001 253.756265 
L 99.625819 253.452194 
L 100.110637 253.745392 
L 100.595455 253.85036 
L 101.080273 253.728002 
L 101.565091 253.7389 
L 102.049909 253.499213 
L 102.534727 253.807887 
L 103.504363 253.703109 
L 103.989181 253.611989 
L 104.473999 253.33138 
L 104.958817 253.401428 
L 105.443635 253.306412 
L 105.928453 252.93712 
L 106.413271 253.11628 
L 106.898089 252.995644 
L 107.382907 253.601445 
L 108.837361 252.813002 
L 109.322179 252.764328 
L 109.806997 252.444276 
L 110.291815 252.705509 
L 110.776633 252.624565 
L 111.261451 252.363323 
L 111.746269 252.797389 
L 112.231087 252.228929 
L 112.715905 252.276925 
L 114.170359 251.695999 
L 114.655177 251.695999 
L 115.139995 251.492325 
L 115.624813 251.428625 
L 116.109631 251.599481 
L 117.079267 251.532616 
L 117.564085 251.358015 
L 118.048903 251.401221 
L 119.503357 250.924206 
L 120.472993 251.177583 
L 120.957811 251.128977 
L 121.442629 251.457997 
L 121.927447 251.599095 
L 123.381901 251.122792 
L 124.351537 251.022606 
L 124.836355 251.165522 
L 125.321173 251.173067 
L 125.805991 250.973682 
L 127.260445 250.768757 
L 127.745263 250.968777 
L 128.714899 251.013782 
L 129.199717 250.771546 
L 129.684535 250.839676 
L 130.169353 250.593599 
L 130.654171 250.657371 
L 131.623807 250.091718 
L 132.108625 250.163843 
L 135.017533 249.528831 
L 135.502351 249.265275 
L 135.987169 249.265275 
L 136.471987 249.104875 
L 137.441623 248.93869 
L 137.926441 248.819936 
L 138.411259 248.88506 
L 138.896077 248.813688 
L 139.380895 249.013417 
L 141.320167 248.4043 
L 141.804985 248.712272 
L 142.289803 248.527483 
L 142.774621 248.50824 
L 143.259439 248.374701 
L 143.744257 248.803105 
L 145.198711 249.073249 
L 145.683529 249.445671 
L 146.653165 249.437917 
L 147.137983 249.137036 
L 147.622801 249.230466 
L 148.107619 249.144853 
L 148.592437 249.191545 
L 149.077255 249.094202 
L 149.562073 249.595261 
L 150.046891 249.579618 
L 150.531709 249.427375 
L 151.016527 249.13067 
L 151.501345 249.187664 
L 151.986163 248.948878 
L 152.470981 248.835356 
L 152.955799 249.097643 
L 153.440617 249.088457 
L 153.925435 249.245506 
L 154.410253 248.896064 
L 154.895071 248.774359 
L 155.864707 248.29631 
L 156.834343 248.166379 
L 157.803979 247.912971 
L 159.258433 247.79054 
L 159.743251 248.156232 
L 160.712887 247.684889 
L 161.197705 247.700723 
L 162.652159 246.911056 
L 163.136977 246.597306 
L 163.621795 246.855435 
L 164.106613 246.536354 
L 164.591431 246.452753 
L 165.076249 246.580113 
L 165.561067 246.424905 
L 166.045885 246.472676 
L 166.530703 246.736255 
L 167.015521 246.851903 
L 167.500339 246.664475 
L 167.985157 246.624584 
L 168.469975 246.314462 
L 169.924429 246.462393 
L 170.894065 246.325992 
L 171.378883 246.060713 
L 171.863701 246.173237 
L 172.348519 245.969041 
L 172.833337 246.021275 
L 173.318155 245.84837 
L 173.802973 246.077544 
L 174.772609 245.734014 
L 175.742245 245.822693 
L 176.711881 245.646541 
L 177.196699 245.771788 
L 177.681517 246.139503 
L 178.651153 245.909168 
L 179.135971 245.899878 
L 179.620789 245.604215 
L 182.529697 245.283846 
L 183.014515 244.911039 
L 183.499333 245.195747 
L 183.984151 245.000521 
L 184.468969 245.138776 
L 185.438605 244.828092 
L 186.408241 244.485764 
L 187.862695 244.620641 
L 188.347513 244.881966 
L 189.317149 244.416504 
L 190.286785 244.735999 
L 191.256421 244.294173 
L 191.741239 244.451159 
L 192.226057 244.262611 
L 192.710875 244.414269 
L 196.104601 244.160035 
L 197.074237 244.383165 
L 197.559055 244.221686 
L 198.043873 244.424584 
L 199.013509 244.366624 
L 199.983145 244.689365 
L 200.467963 244.548285 
L 201.437599 244.535875 
L 201.922417 244.303935 
L 202.407235 244.653055 
L 204.346507 243.970685 
L 205.316143 243.954049 
L 205.800961 243.849899 
L 207.740233 244.437588 
L 208.225051 244.758955 
L 208.709869 244.886478 
L 209.194687 244.815405 
L 209.679505 245.722674 
L 210.164323 245.471809 
L 210.649141 245.962762 
L 211.618777 245.259021 
L 212.588413 245.454008 
L 213.073231 245.328104 
L 213.558049 245.88209 
L 214.527685 245.722597 
L 215.012503 246.030407 
L 215.497321 245.858018 
L 215.982139 245.403878 
L 216.466957 245.185251 
L 217.436593 245.197389 
L 217.921411 244.906714 
L 218.406229 244.801449 
L 219.375865 245.223329 
L 219.860683 244.995474 
L 220.345501 245.046143 
L 220.830319 244.96169 
L 221.315137 245.218305 
L 223.254409 245.16754 
L 223.739227 244.930318 
L 224.708863 244.726967 
L 225.193681 244.519393 
L 226.648135 244.546566 
L 227.132953 244.347114 
L 227.617771 244.602228 
L 228.102589 244.406643 
L 228.587407 244.551205 
L 230.041861 244.106301 
L 230.526679 244.208537 
L 231.011497 244.123331 
L 231.496315 243.915191 
L 231.981133 243.910934 
L 232.465951 243.693304 
L 232.950769 243.68049 
L 233.435587 243.492695 
L 233.920405 243.741996 
L 234.890041 243.716346 
L 235.374859 243.523903 
L 235.859677 243.769822 
L 236.344495 243.538485 
L 238.283767 243.358085 
L 238.768585 243.139213 
L 239.253403 243.280828 
L 239.738221 243.100564 
L 240.223039 243.279023 
L 240.707857 243.597125 
L 241.192675 243.575624 
L 242.162311 243.22752 
L 243.131947 242.702176 
L 244.101583 242.891648 
L 245.556037 242.886466 
L 246.040855 242.580153 
L 246.525673 242.88638 
L 247.010491 242.479844 
L 247.980127 242.67464 
L 248.949763 242.114809 
L 250.404217 241.528979 
L 250.889035 242.02622 
L 251.858671 242.247895 
L 252.343489 241.965359 
L 252.828307 242.537455 
L 253.313125 242.258827 
L 253.797943 241.832141 
L 254.282761 241.888732 
L 254.767579 241.692217 
L 255.252397 241.770708 
L 255.737215 241.58751 
L 256.222033 241.661716 
L 256.706851 242.078059 
L 257.676487 242.139266 
L 258.161305 242.318405 
L 258.646123 242.152356 
L 259.130941 242.771412 
L 259.615759 242.758304 
L 260.100577 242.482483 
L 260.585395 242.920322 
L 261.070213 242.725132 
L 261.555031 242.751457 
L 263.009485 242.26011 
L 263.979121 242.355499 
L 264.463939 242.052242 
L 264.948757 242.386245 
L 265.433575 242.169499 
L 265.918393 242.261996 
L 266.403211 242.165101 
L 266.888029 242.239965 
L 267.372847 241.849838 
L 267.857665 242.052827 
L 268.342483 241.858657 
L 268.827301 241.867503 
L 269.312119 241.999877 
L 269.796937 242.435382 
L 270.766573 242.271767 
L 271.251391 242.205473 
L 271.736209 242.276474 
L 272.221027 242.076871 
L 273.190663 242.279992 
L 273.675481 242.279992 
L 274.160299 241.991008 
L 274.645117 241.871012 
L 275.129935 241.911017 
L 275.614753 241.684287 
L 277.554025 241.310963 
L 278.038843 241.47135 
L 278.523661 241.453485 
L 279.008479 241.118679 
L 279.493297 241.145472 
L 280.462933 240.702395 
L 280.947751 240.671091 
L 281.432569 240.863425 
L 282.887023 240.467154 
L 283.371841 240.762899 
L 283.856659 240.722585 
L 284.341477 240.32393 
L 285.795931 240.063493 
L 286.280749 239.622393 
L 286.765567 239.352489 
L 287.250385 239.797819 
L 288.220021 239.455958 
L 288.704839 239.745726 
L 289.189657 239.538416 
L 290.159293 239.669122 
L 290.644111 239.588945 
L 291.128929 239.850801 
L 291.613747 239.819216 
L 292.583383 239.539255 
L 293.068201 239.827391 
L 293.553019 239.922399 
L 294.037837 239.714309 
L 294.522655 240.017372 
L 295.007473 239.886058 
L 295.492291 240.787904 
L 295.977109 241.186701 
L 296.461927 241.277316 
L 297.431562 241.334623 
L 297.91638 241.611568 
L 299.370834 241.016294 
L 299.855652 240.957123 
L 300.34047 241.111865 
L 301.310106 241.044578 
L 301.794924 240.839358 
L 302.279742 240.884971 
L 302.76456 240.593136 
L 303.734196 241.26915 
L 304.703832 240.784839 
L 305.673468 240.646666 
L 306.158286 240.266636 
L 307.127922 240.275795 
L 307.61274 240.418498 
L 308.097558 240.317532 
L 308.582376 240.042219 
L 309.067194 240.078923 
L 309.552012 239.789549 
L 310.03683 239.918319 
L 310.521648 239.74355 
L 311.006466 239.692971 
L 311.976102 240.118678 
L 312.945738 239.648673 
L 313.430556 239.750079 
L 315.369828 239.44986 
L 315.854646 239.413169 
L 316.339464 239.195712 
L 316.824282 239.440918 
L 318.278736 239.627498 
L 318.763554 239.35856 
L 319.248372 239.618203 
L 319.73319 239.646016 
L 320.218008 239.442736 
L 320.702826 239.656508 
L 321.672462 239.405593 
L 322.642098 239.455876 
L 323.126916 239.325502 
L 323.611734 239.588088 
L 324.096552 239.373849 
L 325.066188 239.648659 
L 325.551006 239.909509 
L 326.035824 239.820975 
L 326.520642 240.253918 
L 327.00546 240.459301 
L 328.459914 240.489762 
L 328.944732 240.531838 
L 329.42955 240.377473 
L 329.914368 240.419577 
L 330.399186 240.120124 
L 331.368822 240.217187 
L 331.85364 240.592342 
L 333.308094 240.545337 
L 333.792912 240.808521 
L 334.27773 240.423159 
L 334.762548 240.325054 
L 335.247366 240.48053 
L 336.70182 240.212004 
L 337.671456 240.014216 
L 338.641092 240.217191 
L 340.095546 239.918572 
L 340.580364 239.790782 
L 342.519636 240.282769 
L 343.004454 240.254294 
L 343.489272 240.700196 
L 343.97409 240.500553 
L 344.458908 240.681189 
L 344.943726 240.429249 
L 345.428544 240.599066 
L 345.913362 240.546515 
L 346.39818 240.298071 
L 346.882998 240.302882 
L 347.367816 240.193006 
L 347.852634 239.785473 
L 348.337452 239.747159 
L 349.791906 239.104344 
L 350.761542 239.267483 
L 351.731178 238.841686 
L 352.215996 238.663679 
L 353.185632 238.634833 
L 353.67045 238.876984 
L 354.155268 238.491173 
L 354.640086 238.360989 
L 355.124904 237.917345 
L 355.609722 237.700341 
L 356.09454 237.90241 
L 357.064176 237.999082 
L 357.548994 237.747718 
L 358.033812 237.800863 
L 359.488266 237.282379 
L 359.973084 236.80268 
L 360.457902 236.613252 
L 360.94272 236.593815 
L 361.427538 236.326703 
L 361.912356 236.214991 
L 362.397174 236.218877 
L 362.881992 236.364931 
L 363.36681 236.179915 
L 363.851628 236.160441 
L 365.306082 234.833355 
L 365.7909 234.779675 
L 366.275718 234.60891 
L 366.760536 234.705247 
L 367.245354 235.644269 
L 367.730172 235.072078 
L 368.21499 234.96446 
L 368.699808 234.506203 
L 369.184626 235.040484 
L 369.669444 235.006174 
L 370.154262 235.09439 
L 370.63908 234.819376 
L 371.123898 235.369613 
L 372.093534 234.848848 
L 374.032806 234.904351 
L 375.002442 234.564063 
L 375.972078 234.544344 
L 376.941714 233.755258 
L 377.426532 233.847686 
L 377.91135 233.813073 
L 378.396168 233.511606 
L 378.880986 232.859238 
L 379.365804 231.928668 
L 379.850622 234.900134 
L 380.33544 235.806406 
L 380.820258 233.062767 
L 381.305076 233.231804 
L 381.789894 232.105168 
L 383.244348 232.176663 
L 383.729166 232.380554 
L 384.698802 231.893179 
L 385.18362 231.788739 
L 385.668438 232.055787 
L 386.153256 231.716996 
L 387.60771 231.301777 
L 390.0318 230.579419 
L 390.516618 231.194472 
L 391.001436 230.954457 
L 391.486254 231.239478 
L 392.45589 231.011786 
L 394.395162 231.23629 
L 394.87998 231.151003 
L 395.849616 231.497171 
L 396.334434 231.099177 
L 396.819252 231.179568 
L 397.30407 230.852919 
L 397.788888 230.867999 
L 398.273706 231.101753 
L 398.758524 230.880237 
L 399.243342 230.938161 
L 400.212978 230.736591 
L 400.697796 231.295973 
L 401.667432 231.210287 
L 402.15225 231.18008 
L 402.637068 231.386021 
L 403.121886 231.45163 
L 404.57634 232.517404 
L 405.545976 232.906728 
L 406.515612 232.551487 
L 407.485248 232.298319 
L 407.970066 232.19197 
L 408.454884 232.323628 
L 408.939702 232.175049 
L 409.42452 232.332261 
L 410.394156 232.205468 
L 410.878974 232.054631 
L 411.363792 231.775305 
L 411.84861 231.744853 
L 412.333428 231.963218 
L 412.818246 231.629936 
L 414.757518 231.070499 
L 415.242336 231.326683 
L 416.211972 231.138239 
L 418.151244 231.200887 
L 419.605698 231.996966 
L 420.090516 231.772194 
L 420.575334 232.032726 
L 421.54497 231.347603 
L 422.029788 231.808078 
L 422.999424 231.705751 
L 423.484242 231.341124 
L 423.96906 231.771496 
L 424.453878 231.573077 
L 425.423514 231.788476 
L 425.908332 232.603961 
L 426.39315 232.768083 
L 426.877968 232.737296 
L 427.362786 232.952696 
L 427.847604 233.506895 
L 428.81724 233.866426 
L 429.302058 234.020514 
L 429.786876 233.562797 
L 430.271694 234.534945 
L 430.756512 234.69442 
L 431.24133 235.723154 
L 431.726148 235.306666 
L 432.210966 236.347248 
L 433.180602 237.269343 
L 433.66542 237.305399 
L 434.150238 237.882863 
L 435.604692 236.561785 
L 436.08951 237.142229 
L 436.574328 237.948717 
L 437.059146 238.424354 
L 437.543964 238.057287 
L 438.028782 237.293438 
L 438.5136 237.868331 
L 439.968054 236.397441 
L 440.452872 236.999376 
L 440.93769 236.786611 
L 441.422508 237.372998 
L 441.907326 237.57017 
L 442.392144 238.113139 
L 442.876962 238.414723 
L 443.36178 238.908682 
L 443.846598 239.756241 
L 444.331416 240.203417 
L 444.816234 240.390509 
L 445.78587 241.432737 
L 446.270688 240.677112 
L 446.755506 241.023562 
L 447.240324 239.890139 
L 447.725142 239.634218 
L 448.20996 239.091032 
L 448.694778 238.318626 
L 449.179596 238.580374 
L 449.664414 238.169031 
L 450.149232 238.89313 
L 450.63405 239.407329 
L 451.118868 238.305464 
L 451.603686 237.869973 
L 452.573322 237.786005 
L 453.05814 237.794085 
L 453.542958 238.530457 
L 454.027776 238.751374 
L 454.512594 239.208983 
L 454.997412 239.112188 
L 455.48223 238.579657 
L 455.967048 237.836257 
L 456.451866 237.488252 
L 456.936684 237.762427 
L 457.421502 237.206346 
L 457.90632 237.756075 
L 458.391138 237.877649 
L 458.875956 237.460072 
L 459.845592 237.630175 
L 460.33041 238.324358 
L 460.815228 238.594624 
L 461.300046 238.182656 
L 461.784864 238.246397 
L 462.7545 238.092327 
L 463.239318 238.257035 
L 463.724136 238.877623 
L 464.208954 238.126528 
L 464.693772 238.09989 
L 465.663408 238.657622 
L 466.633044 239.223801 
L 467.60268 238.8613 
L 469.057134 239.39151 
L 470.02677 240.487209 
L 470.511588 240.009237 
L 470.996406 240.889982 
L 471.481224 240.573126 
L 471.966042 239.567013 
L 472.45086 239.685522 
L 472.935678 238.990646 
L 473.420496 239.044516 
L 473.905314 237.990681 
L 474.390132 237.95828 
L 474.87495 236.832714 
L 475.359768 236.756858 
L 475.844586 236.529343 
L 476.329404 237.09817 
L 476.814222 236.610604 
L 477.29904 237.195691 
L 477.783858 237.168595 
L 478.268676 236.799139 
L 478.753494 237.250123 
L 479.238312 237.538105 
L 479.72313 237.407689 
L 480.207948 237.148322 
L 480.692766 236.745051 
L 481.177584 237.382652 
L 481.662402 236.990267 
L 482.14722 236.924884 
L 483.116856 237.848599 
L 483.601674 238.165604 
L 484.086492 238.192926 
L 484.57131 237.55952 
L 485.056128 237.532084 
L 485.540946 237.241517 
L 486.510582 237.378589 
L 486.9954 237.157481 
L 487.480218 236.442496 
L 487.965036 236.530495 
L 488.449854 236.90999 
L 489.41949 236.01567 
L 489.904308 236.203252 
L 490.389126 236.054283 
L 490.873944 234.775064 
L 491.358762 235.206715 
L 492.328398 234.531576 
L 492.813216 234.81934 
L 493.298034 234.124319 
L 493.782852 233.818999 
L 494.26767 233.963334 
L 494.752488 233.952235 
L 495.237306 234.6384 
L 495.722124 234.894534 
L 496.206942 234.883394 
L 496.69176 235.40123 
L 497.176578 235.713732 
L 497.661396 235.278055 
L 498.146214 235.747253 
L 498.631032 235.663462 
L 499.11585 234.887049 
L 499.600668 234.639375 
L 500.085486 235.429455 
L 500.570304 235.791642 
L 501.055122 235.971535 
L 501.53994 235.875968 
L 502.024758 236.365035 
L 502.509576 235.814127 
L 502.994394 235.763531 
L 504.448848 235.19348 
L 504.933666 235.012994 
L 505.418484 234.319251 
L 505.903302 234.656446 
L 506.38812 234.696039 
L 506.872938 234.43581 
L 507.357756 234.441455 
L 507.842574 233.842975 
L 508.327392 235.216595 
L 509.297028 234.33113 
L 510.266664 234.627455 
L 510.751482 234.68439 
L 511.2363 234.923576 
L 511.721118 234.433833 
L 512.205936 234.717798 
L 512.690754 234.32929 
L 513.175572 234.180728 
L 513.66039 233.84935 
L 514.145208 233.856396 
L 514.630026 234.097137 
L 515.114844 234.06275 
L 515.599662 233.867868 
L 516.08448 233.28158 
L 516.569298 233.396602 
L 517.054116 233.396602 
L 517.538934 233.132048 
L 518.023752 233.097539 
L 518.50857 232.539585 
L 518.993388 232.285695 
L 519.963024 232.556887 
L 521.417478 231.853895 
L 521.902296 231.749696 
L 522.387114 232.097016 
L 523.35675 232.220721 
L 524.326386 231.744491 
L 524.811204 232.014844 
L 525.296022 232.143024 
L 526.265658 231.814303 
L 526.750476 231.92538 
L 527.235294 231.744151 
L 528.20493 231.773382 
L 528.689748 231.761693 
L 529.174566 231.571078 
L 529.659384 231.066686 
L 530.144202 231.119468 
L 530.62902 230.826213 
L 531.598656 231.928763 
L 532.083474 232.252342 
L 532.568292 232.322943 
L 533.05311 231.718129 
L 533.537928 231.664998 
L 534.022746 231.352119 
L 534.992382 231.717871 
L 535.4772 231.552025 
L 535.962018 232.239112 
L 536.931654 231.623103 
L 537.416472 231.955315 
L 537.90129 231.604676 
L 538.386108 231.497702 
L 538.386108 231.497702 
" clip-path="url(#p2c10c10f5d)" style="fill: none; stroke: #3f6f8f; stroke-width: 1.5; stroke-linecap: square"/>
   </g>
   <g id="line2d_27">
    <path d="M 56.477017 256.336382 
L 56.961835 257.471153 
L 57.446653 257.149125 
L 57.931471 257.184906 
L 58.416289 257.445597 
L 58.901107 257.092897 
L 59.385925 256.545959 
L 59.870743 255.753662 
L 60.355561 256.862874 
L 60.840379 256.208593 
L 61.325197 256.269933 
L 61.810015 257.067338 
L 62.294833 256.505065 
L 62.779651 256.295492 
L 63.264469 254.828468 
L 63.749287 254.521774 
L 64.234105 253.320554 
L 64.718923 252.722497 
L 65.203741 252.778724 
L 66.173377 251.603064 
L 67.143013 249.49198 
L 67.627831 248.290759 
L 68.112649 250.555189 
L 68.597467 248.766136 
L 69.082285 250.774987 
L 69.567103 250.120705 
L 70.051921 250.161599 
L 70.536739 249.353969 
L 71.021557 247.87161 
L 71.506375 246.782846 
L 71.991193 245.019349 
L 72.476011 245.612294 
L 72.960829 244.140157 
L 73.445647 244.625759 
L 73.930465 243.782348 
L 74.415283 244.727989 
L 74.900101 242.560681 
L 75.384919 241.13455 
L 75.869737 241.180557 
L 76.354555 239.841322 
L 76.839373 244.339508 
L 77.324191 243.33253 
L 77.809009 244.165716 
L 78.293827 243.628999 
L 78.778645 243.976586 
L 79.748281 247.06398 
L 80.233099 245.612294 
L 80.717917 244.753548 
L 81.202735 243.66478 
L 81.687553 245.59696 
L 82.172371 244.773995 
L 82.657189 246.425033 
L 83.626825 243.542103 
L 84.111643 243.240522 
L 84.596461 241.65593 
L 85.081279 242.161979 
L 86.050915 244.513304 
L 86.535733 247.140654 
L 87.020551 250.616529 
L 87.505369 248.853032 
L 87.990187 248.531004 
L 88.475005 249.926463 
L 88.959823 251.679734 
L 89.444641 246.348358 
L 89.929459 246.010996 
L 90.414277 248.081187 
L 90.899095 247.759155 
L 91.868731 253.387003 
L 92.353549 253.831712 
L 92.838367 253.238767 
L 93.323185 252.829839 
L 93.808003 249.992916 
L 94.292821 249.246626 
L 94.777639 252.20623 
L 95.262457 248.991047 
L 95.747275 248.06074 
L 96.232093 246.542601 
L 96.716911 246.220569 
L 97.201729 247.401346 
L 97.686547 248.019846 
L 98.171365 245.044908 
L 98.656183 243.62389 
L 99.141001 244.503082 
L 99.625819 242.990052 
L 100.110637 240.306473 
L 100.595455 242.949162 
L 101.080273 243.122954 
L 101.565091 243.628999 
L 102.049909 242.458451 
L 103.019545 245.525398 
L 103.989181 246.736839 
L 104.473999 244.436629 
L 104.958817 245.852539 
L 105.443635 244.303727 
L 105.928453 243.50121 
L 106.898089 241.124329 
L 107.382907 242.397111 
L 107.867725 243.184294 
L 108.352543 243.322305 
L 108.837361 243.122954 
L 109.322179 243.654558 
L 109.806997 244.508191 
L 110.291815 243.306971 
L 110.776633 242.550456 
L 111.261451 242.581128 
L 111.746269 242.376664 
L 112.231087 242.760032 
L 112.715905 242.427779 
L 113.200723 242.315324 
L 113.685541 240.444488 
L 114.170359 239.805541 
L 114.655177 239.861769 
L 115.139995 240.715401 
L 115.624813 240.015114 
L 116.109631 237.730242 
L 117.079267 237.397988 
L 117.564085 237.888699 
L 118.048903 235.384025 
L 118.533721 234.203252 
L 119.018539 232.567545 
L 119.503357 231.483893 
L 119.988175 232.153508 
L 120.472993 234.417937 
L 121.442629 234.908648 
L 121.927447 235.445366 
L 122.412265 233.370062 
L 122.897083 233.630754 
L 123.381901 235.516927 
L 124.351537 236.789709 
L 125.321173 234.341263 
L 125.805991 234.36171 
L 126.290809 233.656313 
L 126.775627 235.118225 
L 127.745263 234.791084 
L 128.230081 233.937448 
L 128.714899 232.209736 
L 129.199717 233.436515 
L 130.169353 231.330544 
L 130.654171 229.843077 
L 131.138989 228.769642 
L 131.623807 231.402106 
L 132.108625 229.53127 
L 132.593443 229.372808 
L 133.078261 228.953659 
L 133.563079 227.512194 
L 134.047897 227.547975 
L 134.532715 229.730621 
L 135.017533 229.79707 
L 135.502351 230.660928 
L 136.471987 231.264095 
L 136.956805 230.062875 
L 137.441623 229.602832 
L 138.411259 228.442501 
L 138.896077 228.008018 
L 139.380895 228.074467 
L 140.350531 225.539125 
L 141.804985 221.966137 
L 142.289803 223.985209 
L 142.774621 222.507963 
L 143.259439 220.586005 
L 143.744257 221.961021 
L 144.229075 222.722648 
L 144.713893 222.257493 
L 145.198711 219.722147 
L 145.683529 221.081828 
L 146.168347 221.700333 
L 146.653165 221.465197 
L 147.137983 219.389897 
L 147.622801 222.017248 
L 148.107619 222.472178 
L 148.592437 223.320702 
L 149.077255 223.70407 
L 149.562073 222.99867 
L 150.046891 222.661304 
L 150.531709 221.081828 
L 151.501345 219.067866 
L 151.986163 219.645476 
L 152.470981 219.568806 
L 152.955799 219.113876 
L 153.440617 219.144544 
L 153.925435 216.864777 
L 154.895071 215.29041 
L 155.379889 212.412597 
L 155.864707 216.026478 
L 156.349525 215.857795 
L 157.319161 213.777387 
L 157.803979 213.511583 
L 158.288797 214.012515 
L 158.773615 213.654706 
L 159.258433 215.535771 
L 159.743251 216.215612 
L 160.712887 210.966019 
L 161.197705 210.495755 
L 161.682523 209.386543 
L 162.167341 207.617934 
L 163.136977 198.314864 
L 163.621795 199.582533 
L 164.106613 196.63315 
L 164.591431 197.931495 
L 165.076249 200.318601 
L 165.561067 208.61469 
L 166.045885 209.504108 
L 166.530703 208.931613 
L 167.015521 206.774527 
L 167.500339 208.757814 
L 167.985157 203.595125 
L 168.469975 202.966395 
L 168.954793 201.376694 
L 169.439611 204.61744 
L 169.924429 206.774527 
L 170.409247 203.492887 
L 170.894065 205.241053 
L 171.378883 210.950685 
L 171.863701 210.398634 
L 172.348519 212.606831 
L 172.833337 209.943704 
L 173.318155 208.89072 
L 173.802973 207.45436 
L 174.287791 203.927374 
L 174.772609 204.607215 
L 175.257427 204.862794 
L 175.742245 204.755447 
L 176.227063 202.261003 
L 176.711881 205.271722 
L 177.196699 205.251271 
L 177.681517 207.847954 
L 178.166335 207.730389 
L 178.651153 207.428808 
L 179.135971 209.376318 
L 179.620789 208.077973 
L 180.105607 208.747596 
L 180.590425 207.80706 
L 181.075243 208.783373 
L 181.560061 211.804318 
L 182.044879 211.298269 
L 182.529697 212.254139 
L 183.014515 209.790355 
L 183.499333 211.206264 
L 183.984151 209.616563 
L 184.468969 212.274582 
L 184.953787 210.971128 
L 185.438605 211.727639 
L 185.923423 211.507845 
L 186.408241 211.74809 
L 186.893059 209.769912 
L 187.377877 210.787111 
L 187.862695 209.953929 
L 188.347513 210.189057 
L 188.832331 207.505479 
L 189.317149 206.355374 
L 190.286785 202.480797 
L 190.771603 202.39901 
L 191.256421 202.434794 
L 191.741239 202.061651 
L 192.710875 204.94969 
L 193.195693 205.481298 
L 193.680511 207.183447 
L 194.165329 204.515203 
L 194.650147 205.50685 
L 195.134965 203.600234 
L 195.619783 205.419954 
L 196.589419 206.401376 
L 197.074237 208.343777 
L 197.559055 208.236438 
L 198.043873 208.28755 
L 198.528691 207.970634 
L 199.013509 206.932985 
L 199.498327 208.180211 
L 199.983145 207.771283 
L 200.467963 207.709939 
L 200.952781 210.679772 
L 201.437599 212.105899 
L 201.922417 212.376812 
L 202.407235 212.238797 
L 203.376871 210.787111 
L 203.861689 211.349388 
L 204.346507 212.187686 
L 205.316143 221.05116 
L 205.800961 218.270461 
L 206.285779 217.667298 
L 206.770597 218.940076 
L 207.255415 223.300251 
L 207.740233 221.925244 
L 208.225051 221.843456 
L 208.709869 222.170597 
L 209.194687 221.582769 
L 209.679505 226.377424 
L 210.164323 229.413702 
L 210.649141 229.935085 
L 211.133959 226.847692 
L 211.618777 226.346755 
L 212.103595 224.470807 
L 212.588413 225.707808 
L 213.073231 225.452229 
L 213.558049 222.528406 
L 214.042867 221.342524 
L 215.012503 221.725892 
L 215.497321 224.961518 
L 215.982139 224.889956 
L 216.466957 224.373686 
L 216.951775 225.620912 
L 217.436593 227.629762 
L 218.406229 223.612058 
L 218.891047 225.406227 
L 219.375865 226.771017 
L 219.860683 226.75057 
L 220.345501 228.999665 
L 220.830319 228.600963 
L 221.315137 229.699949 
L 221.799955 229.275691 
L 222.284773 231.034071 
L 222.769591 230.430905 
L 223.254409 229.321693 
L 224.708863 227.78822 
L 225.193681 228.91277 
L 225.678499 227.84956 
L 226.163317 225.303993 
L 226.648135 225.084195 
L 227.132953 225.063748 
L 227.617771 224.312349 
L 228.102589 222.262602 
L 229.072225 226.627894 
L 229.557043 226.111623 
L 230.041861 225.416448 
L 230.526679 226.530772 
L 231.011497 226.183185 
L 231.496315 226.372315 
L 231.981133 226.863026 
L 232.465951 226.658562 
L 232.950769 226.653449 
L 233.435587 228.738974 
L 233.920405 228.646965 
L 234.405223 227.445745 
L 234.890041 225.636246 
L 235.374859 225.554459 
L 235.859677 225.29888 
L 236.344495 224.470807 
L 236.829313 225.825376 
L 237.314131 225.999168 
L 237.798949 226.719902 
L 238.283767 225.794704 
L 238.768585 226.157626 
L 239.253403 227.328177 
L 239.738221 226.985703 
L 240.223039 227.905788 
L 240.707857 229.786849 
L 241.192675 230.446243 
L 241.677493 230.461577 
L 242.162311 231.713912 
L 242.647129 230.190664 
L 243.131947 229.475042 
L 243.616765 229.802183 
L 244.101583 232.710668 
L 244.586401 232.552211 
L 245.071219 231.785474 
L 245.556037 231.31521 
L 246.040855 232.991807 
L 246.525673 231.805921 
L 247.010491 230.282669 
L 247.495309 231.632129 
L 247.980127 231.601457 
L 248.464945 231.984825 
L 248.949763 230.359343 
L 249.434581 227.670656 
L 249.919399 226.796573 
L 250.404217 227.195279 
L 250.889035 229.653947 
L 251.373853 229.991309 
L 251.858671 231.371437 
L 252.343489 230.921616 
L 252.828307 233.119596 
L 253.313125 233.620532 
L 253.797943 232.245517 
L 254.282761 231.483893 
L 254.767579 231.371437 
L 255.252397 231.018737 
L 255.737215 231.207867 
L 256.222033 232.511317 
L 256.706851 232.495983 
L 257.191669 232.041053 
L 257.676487 230.221332 
L 258.646123 231.974604 
L 259.130941 232.925357 
L 259.615759 232.419308 
L 260.100577 231.453221 
L 260.585395 232.761787 
L 261.070213 233.170711 
L 261.555031 233.308726 
L 262.524667 236.447234 
L 263.494303 236.805043 
L 263.979121 235.680498 
L 264.463939 233.492743 
L 264.948757 234.734857 
L 265.918393 236.033194 
L 266.403211 234.474165 
L 266.888029 234.167471 
L 267.372847 234.58662 
L 268.342483 232.797568 
L 268.827301 233.303613 
L 269.312119 234.428159 
L 269.796937 237.086182 
L 270.766573 237.602452 
L 271.251391 238.542981 
L 271.736209 237.127075 
L 272.705845 238.139165 
L 273.190663 237.622895 
L 273.675481 238.435638 
L 274.160299 236.278551 
L 274.645117 237.096403 
L 275.129935 236.626139 
L 275.614753 235.629383 
L 276.584389 229.79707 
L 277.069207 230.195773 
L 277.554025 230.436018 
L 278.038843 228.682746 
L 278.523661 229.260353 
L 279.008479 229.061002 
L 279.493297 230.83472 
L 279.978115 230.528026 
L 280.462933 229.76129 
L 280.947751 230.021981 
L 281.432569 230.037315 
L 281.917387 227.093045 
L 282.402205 227.33329 
L 282.887023 228.084693 
L 283.371841 229.107008 
L 283.856659 231.197642 
L 284.826295 228.069358 
L 286.765567 223.58139 
L 287.250385 225.462454 
L 287.735203 225.712921 
L 288.220021 224.368577 
L 288.704839 225.099529 
L 289.189657 225.176203 
L 289.674475 224.884844 
L 290.159293 225.866266 
L 290.644111 225.600465 
L 291.128929 225.508457 
L 291.613747 226.372315 
L 292.098565 225.048414 
L 292.583383 226.075842 
L 293.068201 229.091674 
L 293.553019 229.285913 
L 294.037837 228.53451 
L 294.522655 228.151142 
L 295.007473 226.71479 
L 295.492291 230.44113 
L 295.977109 231.437886 
L 296.461927 232.736228 
L 296.946745 232.976472 
L 297.431562 233.865886 
L 297.91638 235.067106 
L 298.401198 235.128446 
L 298.886016 234.269701 
L 299.855652 231.918376 
L 300.34047 231.489001 
L 300.825288 232.28641 
L 301.310106 230.936954 
L 301.794924 230.185551 
L 302.279742 230.144658 
L 302.76456 229.112121 
L 303.249378 230.231554 
L 303.734196 231.657684 
L 304.703832 229.541491 
L 305.18865 229.613053 
L 305.673468 229.234798 
L 306.158286 227.629762 
L 306.643104 227.777999 
L 307.127922 228.565182 
L 307.61274 230.487133 
L 308.097558 230.579141 
L 308.582376 229.265466 
L 309.552012 228.135808 
L 310.521648 229.296138 
L 311.006466 229.250132 
L 311.491284 229.970866 
L 311.976102 231.371437 
L 312.46092 230.609813 
L 312.945738 229.337028 
L 313.430556 228.606072 
L 313.915374 229.137676 
L 314.400192 227.532641 
L 314.88501 227.783107 
L 315.369828 227.558201 
L 315.854646 225.861157 
L 316.339464 224.884844 
L 317.3091 227.302622 
L 317.793918 228.151142 
L 318.278736 228.401612 
L 318.763554 227.006149 
L 319.248372 228.135808 
L 319.73319 228.498729 
L 320.218008 228.641853 
L 320.702826 228.381165 
L 321.187644 227.49686 
L 322.15728 228.146033 
L 322.642098 229.73573 
L 323.126916 229.377921 
L 323.611734 228.478282 
L 324.096552 227.093045 
L 325.066188 225.401114 
L 325.551006 225.67714 
L 326.035824 224.833725 
L 327.00546 226.520551 
L 327.490278 224.889956 
L 327.975096 225.820263 
L 328.459914 226.203632 
L 328.944732 226.126957 
L 329.42955 226.607447 
L 329.914368 225.068861 
L 330.399186 225.999168 
L 330.884004 225.692474 
L 331.368822 225.150648 
L 331.85364 225.569797 
L 332.823276 226.638115 
L 333.308094 226.402983 
L 333.792912 227.72688 
L 334.27773 227.317956 
L 334.762548 227.68599 
L 335.247366 227.420186 
L 335.732184 228.273822 
L 336.217002 228.78498 
L 336.70182 229.648834 
L 337.186638 229.541491 
L 338.156274 230.717156 
L 339.12591 231.555454 
L 339.610728 231.673019 
L 340.095546 232.981585 
L 340.580364 231.943932 
L 341.065182 232.276185 
L 342.034818 232.526655 
L 342.519636 232.28641 
L 343.004454 232.659553 
L 343.489272 232.127949 
L 343.97409 231.396993 
L 344.943726 230.609813 
L 345.428544 230.67115 
L 345.913362 231.780361 
L 346.39818 231.197642 
L 346.882998 231.120971 
L 347.367816 231.238535 
L 347.852634 229.935085 
L 348.337452 230.461577 
L 348.82227 229.613053 
L 349.307088 228.416946 
L 350.276724 228.038686 
L 350.761542 228.437393 
L 351.731178 226.658562 
L 352.215996 226.806798 
L 353.185632 226.147404 
L 353.67045 227.997797 
L 354.155268 227.507086 
L 354.640086 227.440633 
L 355.124904 226.929475 
L 355.609722 227.931344 
L 356.579358 228.023352 
L 357.064176 228.769642 
L 357.548994 228.258484 
L 358.033812 228.626519 
L 358.51863 228.227816 
L 359.003448 228.626519 
L 359.488266 228.294265 
L 359.973084 227.256616 
L 360.457902 225.590244 
L 360.94272 225.605578 
L 361.427538 222.835104 
L 361.912356 222.211491 
L 362.397174 222.753317 
L 362.881992 222.042808 
L 363.36681 221.562318 
L 363.851628 221.98658 
L 364.336446 220.836475 
L 364.821264 218.09156 
L 365.7909 216.604089 
L 366.275718 216.818774 
L 367.245354 218.658946 
L 367.730172 217.227702 
L 368.21499 218.19379 
L 368.699808 217.764419 
L 369.184626 218.720282 
L 369.669444 218.50048 
L 370.154262 217.784862 
L 370.63908 217.427053 
L 371.123898 220.069738 
L 371.608716 219.650585 
L 372.093534 219.89083 
L 372.578352 219.829493 
L 373.06317 219.952174 
L 373.547988 219.221214 
L 374.032806 218.98097 
L 374.517624 217.544617 
L 375.002442 215.740231 
L 375.48726 215.203514 
L 375.972078 215.372197 
L 376.941714 213.966513 
L 377.426532 214.7537 
L 377.91135 214.135196 
L 378.396168 211.221598 
L 378.880986 214.452111 
L 379.365804 209.764795 
L 379.850622 217.059019 
L 380.33544 218.679388 
L 380.820258 212.473933 
L 381.305076 212.269473 
L 381.789894 209.182076 
L 382.274712 209.243412 
L 382.75953 207.163004 
L 383.244348 208.624916 
L 383.729166 208.297775 
L 384.213984 206.503614 
L 384.698802 206.87164 
L 385.18362 207.024989 
L 385.668438 209.529667 
L 386.153256 207.173229 
L 386.638074 206.452495 
L 387.122892 205.169492 
L 387.60771 204.944581 
L 388.092528 203.814919 
L 388.577346 203.339546 
L 389.546982 195.513721 
L 390.0318 192.76369 
L 390.516618 196.990967 
L 391.001436 197.251655 
L 391.486254 196.045322 
L 391.971072 197.451006 
L 392.940708 196.653601 
L 393.425526 200.875762 
L 393.910344 199.035598 
L 394.395162 197.737253 
L 394.87998 199.158271 
L 395.364798 198.984479 
L 395.849616 200.231706 
L 396.334434 196.65871 
L 396.819252 199.740991 
L 397.30407 200.492393 
L 397.788888 204.530544 
L 398.273706 202.214992 
L 398.758524 202.128097 
L 399.243342 200.109025 
L 399.72816 200.155027 
L 400.212978 199.127603 
L 400.697796 201.693617 
L 401.182614 202.823272 
L 401.667432 201.40737 
L 402.15225 202.06676 
L 402.637068 203.498004 
L 403.121886 203.048182 
L 403.606704 204.929247 
L 404.091522 207.587266 
L 404.57634 208.952056 
L 405.061158 207.750832 
L 405.545976 206.856306 
L 406.030794 207.367464 
L 406.515612 207.50037 
L 407.00043 206.840972 
L 407.485248 205.266605 
L 407.970066 205.241053 
L 408.454884 205.619305 
L 408.939702 202.588143 
L 409.42452 202.025867 
L 409.909338 200.313493 
L 410.394156 199.117378 
L 411.363792 200.466834 
L 411.84861 205.992456 
L 412.333428 205.143932 
L 412.818246 204.786123 
L 413.303064 203.804694 
L 413.787882 203.702464 
L 414.2727 204.136951 
L 414.757518 203.492887 
L 415.242336 206.140688 
L 415.727154 205.246162 
L 416.211972 205.087705 
L 416.69679 203.303761 
L 417.181608 202.859056 
L 418.151244 206.585393 
L 418.636062 206.825638 
L 419.12088 206.166248 
L 419.605698 206.350265 
L 420.090516 205.787988 
L 420.575334 204.540762 
L 421.060152 205.113264 
L 421.54497 203.482669 
L 422.029788 201.126232 
L 422.514606 202.06676 
L 422.999424 205.011026 
L 423.96906 205.149041 
L 424.938696 203.927374 
L 425.423514 202.910167 
L 425.908332 204.550987 
L 426.39315 203.569565 
L 426.877968 202.843722 
L 427.362786 204.883237 
L 427.847604 203.983602 
L 428.332422 201.453372 
L 428.81724 199.761441 
L 429.302058 200.052797 
L 429.786876 196.408247 
L 430.271694 195.687513 
L 430.756512 198.647113 
L 431.24133 197.072746 
L 431.726148 198.544883 
L 432.210966 197.537902 
L 432.695784 196.22423 
L 433.66542 199.86878 
L 434.150238 200.630408 
L 434.635056 204.019387 
L 435.119874 202.363233 
L 435.604692 201.944079 
L 436.08951 202.082094 
L 436.574328 201.080229 
L 437.059146 202.75171 
L 437.543964 203.35488 
L 438.028782 204.259624 
L 438.5136 207.336796 
L 438.998418 209.018509 
L 439.483236 208.169985 
L 439.968054 206.41671 
L 440.452872 205.808439 
L 440.93769 204.489651 
L 441.422508 207.12211 
L 441.907326 207.612825 
L 442.392144 208.89072 
L 442.876962 208.604465 
L 443.36178 210.638879 
L 443.846598 212.085456 
L 444.331416 211.236932 
L 444.816234 209.596112 
L 445.301052 212.10079 
L 445.78587 211.502736 
L 446.270688 212.008778 
L 446.755506 210.316847 
L 447.240324 206.181582 
L 447.725142 207.086333 
L 448.20996 206.866532 
L 448.694778 204.801457 
L 449.664414 205.041702 
L 450.149232 204.801457 
L 450.63405 203.584899 
L 451.118868 201.504483 
L 451.603686 198.923143 
L 452.088504 198.65223 
L 452.573322 198.688007 
L 453.05814 201.632273 
L 453.542958 201.683392 
L 454.027776 202.756826 
L 454.512594 204.24429 
L 454.997412 202.128097 
L 455.48223 201.422704 
L 455.967048 196.362237 
L 456.451866 196.423582 
L 456.936684 196.643376 
L 457.421502 194.971888 
L 457.90632 195.038341 
L 458.391138 196.116884 
L 458.875956 195.835745 
L 459.360774 194.476064 
L 459.845592 194.808321 
L 460.815228 197.81904 
L 461.300046 197.752587 
L 461.784864 197.246546 
L 462.269682 197.456115 
L 462.7545 199.20939 
L 463.239318 199.173605 
L 463.724136 198.984479 
L 464.208954 197.558352 
L 464.693772 197.174984 
L 465.17859 197.338551 
L 465.663408 198.192183 
L 466.633044 200.67641 
L 467.60268 198.233077 
L 468.087498 199.270726 
L 469.057134 198.994705 
L 469.541952 202.659705 
L 470.02677 203.554231 
L 470.511588 198.887358 
L 470.996406 196.45425 
L 471.481224 195.145687 
L 471.966042 195.840862 
L 472.45086 198.539775 
L 472.935678 196.413356 
L 473.420496 195.467711 
L 473.905314 192.150302 
L 474.390132 195.406375 
L 474.87495 194.7112 
L 475.359768 193.039712 
L 475.844586 192.579673 
L 476.329404 193.509976 
L 476.814222 193.325959 
L 477.29904 194.235827 
L 477.783858 194.706091 
L 478.268676 193.888235 
L 479.238312 195.048566 
L 479.72313 193.883127 
L 480.207948 191.700481 
L 480.692766 187.232959 
L 481.177584 188.214381 
L 481.662402 187.88724 
L 482.14722 185.142325 
L 482.632038 180.32722 
L 483.116856 179.432694 
L 483.601674 177.316501 
L 484.57131 181.44154 
L 485.540946 175.972153 
L 486.025764 179.928517 
L 486.510582 180.245433 
L 486.9954 182.136715 
L 487.480218 180.025639 
L 487.965036 180.511237 
L 488.449854 180.393673 
L 488.934672 177.36762 
L 489.41949 176.253292 
L 490.389126 177.520961 
L 490.873944 175.113412 
L 491.358762 175.512114 
L 491.84358 171.714208 
L 492.328398 171.698874 
L 493.298034 172.409383 
L 493.782852 168.294569 
L 494.752488 165.053823 
L 495.237306 165.064048 
L 495.722124 164.823803 
L 496.206942 161.859086 
L 496.69176 160.811211 
L 497.176578 161.245699 
L 497.661396 163.551017 
L 498.146214 169.362887 
L 498.631032 162.590046 
L 499.11585 164.762467 
L 499.600668 166.111923 
L 500.085486 165.426973 
L 500.570304 166.546402 
L 501.055122 166.904219 
L 501.53994 165.835893 
L 502.024758 163.423228 
L 502.509576 162.881402 
L 502.994394 159.620221 
L 503.479212 158.132749 
L 503.96403 155.403169 
L 504.448848 154.181494 
L 504.933666 151.906851 
L 505.418484 155.725201 
L 505.903302 153.10806 
L 506.38812 149.606641 
L 506.872938 147.945378 
L 507.357756 145.098226 
L 507.842574 147.316649 
L 508.327392 138.00847 
L 508.81221 133.822086 
L 509.297028 134.532587 
L 509.781846 137.982902 
L 510.266664 133.454052 
L 510.751482 139.894643 
L 511.2363 131.966581 
L 511.721118 135.110198 
L 512.205936 134.302576 
L 512.690754 128.623605 
L 513.175572 131.772338 
L 513.66039 136.326756 
L 514.145208 133.300695 
L 514.630026 132.27838 
L 515.599662 133.167805 
L 516.08448 132.293729 
L 516.569298 130.279766 
L 517.054116 133.152471 
L 517.538934 131.542327 
L 518.023752 127.713744 
L 518.50857 121.078926 
L 519.478206 116.923211 
L 519.963024 113.058859 
L 520.93266 101.619145 
L 521.417478 91.462442 
L 522.387114 102.130303 
L 522.871932 102.033182 
L 523.35675 98.122828 
L 523.841568 98.986686 
L 524.326386 92.02982 
L 524.811204 92.765889 
L 525.296022 88.165468 
L 525.78084 86.33553 
L 526.265658 77.277814 
L 526.750476 86.713782 
L 527.235294 78.438136 
L 527.720112 74.952036 
L 528.20493 56.187438 
L 528.689748 62.858041 
L 529.174566 57.485783 
L 530.144202 50.758945 
L 530.62902 43.025125 
L 531.113838 48.259376 
L 531.598656 54.735752 
L 532.083474 78.995296 
L 532.568292 78.320564 
L 533.05311 70.801438 
L 534.022746 62.357116 
L 534.992382 73.985956 
L 535.4772 68.572797 
L 535.962018 76.996668 
L 536.446836 78.770386 
L 536.931654 77.083571 
L 537.416472 87.756548 
L 537.90129 92.71477 
L 538.386108 92.160168 
L 538.386108 92.160168 
" clip-path="url(#p2c10c10f5d)" style="fill: none; stroke: #7a8450; stroke-width: 1.5; stroke-linecap: square"/>
   </g>
   <g id="line2d_28">
    <path d="M 56.477017 257.20834 
L 60.840379 256.956566 
L 62.294833 256.810874 
L 67.143013 256.55567 
L 71.506375 256.387607 
L 76.354555 256.133915 
L 78.293827 256.119008 
L 79.748281 256.138389 
L 90.899095 255.745511 
L 91.383913 255.903136 
L 93.808003 255.785228 
L 94.292821 255.860378 
L 95.262457 255.810758 
L 99.625819 255.776161 
L 106.898089 255.761123 
L 109.322179 255.757351 
L 117.079267 255.775395 
L 119.503357 255.767134 
L 125.805991 255.764122 
L 129.684535 255.779195 
L 263.494303 255.883114 
L 270.766573 255.898166 
L 278.038843 255.89065 
L 283.856659 255.875563 
L 311.491284 255.767726 
L 329.914368 255.518783 
L 346.39818 255.112033 
L 360.457902 254.67412 
L 366.275718 254.498544 
L 386.153256 254.15379 
L 400.697796 254.164439 
L 412.333428 254.1763 
L 429.302058 254.203938 
L 434.150238 254.183406 
L 444.331416 253.993395 
L 448.694778 253.80927 
L 456.451866 253.314974 
L 458.391138 253.196884 
L 462.7545 252.906545 
L 483.601674 251.263024 
L 493.298034 250.474078 
L 504.933666 249.637465 
L 513.66039 249.057055 
L 522.387114 248.468494 
L 534.507564 247.739971 
L 538.386108 247.510775 
L 538.386108 247.510775 
" clip-path="url(#p2c10c10f5d)" style="fill: none; stroke: #aba499; stroke-width: 1.5; stroke-linecap: square"/>
   </g>
   <g id="patch_3">
    <path d="M 32.381562 286.457125 
L 562.481562 286.457125 
" style="fill: none; stroke: #8a8f98; stroke-width: 0.8; stroke-linejoin: miter; stroke-linecap: square"/>
   </g>
   <g id="text_18">
    <text style="fill: #8a8f98; font: 14px 'Helvetica Neue', 'Helvetica', 'Arial', 'DejaVu Sans', sans-serif; text-anchor: start" x="32.381563" y="17.433125" transform="rotate(-0 32.381563 17.433125)">Crescita di 100 investiti nel 2007, per asset class</text>
   </g>
   <g id="legend_1">
    <g id="line2d_29">
     <path d="M 42.281562 45.523437 
L 53.281562 45.523437 
L 64.281563 45.523437 
" style="fill: none; stroke: #b6892b; stroke-width: 2.1; stroke-linecap: square"/>
    </g>
    <g id="text_19">
     <text style="fill: #1f2328; font: 11px 'Helvetica Neue', 'Helvetica', 'Arial', 'DejaVu Sans', sans-serif; text-anchor: start" x="73.081563" y="49.373437" transform="rotate(-0 73.081563 49.373437)">Azionario (S&amp;P 500)</text>
    </g>
    <g id="line2d_30">
     <path d="M 42.281562 61.231094 
L 53.281562 61.231094 
L 64.281563 61.231094 
" style="fill: none; stroke: #3f6f8f; stroke-width: 1.5; stroke-linecap: square"/>
    </g>
    <g id="text_20">
     <text style="fill: #1f2328; font: 11px 'Helvetica Neue', 'Helvetica', 'Arial', 'DejaVu Sans', sans-serif; text-anchor: start" x="73.081563" y="65.081094" transform="rotate(-0 73.081563 65.081094)">Obbligazioni</text>
    </g>
    <g id="line2d_31">
     <path d="M 42.281562 76.885469 
L 53.281562 76.885469 
L 64.281563 76.885469 
" style="fill: none; stroke: #7a8450; stroke-width: 1.5; stroke-linecap: square"/>
    </g>
    <g id="text_21">
     <text style="fill: #1f2328; font: 11px 'Helvetica Neue', 'Helvetica', 'Arial', 'DejaVu Sans', sans-serif; text-anchor: start" x="73.081563" y="80.735469" transform="rotate(-0 73.081563 80.735469)">Oro</text>
    </g>
    <g id="line2d_32">
     <path d="M 42.281562 93.022812 
L 53.281562 93.022812 
L 64.281563 93.022812 
" style="fill: none; stroke: #aba499; stroke-width: 1.5; stroke-linecap: square"/>
    </g>
    <g id="text_22">
     <text style="fill: #1f2328; font: 11px 'Helvetica Neue', 'Helvetica', 'Arial', 'DejaVu Sans', sans-serif; text-anchor: start" x="73.081563" y="96.872812" transform="rotate(-0 73.081563 96.872812)">Liquidità</text>
    </g>
   </g>
  </g>
 </g>
 <defs>
  <clipPath id="p2c10c10f5d">
   <rect x="32.381563" y="31.433125" width="530.1" height="255.024"/>
  </clipPath>
 </defs>
</svg>
